<svg version="1.0" xmlns="http://www.w3.org/2000/svg" width="4e3pt" height="716pt" viewBox="0 0 4e3 716"><g transform="translate(0.000000,716.000000) scale(0.100000,-0.100000)" fill="#000" stroke="none"><path d="M570 3275V0h19715H4e4v2015 2015h-310-310v1260 1260h-7980-7980l-3-622-2-623-3 623-2 622H11990 570V3275zm5898 2098c-26-2-71-2-1e2.0-29 2-8 3 47 3 55 0 79-1 53-3zm4095 0c-29-2-77-2-105 0-29 2-6 3 52 3 58 0 81-1 53-3zm3495 0c-15-2-42-2-60 0-18 2-6 4 27 4 33 0 48-2 33-4zm2185 0c-29-2-77-2-105 0-29 2-6 3 52 3 58 0 81-1 53-3zm4885 0c-21-2-57-2-80 0-24 2-7 4 37 4 44 0 63-2 43-4zm4635 0c-18-2-48-2-65 0-18 2-4 4 32 4 36 0 50-2 33-4zm2170 0c-29-2-78-2-110 0-32 2-8 3 52 3 61 0 87-1 58-3zm3940 0c-29-2-77-2-105 0-29 2-6 3 52 3 58 0 81-1 53-3zm4120 0c-24-2-62-2-85 0-24 2-5 4 42 4 47 0 66-2 43-4zm2290 0c-23-2-64-2-90 0-26 2-7 3 42 3 50 0 71-1 48-3zm-31666-9c-3-3-12-4-19-1-8 3-5 6 6 6 11 1 17-2 13-5zm37e2.0c-3-3-12-4-19-1-8 3-5 6 6 6 11 1 17-2 13-5zm410 0c-3-3-12-4-19-1-8 3-5 6 6 6 11 1 17-2 13-5zm5280 0c-3-3-12-4-19-1-8 3-5 6 6 6 11 1 17-2 13-5zm4e2.0c-3-3-12-4-19-1-8 3-5 6 6 6 11 1 17-2 13-5zm11270 0c-3-3-12-4-19-1-8 3-5 6 6 6 11 1 17-2 13-5zm420 0c-3-3-12-4-19-1-8 3-5 6 6 6 11 1 17-2 13-5zm3540 0c-3-3-12-4-19-1-8 3-5 6 6 6 11 1 17-2 13-5zm4160 0c-3-3-12-4-19-1-8 3-5 6 6 6 11 1 17-2 13-5zm-25560-10c-3-3-12-4-19-1-8 3-5 6 6 6 11 1 17-2 13-5zm570 0c-3-3-12-4-19-1-8 3-5 6 6 6 11 1 17-2 13-5zm5120 0c-3-3-12-4-19-1-8 3-5 6 6 6 11 1 17-2 13-5zm550 0c-3-3-12-4-19-1-8 3-5 6 6 6 11 1 17-2 13-5zm11120 0c-3-3-12-4-19-1-8 3-5 6 6 6 11 1 17-2 13-5zm580 0c-3-3-12-4-19-1-8 3-5 6 6 6 11 1 17-2 13-5zm3380 0c-3-3-12-4-19-1-8 3-5 6 6 6 11 1 17-2 13-5zm550 0c-3-3-12-4-19-1-8 3-5 6 6 6 11 1 17-2 13-5zm-4570-10c-3-3-12-4-19-1-8 3-5 6 6 6 11 1 17-2 13-5zm-96e2-2556c-1-464-2-85-2 842 0 927 1 1306 2 843 2-464 2-1222 0-1685zm4480 2224c-1-53-3-7-3 103 0 110 2 154 3 97 2-57 2-147 0-2e2zm1680 0c-1-53-3-7-3 103 0 110 2 154 3 97 2-57 2-147 0-2e2zm760-64c-1-68-3-13-3 122 0 135 2 190 3 123 2-68 2-178 0-245zm8710-2160c-1-464-2-85-2 842 0 927 1 1306 2 843 2-464 2-1222 0-1685zm1230 2095c-1-81-3-17-3 142 0 160 2 226 3 148 2-78 2-208 0-290zm-21377 224c0-2-15-16-32-33l-33-29 29 33c28 30 36 37 36 29zm7e3-1c0-2-8-10-17-17-16-13-17-12-4 4 13 16 21 21 21 13zm1505-96c10-11 16-20 13-20-3 0-13 9-23 20-10 11-16 20-13 20 3 0 13-9 23-20zm17146-7c13-16 12-17-3-4-10 7-18 15-18 17 0 8 8 3 21-13zm-21806-33c10-11 16-20 13-20-3 0-13 9-23 20-10 11-16 20-13 20 3 0 13-9 23-20zm-10908 4c-3-3-12-4-19-1-8 3-5 6 6 6 11 1 17-2 13-5zm240 0c-3-3-12-4-19-1-8 3-5 6 6 6 11 1 17-2 13-5zm894-11c13-16 12-17-3-4-10 7-18 15-18 17 0 8 8 3 21-13zm4154-3c10-11 16-20 13-20-3 0-13 9-23 20-10 11-16 20-13 20 3 0 13-9 23-20zm2282 14c-3-3-12-4-19-1-8 3-5 6 6 6 11 1 17-2 13-5zm2190 0c-3-3-12-4-19-1-8 3-5 6 6 6 11 1 17-2 13-5zm15630 0c-3-3-12-4-19-1-8 3-5 6 6 6 11 1 17-2 13-5zm4076-1c-7-2-19-2-25 0-7 3-2 5 12 5 14 0 19-2 13-5zm120 0c-7-2-19-2-25 0-7 3-2 5 12 5 14 0 19-2 13-5zm2160 0c-7-2-19-2-25 0-7 3-2 5 12 5 14 0 19-2 13-5zm120 0c-7-2-19-2-25 0-7 3-2 5 12 5 14 0 19-2 13-5zm-11513-58c-24-25-46-45-49-45-3 0 15 20 39 45 24 25 46 45 49 45 3 0-15-20-39-45zm2331 28c13-16 12-17-3-4-10 7-18 15-18 17 0 8 8 3 21-13zm-7041-16c0-2-12-14-27-28l-28-24 24 28c23 25 31 32 31 24zm1417-2234c-1-411-2-78-2 742 0 820 1 1156 2 748 2-408 2-1078 0-1490zM7681 4773c13-16 12-17-3-4-10 7-18 15-18 17 0 8 8 3 21-13zm28734-3c10-11 16-20 13-20-3 0-13 9-23 20-10 11-16 20-13 20 3 0 13-9 23-20zm-1215-63c0-2-15-16-32-33l-33-29 29 33c28 30 36 37 36 29zM7461 4533c13-16 12-17-3-4-10 7-18 15-18 17 0 8 8 3 21-13zm25410-20c13-16 12-17-3-4-10 7-18 15-18 17 0 8 8 3 21-13zm6056-315c-3-8-6-5-6 6-1 11 2 17 5 13 3-3 4-12 1-19zm-18216-25c13-16 12-17-3-4-10 7-18 15-18 17 0 8 8 3 21-13zm18226-135c-2-13-4-5-4 17-1 22 1 32 4 23 2-10 2-28 0-40zm-2280-40c-3-8-6-5-6 6-1 11 2 17 5 13 3-3 4-12 1-19zm-11770-90c-3-8-6-5-6 6-1 11 2 17 5 13 3-3 4-12 1-19zm-17130-90c-3-8-6-5-6 6-1 11 2 17 5 13 3-3 4-12 1-19zm22360-20c-3-7-5-2-5 12 0 14 2 19 5 13 2-7 2-19 0-25zm47e2.0c-3-8-6-5-6 6-1 11 2 17 5 13 3-3 4-12 1-19zm-9940-25c-3-10-5-4-5 12 0 17 2 24 5 18 2-7 2-21 0-30zm-19760-45c-3-7-5-2-5 12 0 14 2 19 5 13 2-7 2-19 0-25zm4090 0c-3-7-5-2-5 12 0 14 2 19 5 13 2-7 2-19 0-25zm16970-15c-3-10-5-2-5 17 0 19 2 27 5 18 2-10 2-26 0-35zm4350 0c-3-10-5-4-5 12 0 17 2 24 5 18 2-7 2-21 0-30zm-18710-10c-3-10-5-4-5 12 0 17 2 24 5 18 2-7 2-21 0-30zm3080 0c-3-10-5-4-5 12 0 17 2 24 5 18 2-7 2-21 0-30zm2660-25c-2-13-4-5-4 17-1 22 1 32 4 23 2-10 2-28 0-40zm-9790-45c-2-16-4-3-4 27 0 30 2 43 4 28 2-16 2-40 0-55zm4470 30c-3-10-5-2-5 17 0 19 2 27 5 18 2-10 2-26 0-35zm20950-105c-2-29-3-6-3 52 0 58 1 81 3 53 2-29 2-77 0-105zm1620 95c-3-10-5-2-5 17 0 19 2 27 5 18 2-10 2-26 0-35zm-5209-40c-3-17-76-18-1498-13l-1495 5 1493 3 1492 2 1 28c1 16 3 20 6 10 2-10 3-26 1-35zm-4731-50c-2-16-4-5-4 22 0 28 2 40 4 28 2-13 2-35 0-50zm-12630-10c-3-10-5-4-5 12 0 17 2 24 5 18 2-7 2-21 0-30zm24840-5c-3-8-6-5-6 6-1 11 2 17 5 13 3-3 4-12 1-19zm-22180-25c-3-10-5-4-5 12 0 17 2 24 5 18 2-7 2-21 0-30zm2660-10c-3-10-5-2-5 17 0 19 2 27 5 18 2-10 2-26 0-35zm-12440-5c-3-7-5-2-5 12 0 14 2 19 5 13 2-7 2-19 0-25zm21060-15c-3-10-5-2-5 17 0 19 2 27 5 18 2-10 2-26 0-35zm4350 15c-3-7-5-2-5 12 0 14 2 19 5 13 2-7 2-19 0-25zm-18710-10c-3-7-5-2-5 12 0 14 2 19 5 13 2-7 2-19 0-25zm-4060-20c-3-8-6-5-6 6-1 11 2 17 5 13 3-3 4-12 1-19zm1450 0c-3-8-6-5-6 6-1 11 2 17 5 13 3-3 4-12 1-19zm12559-10 29-33-32 29c-31 28-38 36-30 36 2 0 16-15 33-32zm8351-20c-3-7-5-2-5 12 0 14 2 19 5 13 2-7 2-19 0-25zm-27810-24c-3-3-12-4-19-1-8 3-5 6 6 6 11 1 17-2 13-5zm50 0c-3-3-12-4-19-1-8 3-5 6 6 6 11 1 17-2 13-5zm32440-1112c-1-202-2-36-2 368 0 404 1 570 2 368 2-203 2-533 0-736zm-21640 986c-2-18-4-4-4 32 0 36 2 50 4 33 2-18 2-48 0-65zm-11919-85c-10-2-28-2-40 0-13 2-5 4 17 4 22 1 32-1 23-4zm11e2.0c-10-2-26-2-35 0-10 3-2 5 17 5 19 0 27-2 18-5zm1120 0c-16-2-40-2-55 0-16 2-3 4 27 4 30 0 43-2 28-4zm21399-945c-1-178-2-35-2 317 0 352 1 497 2 323 2-174 2-462 0-640zM1773 3203c-7-2-19-2-25 0-7 3-2 5 12 5 14 0 19-2 13-5zm1140 0c-13-2-35-2-50 0-16 2-5 4 22 4 28 0 40-2 28-4zm18704-315c-3-8-6-5-6 6-1 11 2 17 5 13 3-3 4-12 1-19zm-20350-14c-3-3-12-4-19-1-8 3-5 6 6 6 11 1 17-2 13-5zm1086-1c-18-2-48-2-65 0-18 2-4 4 32 4 36 0 50-2 33-4zm464 1c-3-3-12-4-19-1-8 3-5 6 6 6 11 1 17-2 13-5zm160 0c-3-3-12-4-19-1-8 3-5 6 6 6 11 1 17-2 13-5zm12264-161c13-16 12-17-3-4-10 7-18 15-18 17 0 8 8 3 21-13zm-5680-30c13-16 12-17-3-4-10 7-18 15-18 17 0 8 8 3 21-13zm1889-16c0-2-12-14-27-28l-28-24 24 28c23 25 31 32 31 24zm17390-21c0-2-8-10-17-17-16-13-17-12-4 4 13 16 21 21 21 13zm-9450-40c148-74 227-212 218-375-8-137-92-264-215-327-54-27-66-29-168-29-101 0-114 2-164 28-79 42-147 110-184 186-30 61-32 74-32 166 0 87 3 107 27 157 45 97 132 176 236 215 25 9 69 12 132 10 80-2 104-7 150-31zm-9749-3c13-16 12-17-3-4-10 7-18 15-18 17 0 8 8 3 21-13zm-1484-120c-2-16-4-5-4 22 0 28 2 40 4 28 2-13 2-35 0-50zm-477 53c0-2-8-10-17-17-16-13-17-12-4 4 13 16 21 21 21 13zm13810-39c0-2-17-19-37-38l-38-34 34 38c33 34 41 42 41 34zm-4110-112c-24-25-46-45-49-45-3 0 15 20 39 45 24 25 46 45 49 45 3 0-15-20-39-45zm13245-5c27-27 47-50 44-50-3 0-27 23-54 50-27 28-47 50-44 50 3 0 27-22 54-50zm-18865 26c0-2-8-10-17-17-16-13-17-12-4 4 13 16 21 21 21 13zm3290-83c0-8-9 0-50 45l-45 47 48-45c26-24 47-45 47-47zm17980 84c0-2-12-14-27-28l-28-24 24 28c23 25 31 32 31 24zm-25490-11c0-2-8-10-17-17-16-13-17-12-4 4 13 16 21 21 21 13zm19121-13c13-16 12-17-3-4-10 7-18 15-18 17 0 8 8 3 21-13zm2499 14c0-2-17-19-37-38l-38-34 34 38c33 34 41 42 41 34zm-22963-23c-3-3-12-4-19-1-8 3-5 6 6 6 11 1 17-2 13-5zm271-21c-10-2-28-2-40 0-13 2-5 4 17 4 22 1 32-1 23-4zm26502-7c0-2-8-10-17-17-16-13-17-12-4 4 13 16 21 21 21 13zm-21290-19c0-2-10-12-22-23l-23-19 19 23c18 21 26 27 26 19zm15095-57c10-11 16-20 13-20-3 0-13 9-23 20-10 11-16 20-13 20 3 0 13-9 23-20zm-16292 3c-13-2-35-2-50 0-16 2-5 4 22 4 28 0 40-2 28-4zm110 0c-13-2-35-2-50 0-16 2-5 4 22 4 28 0 40-2 28-4zm6667 3c0-2-8-10-17-17-16-13-17-12-4 4 13 16 21 21 21 13zm3708-3c-10-2-26-2-35 0-10 3-2 5 17 5 19 0 27-2 18-5zm80 0c-10-2-26-2-35 0-10 3-2 5 17 5 19 0 27-2 18-5zm-4951-9c-3-3-12-4-19-1-8 3-5 6 6 6 11 1 17-2 13-5zm280 0c-3-3-12-4-19-1-8 3-5 6 6 6 11 1 17-2 13-5zm11350 0c-3-3-12-4-19-1-8 3-5 6 6 6 11 1 17-2 13-5zm290 0c-3-3-12-4-19-1-8 3-5 6 6 6 11 1 17-2 13-5zm3710 0c-3-3-12-4-19-1-8 3-5 6 6 6 11 1 17-2 13-5zm280 0c-3-3-12-4-19-1-8 3-5 6 6 6 11 1 17-2 13-5zm-11836-61c13-16 12-17-3-4-10 7-18 15-18 17 0 8 8 3 21-13zm-12434-30c-3-10-5-4-5 12 0 17 2 24 5 18 2-7 2-21 0-30zm-10-115c-3-8-6-5-6 6-1 11 2 17 5 13 3-3 4-12 1-19zm-1454-85c-7-2-19-2-25 0-7 3-2 5 12 5 14 0 19-2 13-5zm280 0c-7-2-19-2-25 0-7 3-2 5 12 5 14 0 19-2 13-5zm3905-90c-10-2-26-2-35 0-10 3-2 5 17 5 19 0 27-2 18-5zm140 0c-10-2-26-2-35 0-10 3-2 5 17 5 19 0 27-2 18-5zm5530 0c-10-2-26-2-35 0-10 3-2 5 17 5 19 0 27-2 18-5zm140 0c-10-2-26-2-35 0-10 3-2 5 17 5 19 0 27-2 18-5zm4705 0c-7-2-21-2-30 0-10 3-4 5 12 5 17 0 24-2 18-5zm110 0c-7-2-21-2-30 0-10 3-4 5 12 5 17 0 24-2 18-5zm6765 0c-10-2-28-2-40 0-13 2-5 4 17 4 22 1 32-1 23-4zm150 0c-10-2-28-2-40 0-13 2-5 4 17 4 22 1 32-1 23-4zm3760 0c-10-2-26-2-35 0-10 3-2 5 17 5 19 0 27-2 18-5zm140 0c-10-2-26-2-35 0-10 3-2 5 17 5 19 0 27-2 18-5zM5088 1683c-65-2-171-2-235 0-65 1-12 3 117 3 129 0 182-2 118-3zm1159-639c-3-3-12-4-19-1-8 3-5 6 6 6 11 1 17-2 13-5zm390 0c-3-3-12-4-19-1-8 3-5 6 6 6 11 1 17-2 13-5zm-259-381c-16-2-40-2-55 0-16 2-3 4 27 4 30 0 43-2 28-4zm210 0c-16-2-40-2-55 0-16 2-3 4 27 4 30 0 43-2 28-4z"/></g></svg>