<svg version="1.0" xmlns="http://www.w3.org/2000/svg" width="359pt" height="484pt" viewBox="0 0 359 484"><g transform="translate(0.000000,484.000000) scale(0.100000,-0.100000)" fill="#000" stroke="none"><path d="M2704 3884c-40-10-84-44-83-64 0-8 21-32 56-63 25-24 34-27 51-18 15 8 23 7 32-4 13-15 6-33-21-52-9-7-19-23-22-35-2-13-19-74-36-137-36-129-33-159 20-186 58-30 235-9 283 33 15 14 17 27 13 77-8 90-64 343-84 378-40 67-119 94-209 71z"/><path d="M1188 2662 0 2660V1330 0h1303c796 0 1296 4 1287 10-12 7-12 12 0 34 14 26 27 32 45 18 15-11 17-32 4-48-10-12 59-14 470-14h481v1330 1330h-94-95l-4-27c-4-25-4-24-6 7-2 27-6 19-16-37-7-40-33-117-58-172l-44-99 114-7c104-7 114-9 110-26-3-13 1-19 17-21 20-3 21-7 17-128-2-69-4-126-5-127-1-1-84 0-183 4-212 7-193-9-193 158 0 61-3 140-7 178l-6 67h-378-378l-3 118-3 117-1187-3zm1180-124c-1-116-5-102-10 35-2 42 0 77 5 77 4 0 6-51 5-112zm1019 30c-3-7-5-2-5 12 0 14 2 19 5 13 2-7 2-19 0-25zm-17-55c-11-17-11-17-6 0 3 10 6 24 7 30 0 9 2 9 5 0 3-7 0-20-6-30zm-19-50c-12-20-14-14-5 12 4 9 9 14 11 11 3-2 0-13-6-23zm-30-71-21-41 23-4c19-4 18-4-5-6-16 0-28 1-28 4 0 10 44 94 48 91 2-2-6-22-17-44zm157-59c-10-2-28-2-40 0-13 2-5 4 17 4 22 1 32-1 23-4zm79-85c-3-8-6-5-6 6-1 11 2 17 5 13 3-3 4-12 1-19zm-10-185c-2-21-4-4-4 37 0 41 2 58 4 38 2-21 2-55 0-75zm-234-50c-23-2-64-2-90 0-26 2-7 3 42 3 50 0 71-1 48-3zm2e2-10c-13-2-33-2-45 0-13 2-3 4 22 4 25 0 35-2 23-4zM2488 418c2-21 7-38 11-38 5 0 7 12 5 28-2 16-1 19 2 7 3-11 10-24 15-29 5-6 8-48 7-96l-2-85-6 90-6 90-2-92-2-93h-220-220l-1 28-1 27-9-25-8-25 2 25c1 14 7 25 12 25 6 1 19 5 30 11 11 6 66 28 123 50l102 39-2 40-1 40-4-35c-4-34-17-50-38-50-5 1-2 5 8 11 10 6 17 22 17 38 0 16 8 35 17 42 11 10 14 10 9 2-4-7-2-13 3-13 6 0 11 7 11 15 0 13 13 15 73 13l72-3 3-37zm709 2c7-10 10-26 7-35-4-8-2-21 4-28 12-14 19-148 8-165-4-7-19-11-34-11-27 2-27 2-2 6 71 13 19 18-160 15-158-2-2e2.0-2e2 10 0 10-2 10-9-1-6-9-8-4-7 16 1 32 21 63 39 63 6 0 1-7-11-16-12-8-22-21-21-27 0-9 2-9 6 0 2 7 31 24 64 39 33 15 56 31 52 37-3 6-1 7 5 3 17-10 101 35 95 51-3 7-2 24 1 38 6 24 10 25 79 25 61 0 74-3 84-20zm-175-24c-3-25-11-36-30-45-27-11-27-11-4 5 12 9 22 26 22 39 0 17 7 35 15 35 0 0-1-15-3-34zm-782-61c-14-8-29-14-35-14-5 0 1 6 15 14 14 8 30 14 35 14 6 0-1-6-15-14zm997-82c-2-21-4-6-4 32 0 39 2 55 4 38 2-18 2-50 0-70zm-1057 57c-8-5-19-10-25-10-5 0-3 5 5 10 8 5 20 10 25 10 6 0 3-5-5-10zm710-10c-8-5-19-10-25-10-5 0-3 5 5 10 8 5 20 10 25 10 6 0 3-5-5-10zm-397-117c-7-2-21-2-30 0-10 3-4 5 12 5 17 0 24-2 18-5z"/><path d="M3107 2606c8-34 18-77 22-96 7-32 8-29 19 43 13 85 14 146 2 87-6-30-8-31-9-9-1 20-7 28-25 31l-23 5 14-61zm10 22c-3-8-6-5-6 6-1 11 2 17 5 13 3-3 4-12 1-19zm22-73c-1-29-1-29-9-5-4 14-8 34-9 45-1 16 1 17 9 5 5-8 9-28 9-45z"/></g></svg>