<svg version="1.0" xmlns="http://www.w3.org/2000/svg" width="448pt" height="483pt" viewBox="0 0 448 483"><g transform="translate(0.000000,483.000000) scale(0.100000,-0.100000)" fill="#000" stroke="none"><path d="M0 2415V0h2240 2240v2415 2415h-750-751l4-24c1-14 26-49 53-78 65-68 109-182 134-348 10-65 49-495 57-625 5-87 5-92-22-123-33-39-24-43 12-4 21 22 24 23 14 5-22-43-20-42-380-50l-283-5 6-282c3-154 7-465 8-691l3-410h-6e2-6e2l3 50c4 94 47 373 77 508 2 13-1 17-11 13-23-9-96 122-93 168 0 6 9-13 19-42 20-56 59-126 67-119 2 3-7 21-20 40-34 51-60 155-106 432-76 455-89 620-52 681 33 54 88 68 239 60 70-3 151-9 180-12l52-7-6 31c-5 25-2 31 17 37 15 5 25 3 27-4 11-33 103-52 156-31 25 9 25 11 28 136l3 127 63 39 63 38 29-22c33-24 38-33 14-24-8 3-12 2-9-4 3-6 17-10 30-10 18 0 25-7 30-32 5-23 3-35-8-43-9-6-21-34-28-61-13-52-43-94-68-94-10 0-12-3-5-8 6-4 13-15 17-24 4-11 18-19 34-19 49-2 71-6 90-14 10-5 23-9 28-9 6-1 11-11 13-23 2-16 11-23 35-26 31-4 31-4-5-5-33-2-37 1-40 26l-3 27-6-31-5-31 278-27c304-30 353-28 420 17 60 41 63 57 44 269-10 103-17 213-17 244 0 41-3 53-12 46-28-23-97-16-97 11 0 6 7 2 16-9 15-18 15-18 5 3-6 12-12 41-13 65l-1 43-7-45-7-45-3 38c-4 59-5 62-20 59-10-3-9 3 4 17 11 12 15 21 9 21-6 0-10 18-10 40 0 32 3 40 18 40 17 0 19 8 17 68l-2 67-3-62c-3-52-7-63-21-62-10 0-12 3-4 6 7 3 12 25 12 59v54H1420 0V2415zm3114 2237c10-19 16-36 13-38-2-2-12 13-22 35-9 21-35 56-56 77-21 21-39 41-39 46 0 14 87-87 104-120zm-3e2 22c3-8 2-12-4-9-6 3-10 10-10 16 0 14 7 11 14-7zm-1-44c3-11 1-18-4-14-5 3-9 12-9 20 0 20 7 17 13-6zm336-80c0-9-4-8-9 5-5 11-9 27-9 35 0 9 4 8 9-5 5-11 9-27 9-35zm8-42c-3-8-6-5-6 6-1 11 2 17 5 13 3-3 4-12 1-19zm10-40c-3-8-6-5-6 6-1 11 2 17 5 13 3-3 4-12 1-19zm-217-28c0-5-15-9-32-9l-33 1 30 8c17 4 31 8 33 9 1 0 2-3 2-9zm238-56-3-39-5 47c-3 26-1 43 3 39 5-5 7-26 5-47zm-241-61c-2-16-4-3-4 27 0 30 2 43 4 28 2-16 2-40 0-55zm250-50c-2-16-4-5-4 22 0 28 2 40 4 28 2-13 2-35 0-50zm-240-60c-2-16-4-3-4 27 0 30 2 43 4 28 2-16 2-40 0-55zm-2144 60c-67-2-179-2-250 0-70 1-15 3 122 3 138 0 195-2 128-3zm-386-135c-2-24-4-5-4 42 0 47 2 66 4 43 2-24 2-62 0-85zm503 87v-35h50 50v-775c0-768 0-775 20-775 18 0 20-7 20-75v-75h50 50v75 75h50 50v-75c0-69 2-75 20-75 20 0 20-5 18-145-4-186-21-193-28-13-5 111-6 119-8 48-2-105-18-135-66-127l-31 6 30-14c17-8 23-14 14-15-9 0-27 9-40 21-13 11-18 17-10 13 11-5 13-3 8 10-4 10-7 56-7 102v84h-51-50l2-102c1-88-1-103-17-115-10-7-25-13-33-13-9 1-1 7 17 15 44 19 41 26-5 10-59-21-68-6-64 110l3 95h-51-50l-3-1e2c-2-55-2-1e2.0-1e2 1 0 7 10 12 23 6 14 9 16 9 6 1-9-9-24-21-35-12-10-18-13-14-6 6 10 1 11-21 6-15-4-30-8-32-10-6-6-41 27-41 39 0 5 8 1 18-10 9-10 14-14 10-9-5 6-8 52-8 103v93h-50-50l2-92 2-93 3 88 4 87 42-2 42-1-37-4-37-4-3-82c-2-54-7-82-15-82-15 0-28-13-28-28 0-15-34-22-47-9-6 6-1 9 14 7 13-1 16 0 7 2-37 9-48 37-52 128-2 74-3 67-5-42-2-111-5-133-17-133-13 0-15 23-15 145 0 138 1 145 20 145 18 0 20 7 20 75v75h50 50v-75-75l53 2 52 2-47 3-47 4-3 72-3 72-55 6-55 6 51 1c28 1 55-3 62-10 7-7 12-39 12-75v-63h40 40v65 65h45 45v-75-75h53 52l-3 75c-3 70-2 75 17 75 21 0 21 2 21 405v405h-40c-39 0-40-1-40-35v-35H685 440v85 85h245 245l1-42 2-43 7 40 7 40 2-37c1-35 3-38 31-38h30v110 110h-40c-39 0-40-1-40-35v-35H685 440v85 85h245 245v-40-40h40 40v105 105h-40c-39 0-40-1-40-35v-35H685 440v80 80h245 245v-35c0-34 1-35 40-35h40v115 115h-40c-39 0-40-1-40-35v-35H685 440v80 80h245 245v-35zm63-18 42-4-47-1-48-2 1 33c2 29 2 29 6 5 4-24 10-27 46-31zm2214-34c-2-16-4-5-4 22 0 28 2 40 4 28 2-13 2-35 0-50zm-240-70c-2-16-4-3-4 27 0 30 2 43 4 28 2-16 2-40 0-55zm-1967-48v-105h-30c-27 0-30 3-29 33 2 30 2 30 6 5 3-20 10-28 24-28 17 0 19 8 19 95 0 87-2 95-19 95-14 0-21-8-24-27-4-26-4-26-6 5-1 29 2 32 29 32h30v-105zm2217-2c-2-16-4-5-4 22 0 28 2 40 4 28 2-13 2-35 0-50zm-2414 30c-68-2-178-2-245 0-68 1-13 3 122 3 135 0 190-2 123-3zm2174-95c-2-13-4-3-4 22 0 25 2 35 4 23 2-13 2-33 0-45zm-2550-90c-2-24-4-7-4 37 0 44 2 63 4 43 2-21 2-57 0-80zm1096 105c-29-2-77-2-105 0-29 2-6 3 52 3 58 0 81-1 53-3zm1704-75c-2-18-4-6-4 27 0 33 2 48 4 33 2-15 2-42 0-60zm-1904 53c-63-29-77-58-84-175l-5-101-2 95c-2 79 1 1e2 18 128 21 34 74 72 1e2 72 8 0-4-9-27-19zm320 12c-13-2-33-2-45 0-13 2-3 4 22 4 25 0 35-2 23-4zm75-10c-10-2-26-2-35 0-10 3-2 5 17 5 19 0 27-2 18-5zm1241-49c-17-21-87-54-114-53-11 0 5 8 35 19 30 10 62 27 70 38 8 11 17 18 19 16 2-2-2-11-10-20zm1381 1c9-11 6-19-22-43-18-16-60-52-92-81-33-28-63-50-67-49-4 2-25 25-48 53-35 42-39 52-27 63 12 12 19 8 49-24l35-38 59 52c33 28 66 58 73 67 16 19 24 19 40 0zm-1947-22c-13-2-33-2-45 0-13 2-3 4 22 4 25 0 35-2 23-4zm-1393-98v-95h-30c-27 0-30 3-29 33 2 30 2 30 6 5 3-20 10-28 24-28 17 0 19 8 19 85 0 77-2 85-19 85-12 0-21-8-24-22-4-20-4-19-6 5-1 24 3 27 29 27h30v-95zm1488 88c-10-2-28-2-40 0-13 2-5 4 17 4 22 1 32-1 23-4zm105-10c-13-2-33-2-45 0-13 2-3 4 22 4 25 0 35-2 23-4zm105-10c-16-2-40-2-55 0-16 2-3 4 27 4 30 0 43-2 28-4zm539-55c-2-13-4-3-4 22 0 25 2 35 4 23 2-13 2-33 0-45zm606 55c-29-2-77-2-105 0-29 2-6 3 52 3 58 0 81-1 53-3zm-1040-10c-13-2-33-2-45 0-13 2-3 4 22 4 25 0 35-2 23-4zm1087-14c0-5 6-7 13-3 8 5 8 2-2-9-11-14-31-17-97-17h-84v-584c0-458 3-585 13-589 7-3 5-6-5-6-17-1-18 34-18 594v594l93 4 92 3-97 2-98 2v-605c0-598 0-605 20-605 18 0 20-7 20-75v-75h48 47l-3 75-4 75h51 51v-75-75h50 50v75 75h50 50v-75-75h50 50v75 75h50 50v-75c0-69 2-75 20-75 20 0 20-5 18-145-4-186-21-193-28-13-5 113-6 120-8 47-2-68-6-92-21-110-17-22-22-23-50-12-41 15-40 6 2-12 17-8 25-14 16-15-8 0-23 6-33 13-16 12-18 27-17 115l2 102h-51-51l2-102c1-88-1-103-17-115-10-7-25-13-33-13-9 1-1 7 17 15 44 19 41 26-5 9-36-12-39-12-60 12-20 21-23 36-23 1e2v74h-30-30v-83c0-74-3-86-22-103-12-10-18-13-14-6 9 14 9 14-31 3-49-14-57 4-54 115l3 94h-46-46l2-92 2-93 3 88 4 87h34c19 0 35-4 35-8 0-5-13-7-30-4l-29 4-3-83c-2-56-7-84-15-84-15 0-28-13-28-28 0-15-34-22-47-9-6 6-1 9 14 7 13-1 16 0 7 2-37 9-48 37-52 128-2 74-3 67-5-42-2-111-5-133-17-133-13 0-15 23-15 145 0 138 1 145 20 145 18 0 20 7 20 75 0 68 2 75 20 75 20 0 20 7 20 615v615h105c67 0 105-4 105-11zm-220-603c0-595 0-604-20-609-18-5-20-14-20-76 0-61-2-71-17-70-11 0-13 3-5 6 8 3 12 27 12 69 0 53 3 66 20 76 20 13 20 24 20 610 0 329 2 598 5 598 3 0 5-272 5-604zM803 3833c-68-2-178-2-245 0-68 1-13 3 122 3 135 0 190-2 123-3zm5-30c-64-2-172-2-240 0-68 1-15 3 117 3 132 0 187-2 123-3zm2439-110c-2-21-4-4-4 37 0 41 2 58 4 38 2-21 2-55 0-75zm-2820-25c-2-24-4-7-4 37 0 44 2 63 4 43 2-21 2-57 0-80zm571-90-2-103-3 98c-3 87-6 97-23 97-11 0-20-9-23-22-4-20-4-19-6 5-1 24 3 27 29 27h30l-2-102zm249 50c-2-13-4-5-4 17-1 22 1 32 4 23 2-10 2-28 0-40zm-444-25c-68-2-178-2-245 0-68 1-13 3 122 3 135 0 190-2 123-3zm465-113c0-16-3-10-9 15-4 22-8 54-7 70 0 22 3 19 9-15 4-25 7-56 7-70zm1860 83c-10-2-28-2-40 0-13 2-5 4 17 4 22 1 32-1 23-4zm-2320-10c-64-2-172-2-240 0-68 1-15 3 117 3 132 0 187-2 123-3zm2020 0-237-3-4-78-3-77-2 83-2 82 243-2 242-3-237-2zM427 3428c-2-24-4-7-4 37 0 44 2 63 4 43 2-21 2-57 0-80zm2727 51c14-11 26-25 26-31 0-6-9 0-19 13-17 22-29 25-128 30l-108 5 101 2c89 2 105-1 128-19zm-241 3c-6-4 39-6 1e2-4 158 5 151 13 155-187l3-161h25 24v-114c0-113 0-114 25-120 36-9 103-72 127-120 24-47 28-138 7-181l-14-30-206-3-206-2-14 32c-22 52-18 147 9 191 25 44 27 51 10 41-7-4 1 7 17 25 17 18 39 37 50 43 11 6 2-6-20-26l-40-37 48 36c27 19 55 35 63 35 11 0 14 22 14 115v115l33 1 32 1-30 8-30 8 28 1 27 1v124c0 69-4 136-10 150-9 26-11 26-119 26-84 0-111-3-121-15-11-13-8-15 19-15 45 0 73-32 69-78-2-27-9-40-28-49-14-7-19-13-11-13 45 0 66 72 35 120l-16 25 21-24c28-31 27-82-1-108-28-25-103-27-103-3 0 8-7 15-15 15-11 0-14 10-12 43 3 41 3 42-27 42-48 0-61-22-61-101 0-39 4-69 10-69 6 0 10-91 10-252v-253l63-247c34-136 61-245 58-243-2 3-10-3-17-13-11-14-30-17-134-17-106 0-123 2-135 18-7 10-15 13-16 8-2-6-5 35-6 92-1 78 1 91 7 57 4-25 6-58 4-75-2-16 23 71 56 195l60 225v252c0 138 4 253 9 255 5 2 10 40 12 85 3 52 1 79-6 75-5-3 1 7 14 21 14 15 29 27 34 27 5 0-1-9-14-20l-24-20 30 15c17 8 42 15 58 15 15 0 27 4 27 8 0 5-15 6-32 4-18-3-31-2-27 1 3 4 20 8 38 9 30 2 43 11 47 31 1 4 2 9 3 12 0 3 7 5 14 5 9 0 9-2 0-8zm-1636-69c-3-10-5-2-5 17 0 19 2 27 5 18 2-10 2-26 0-35zm-330-10c-3-10-5-4-5 12 0 17 2 24 5 18 2-7 2-21 0-30zm53-358c0-217-3-395-7-395-5 0-7 178-5 395 1 217 5 395 7 395 3 0 5-178 5-395zm2130 378c0-13-2-15-8-5-6 9-36 12-105 11-54-1-1e2 1-104 4-3 4 44 7 105 7 1e2.0 112-2 112-17zm78-276c12-3 11-5-5-6-23-1-23-1-21 147l2 147 3-142c3-124 6-142 21-146zm-1921 206c-3-10-5-4-5 12 0 17 2 24 5 18 2-7 2-21 0-30zm1850-15c-2-13-4-5-4 17-1 22 1 32 4 23 2-10 2-28 0-40zm-288 15c-2-26-2-26-6-4-4 18-10 22-29 18-13-2-21 0-18 4 3 5 16 9 30 9 20 0 24-5 23-27zm-2046 10c-68-2-178-2-245 0-68 1-13 3 122 3 135 0 190-2 123-3zm1934-1e2c-2-21-4-4-4 37 0 41 2 58 4 38 2-21 2-55 0-75zm50-5c-2-18-4-4-4 32 0 36 2 50 4 33 2-18 2-48 0-65zm-1490 35c-3-10-5-4-5 12 0 17 2 24 5 18 2-7 2-21 0-30zm10-60c-3-10-5-4-5 12 0 17 2 24 5 18 2-7 2-21 0-30zm1290-551c-1-97-2-15-2 183 0 198 1 278 2 177 2-101 2-263 0-360zm120 156c-1-73-3-16-3 127 0 143 2 203 3 133 2-70 2-187 0-260zm90-10c-1-73-3-14-3 132 0 146 2 205 3 133 2-73 2-193 0-265zm-1490 350c-3-7-5-2-5 12 0 14 2 19 5 13 2-7 2-19 0-25zm21-108c0-22-1-22-8 5-4 17-8 41-8 55 0 22 1 22 8-5 4-16 8-41 8-55zm1739-107c-2-32-3-8-3 52 0 61 1 87 3 58 2-29 2-78 0-110zm216-73c43-27 107-107 107-134 0-6-15 14-33 44-23 40-46 63-84 85l-52 30 1 105 2 105 5-102 6-102 48-31zm-1946 118c-3-7-5-2-5 12 0 14 2 19 5 13 2-7 2-19 0-25zm10-50c-3-7-5-2-5 12 0 14 2 19 5 13 2-7 2-19 0-25zm1581-173c-6-14-13-23-15-21-5 5 15 46 22 46 3 0-1-11-7-25zm-1491-67c-3-7-5-2-5 12 0 14 2 19 5 13 2-7 2-19 0-25zm1463-28c-6-42-8-47-9-20-1 34 8 84 14 78 2-2 0-28-5-58zm497 18c-3-7-5-2-5 12 0 14 2 19 5 13 2-7 2-19 0-25zm-1970-45c-3-10-5-4-5 12 0 17 2 24 5 18 2-7 2-21 0-30zm1270 15c-3-8-6-5-6 6-1 11 2 17 5 13 3-3 4-12 1-19zm110-10c-3-8-6-5-6 6-1 11 2 17 5 13 3-3 4-12 1-19zm-1964-15c-13-2-35-2-50 0-16 2-5 4 22 4 28 0 40-2 28-4zm214 1c-3-3-12-4-19-1-8 3-5 6 6 6 11 1 17-2 13-5zm176-1c-13-2-35-2-50 0-16 2-5 4 22 4 28 0 40-2 28-4zm1454-15c-3-8-6-5-6 6-1 11 2 17 5 13 3-3 4-12 1-19zm1216 15c-13-2-35-2-50 0-16 2-5 4 22 4 28 0 40-2 28-4zm225-5c7-7 12-39 12-75v-63h30c29 0 29 0 33 68l3 67 2-72 2-73h-40-39l-3 73-3 72-50 6-50 6 46 1c25 1 50-3 57-10zm165 5c-13-2-35-2-50 0-16 2-5 4 22 4 28 0 40-2 28-4zm-1476-25c-3-8-6-5-6 6-1 11 2 17 5 13 3-3 4-12 1-19zm573-25c-11-17-11-17-6 0 3 10 7 26 7 35 1 15 2 15 6 0 2-10-1-25-7-35zm-2830-33c0-60-2-70-17-69-11 0-13 3-5 6 8 3 12 27 12 69 0 35 2 64 5 64 3 0 5-31 5-70zm550-60c29 0 29 0 33 68l3 67 2-72 2-73h-40-40l2 73 2 72 3-67c4-68 4-68 33-68zm307 98c-3-7-5-2-5 12 0 14 2 19 5 13 2-7 2-19 0-25zm2366-101c31-4 31-4-5-5l-38-2 2 73 2 72 3-67 4-67 32-4zm187 3c29 0 29 1 33 63l3 62 2-67 2-68h-40-40l2 73 2 72 3-67c4-68 4-68 33-68zm-2677-2c8-5 6-8-5-8-16 0-18 9-16 68l2 67 3-60c2-33 10-63 16-67zm1626 77c0-5-4-3-9 5-5 8-9 22-9 30 0 16 17-16 18-35zm1434-77c8-5 6-8-5-8-16 0-18 9-16 68l2 67 3-60c2-33 10-63 16-67zm-1676 90c-3-8-6-5-6 6-1 11 2 17 5 13 3-3 4-12 1-19zm150-10c-3-8-6-5-6 6-1 11 2 17 5 13 3-3 4-12 1-19zm-2459 5c-53-2-143-2-2e2.0-57 1-13 3 97 3 110 0 156-2 103-3zm1037-58c-4-25-9-44-12-41-2 2-1 25 2 51 4 25 9 44 12 41 2-2 1-25-2-51zm-935-124c0-228 10-217-186-214-116 2-150 6-164 18-9 8-19 13-21 11-2-2-3 61-1 141 3 139-4 183-28 168-12-8-21 11-14 29 5 14 33 16 210 16h204v-169zm9-179c-10-16-10-15-5 1 3 10 7 94 8 185l2 167 3-168c2-110 0-174-8-185zm2188 326c-3-8-6-5-6 6-1 11 2 17 5 13 3-3 4-12 1-19zm181-43c0-16-2-15-8 5-11 34-11 60 0 35 5-11 8-29 8-40zm-191 3c-3-8-6-5-6 6-1 11 2 17 5 13 3-3 4-12 1-19zm648 14c27-9 28-26 3-48-12-11-18-13-14-6 10 17 3 15-40-10-39-23-112-29-197-15-40 6-80 33-72 48 3 4 0 11-6 15-8 4-7 9 2 15 16 10 294 10 324 1zM98 2369l-3-134-5 142c-3 78-1 139 3 134 4-4 6-68 5-142zm845 134c-13-2-33-2-45 0-13 2-3 4 22 4 25 0 35-2 23-4zm1711-42c-4-17-9-30-11-27-3 2-2 19 2 36 9 41 17 33 9-9zm-1327-173c-1-40-3-10-3 67 0 77 1 110 3 73 2-37 2-1e2.0-140zm1540 180c-3-8-6-5-6 6-1 11 2 17 5 13 3-3 4-12 1-19zM527 2283c-2-38-3-7-3 67 0 74 1 105 3 68 2-38 2-98 0-135zm870 150c-3-10-5-2-5 17 0 19 2 27 5 18 2-10 2-26 0-35zm2990-150c-2-38-3-7-3 67 0 74 1 105 3 68 2-38 2-98 0-135zm-1097 182c0-7-57-35-72-35-7 0 5 9 27 19 48 23 45 22 45 16zm-2330-22c0-5-18-8-40-8-22 0-40 3-40 8 0 4 18 7 40 7 22 0 40-3 40-7zm198-80-2-88-3 83-4 82h-29-29l-4-82-3-83-2 88-2 87h40 40l-2-87zm1736 17c4-24 3-29-3-15-4 11-11 36-15 55-4 24-3 29 3 15 4-11 11-36 15-55zm201 60c13-6 15-9 5-9-8 0-22 4-30 9-18 12-2 12 25 0zm1123-77-2-88-3 83-4 82h-29-29l-4-82-3-83-2 88-2 87h40 40l-2-87zm-1018 63c0-2-7-7-16-10-8-3-12-2-9 4 6 10 25 14 25 6zm-1813-73c-3-10-5-2-5 17 0 19 2 27 5 18 2-10 2-26 0-35zm1240 5c-3-7-5-2-5 12 0 14 2 19 5 13 2-7 2-19 0-25zm280-50c-3-7-5-2-5 12 0 14 2 19 5 13 2-7 2-19 0-25zm-1530-40c-2-13-4-3-4 22 0 25 2 35 4 23 2-13 2-33 0-45zm1824-10c-4-35-6-38-9-15-3 26 3 57 10 57 2 0 1-19-1-42zm-23-15c-3-40-6-48-23-48-17 0-20 8-23 48-3 45-2 47 23 47 25 0 26-2 23-47zm-61-10c-3-10-5-2-5 17 0 19 2 27 5 18 2-10 2-26 0-35zm-2530 0c-3-10-5-4-5 12 0 17 2 24 5 18 2-7 2-21 0-30zm682 10c-1-18-3-21-6-10-3 10-9 14-16 10-7-4-6 1 2 10 18 23 21 22 20-10zm2378-10c-3-10-5-4-5 12 0 17 2 24 5 18 2-7 2-21 0-30zm682 10c-1-18-3-21-6-10-3 10-9 14-16 10-7-4-6 1 2 10 18 23 21 22 20-10zm-3492-9c-3-3-12-4-19-1-8 3-5 6 6 6 11 1 17-2 13-5zm3060 0c-3-3-12-4-19-1-8 3-5 6 6 6 11 1 17-2 13-5zm-1304-471c12-503 9-685-9-713-17-24-17-25 2-7 18 16 19 39 24 295l6 277 2-271c2-246 0-274-15-293-18-21-24-22-308-22-159-1-440 2-624 6-284 7-333 6-326-6 4-8-6-1-23 15-18 17-32 34-32 38 0 5 12-4 26-19l26-28-21 29c-19 26-21 39-16 1e2 3 39 12 175 20 301 19 293 34 489 41 543l5 42h608 608l6-287zm14 25c-1-46-3-9-3 82 0 91 2 128 3 83 2-46 2-120 0-165zm-1260 130c-2-18-4-6-4 27 0 33 2 48 4 33 2-15 2-42 0-60zm-10-120c-2-18-4-6-4 27 0 33 2 48 4 33 2-15 2-42 0-60zm-10-140c-2-18-4-4-4 32 0 36 2 50 4 33 2-18 2-48 0-65zm-10-150c-2-18-4-4-4 32 0 36 2 50 4 33 2-18 2-48 0-65zm-10-155c-2-21-4-6-4 32 0 39 2 55 4 38 2-18 2-50 0-70zm-10-150c-2-21-4-6-4 32 0 39 2 55 4 38 2-18 2-50 0-70zm-10-95c-3-7-5-2-5 12 0 14 2 19 5 13 2-7 2-19 0-25zm706-95c-34-2-93-2-130 0-37 2-9 3 62 3 72 0 102-1 68-3zm-446-796c2-2 0-18-3-35l-6-32h-94c-93 0-94 0-94 24 0 57 5 59 103 52 50-3 92-8 94-9zm953 1c0-7-3-23-6-35-6-22-11-23-1e2-23h-93l1 35 1 35h99c72 0 98-3 98-12zm-1163-55c-3-10-5-4-5 12 0 17 2 24 5 18 2-7 2-21 0-30zm225 10c-3-16-7-22-10-15-4 13 4 42 11 42 2 0 2-12-1-27z"/><path d="M970 2283c0-6 8-17 18-24 16-13 16-13 2 6-8 11-16 22-17 24-2 2-3 0-3-6z"/><path d="M3928 2361c-2-55 0-97 5-94 4 2 7 44 7 94v89h40 40v-79c0-66 3-83 21-102l21-24-16 25c-11 17-16 49-16 107v83h-49-50l-3-99z"/><path d="M3830 2283c0-6 8-17 18-24 16-13 16-13 2 6-8 11-16 22-17 24-2 2-3 0-3-6z"/><path d="M2880 3369c0-33 19-59 44-59 35 0 52 25 38 55-9 20-19 25-47 25-29 0-35-4-35-21zm75-9c3-11 3-24 0-30-8-12-55-13-55-1 0 4 12 6 26 3 21-4 25-1 22 14-4 23-37 31-49 12-7-10-9-9-9 5 0 26 57 24 65-3z"/><path d="M3004 2491c7-11 46-35 46-28 0 3-12 12-26 22-15 9-23 12-20 6z"/><path d="M2960 4804c0-14 4-23 9-20 5 3 7 15 4 26-7 28-13 25-13-6z"/><path d="M2961 4728c-1-24 3-28 27-27 22 1 23 2 5 6-13 2-24 13-26 26-4 18-5 17-6-5z"/><path d="M2045 4293c-11-3-24-10-30-15-12-13 35 0 50 13 5 5 7 8 5 8-3-1-14-3-25-6z"/></g></svg>