<svg version="1.0" xmlns="http://www.w3.org/2000/svg" width="963pt" height="483pt" viewBox="0 0 963 483"><g transform="translate(0.000000,483.000000) scale(0.100000,-0.100000)" fill="#000" stroke="none"><path d="M0 2415V0h55 55l3 608 2 607 5-610 5-610 5 925 5 925 28 3 27 3v223c0 129 5 246 11 277 7 30 12 64 13 76 0 11 5 19 10 15 5-3 7 2 3 10-7 18 35 62 61 63 9 1 61 2 115 3l97 2 1 28 1 27 7-30c6-28 7-27 14 19 4 27 7 68 7 92 0 24 5 44 10 44 20 0 28 44 13 67-8 12-13 37-11 55 2 27 8 34 29 36 14 2 31-4 39-12 7-9 23-16 36-16 22 0 24 4 24 46v46l47-7c48-7 117-36 128-55 3-5 19-10 34-10 15 0 31-3 35-7 4-5 13-8 19-8 21 0 19-41-3-66-12-13-18-18-14-10 5 11 3 13-10 8-10-4-20-7-22-7-3 0-2-15 1-33 6-33 6-33-28-29-44 5-75-11-83-43-7-29-31-32-74-10-28 14-29 18-32 92-3 65-6 78-20 81-16 3-18-6-18-78 0-52 5-91 15-109 14-29 85-71 118-71 11 0 17-8 17-22 0-19 2-20 10-8 5 8 10 10 10 4 0-8 34-13 98-16 53-3 106-8 117-12 17-7 17-6 5 4-13 10-13 11 0 7 8-2 14-9 13-14-2-12 45-59 55-56 4 2 7-4 7-11 0-26 139-295 148-289 6 4 7 1 2-7-5-8 9-47 36-101l43-89 63 233c35 127 68 249 73 269 15 55 55 95 131 134 74 37 109 43 109 18 0-9 5-12 13-8 6 4 3-2-7-14-17-19-18-25-6-46 7-13 10-30 7-38-3-7-6-4-6 9-1 12-5 25-11 28-14 9-13 45 2 45 6 0 9 2 6 5-3 3-12 3-20 0-16-6-13-55 3-55 5 0 9-9 9-19 0-11 5-23 11-26 7-5 5-12-5-23-14-16-16-20-16-39 0-5-7 0-14 10-14 18-14 18-20 0-3-10-15-63-26-118-26-129-84-350-109-415l-19-50h334 334l5 23c11 52 44 257 50 312 5 45 2 68-9 90-23 44-20 78 15 148 29 56 31 67 26 131-4 48-2 79 8 102 8 19 12 34 9 34-3 0-11-15-19-32-8-18-14-25-15-16 0 9 12 30 26 45 14 15 22 22 18 14-8-16-7-15 62 21 40 21 58 39 83 82 38 68 57 79 146 87l70 6-65 1c-83 2-119-18-160-92-17-30-38-57-48-61-13-5-13-2 4 17 11 13 32 42 47 66 39 60 79 82 150 82h57v855 855h-38c-56 0-62 11-62 117v93H1260 0V2415zm1518 858c-76-2-2e2-2-275 0-76 1-14 3 137 3 151 0 213-2 138-3zm142-138v-125h-245-245l-71-36c-91-45-103-36-52 42 35 54 38 66 44 149l5 90 2-85c2-83 1-86-39-149-22-35-38-65-36-68 2-2 23 28 46 66 39 67 41 73 41 155v86h275 275v-125zm17-57c-2-35-3-9-3 57 0 66 1 94 3 63 2-32 2-86 0-120zm-144-85c-68-2-178-2-245 0-68 1-13 3 122 3 135 0 190-2 123-3zm-453-47c0-2-7-7-16-10-8-3-12-2-9 4 6 10 25 14 25 6zm1259-210c-2-2-15-9-29-15-24-11-24-11-6 3 16 13 49 24 35 12zM517 2618c-2-18-4-6-4 27 0 33 2 48 4 33 2-15 2-42 0-60zm1158 12c-16-4-39-11-50-14-13-5-12-2 5 8 14 8 36 15 50 15 23-1 22-2-5-9zm552-32c-3-8-6-5-6 6-1 11 2 17 5 13 3-3 4-12 1-19zm-647-2c0-2-16-13-35-25-19-11-35-18-35-16 0 5 61 45 68 45 1 0 2-2 2-4zm650-133c-11-17-11-17-6 0 3 10 7 40 8 65l2 47 3-47c2-26-1-56-7-65zm-1797 70c-24-2-62-2-85 0-24 2-5 4 42 4 47 0 66-2 43-4zm5e2.0c-13-2-33-2-45 0-13 2-3 4 22 4 25 0 35-2 23-4zm539-32c-9-16-18-28-21-26-4 5 27 55 34 55 2 0-4-13-13-29zm728-101c-24-47-25-85-5-124 8-15 14-40 14-55l-2-26-4 25c-2 14-11 39-19 57-8 17-14 43-14 57 0 25 35 106 45 106 3 0-4-18-15-40zm-1039-71c27-56 49-103 47-105-2-2-27 44-56 101-28 58-50 105-47 105 3 0 28-45 56-101zm496 79c-3-8-6-5-6 6-1 11 2 17 5 13 3-3 4-12 1-19zm-1460-20c-3-8-6-5-6 6-1 11 2 17 5 13 3-3 4-12 1-19zm1230-20c-3-8-6-5-6 6-1 11 2 17 5 13 3-3 4-12 1-19zm220-10c-3-8-6-5-6 6-1 11 2 17 5 13 3-3 4-12 1-19zm-1460-20c-3-7-5-2-5 12 0 14 2 19 5 13 2-7 2-19 0-25zm1450-30c-3-8-6-5-6 6-1 11 2 17 5 13 3-3 4-12 1-19zm-1460-90c-2-18-4-6-4 27 0 33 2 48 4 33 2-15 2-42 0-60zm1220 40c-3-8-6-5-6 6-1 11 2 17 5 13 3-3 4-12 1-19zm230 0c-3-8-6-5-6 6-1 11 2 17 5 13 3-3 4-12 1-19zm-10-40c-3-8-6-5-6 6-1 11 2 17 5 13 3-3 4-12 1-19zm580-50c-3-8-6-5-6 6-1 11 2 17 5 13 3-3 4-12 1-19zm-830-20c-3-8-6-5-6 6-1 11 2 17 5 13 3-3 4-12 1-19zm-58-133c0-5-8 6-19 25-11 19-19 40-19 45 0 6 8-6 19-25 11-19 19-39 19-45zm28 23c-3-8-6-5-6 6-1 11 2 17 5 13 3-3 4-12 1-19zm230-20c-3-8-6-5-6 6-1 11 2 17 5 13 3-3 4-12 1-19zm-246-21c-10-9-11-8-5 6 3 10 9 15 12 12 3-3 0-11-7-18zm484-130c33-2-20-4-117-5-98-1-178 1-178 6 0 6 148 6 295-1z"/><path d="M2534 4733l1-98 45-1 45-1-42 4-42 4-4 95-3 94v-97z"/><path d="M5412 4738l-2-98h-47-48l3-640 2-640h39c22 0 47-3 57-7 13-5 15-3 9 8-12 21 102-90 137-134l31-38-52-50-52-50 218-220c202-203 221-219 253-219 20 0 44 6 55 14 11 7 65 77 120 155 55 77 104 141 108 141 9 0 2-10-120-183-48-67-97-124-113-132-65-34-68-31-309 210-212 212-226 224-243 208-10-9-20-14-23-11-3 3 29 36 70 73 62 55 73 70 64 82-10 12-25 2-88-59-42-40-70-67-64-59 15 17-15 81-56 121-14 14-34 40-43 58-9 18-22 32-28 32-5 0 8-37 31-81 36-73 38-81 20-76l-21 5v-494-494h-650c-357 0-650 3-650 8 0 4 11 43 25 87 14 44 25 83 25 88 0 4-147 6-327 5l-327-3-13-55c-8-30-19-72-24-93l-10-38-1e2 3-101 3-54 139c-29 77-57 143-62 148-4 4-9-7-10-25-3-44-73-451-78-456-2-3-69 7-149 20l-144 25-11-70c-6-39-13-77-15-83-4-10 361-13 18e2-13h1804l5 53c3 28 11 113 17 187 6 74 12 137 14 140 3 5 188 0 578-15l177-6v55c0 78 13 104 62 126 70 30 67 32 102-66l33-92-50-6c-37-5-47-10-38-19 7-7 11-67 11-184v-173h248 247l23 40c13 22 20 44 18 49-3 5 2 15 12 22 16 13 16 12 2-6-14-20-14-20 7-1 12 10 21 23 20 29-4 21 34 18 75-7 24-14 39-26 33-26-5 0-23 9-40 20-16 11-39 19-50 19l-20-1 20-5c11-3 39-16 62-30l41-24 148 11c82 6 150 13 152 15 2 2-1 31-6 64l-9 61h83 83l6 43c6 38-1 61-49 178-90 220-149 343-111 234l7-20-13 20c-24 38-20 80 9 106l27 24-22-26c-34-38-28-41 10-5l33 31-18 47c-11 29-14 48-7 48 5 0 7 5 3 12-4 7-3 8 5 4 6-4 9-11 6-15-2-5 8-19 23-32 20-18 22-19 9-3-9 11-17 25-17 30 0 4 8-3 17-16 10-14 17-28 16-32-9-26 213-442 230-431 6 3 7 1 3-6-4-6 15-52 45-105l53-94 29 47c17 25 72 112 123 194l92 147-15 40c-15 38-18 40-60 41-74 2-76 4-63 45 10 29 10 29 5-5-8-52 5-31 19 33 11 44 11 56 1 56-7 0-19 8-26 17-12 14-12 16 0 9 9-6 12-5 9 5-5 14 17 69 28 69 2 0-2-13-11-30-9-16-13-30-10-30 2 0 14 18 25 40l20 40h69 69l6-72c3-40 7-89 9-108 2-33 4-35 46-40 32-4 46-10 52-25 4-11 8-14 8-7 2 24 77 14 111-14 29-25 76-101 67-110-2-2-12 14-22 37-26 57-68 89-113 88l-37-2 42-6c76-13 94-44 164-277 42-142 56-177 45-114-4 26-3 30 3 15 5-11 7-34 4-52-3-20 7-72 28-142l32-111h117 117l6-437c4-240 8-657 9-927l3-491 5 640 5 640 3-637c2-631 2-638 22-638 20 0 20 7 20 2415v2415H7530 5430v-93c0-104-6-117-57-117h-33v-619-620l38-4 37-4-42-1-43-2v630 630h40c25 0 43 5 46 13 3 8 3 54 1 103l-3 89-2-97zm806-395c-76-2-2e2-2-275 0-76 1-14 3 137 3 151 0 213-2 138-3zm142-102c0-85 2-93 36-150 20-34 40-59 44-56 5 3 12 0 16-6 5-8 3-9-6-4-10 6-12 4-7-8 3-9 1-19-5-23-7-5-8-2-3 6 6 10 4 12-9 7-11-5-15-3-10 5 5 8 2 9-10 5-11-5-15-3-10 5 5 8 2 9-10 5-11-5-15-3-10 5 5 8 2 9-10 5-11-5-15-3-10 5 5 8 2 9-10 5-11-5-15-3-10 5 5 8 2 9-10 5-11-5-15-3-10 5 5 8 2 9-10 5-9-4-15-3-12 2 11 18-30 21-255 21h-229v120 120h275 275v-89zm22-38c2-39 0-69-4-66-5 2-7 48-6 101 1 101 6 87 10-35zm49-138 10-20-16 20c-9 11-21 29-26 40l-10 20 16-20c9-11 21-29 26-40zm246-91c-3-3-12-4-19-1-8 3-5 6 6 6 11 1 17-2 13-5zm214-41c12-16 12-16-1-6-8 6-31 13-50 16l-35 4 36 1c24 1 41-4 50-15zm47-28c-3-3-9 2-12 12-6 14-5 15 5 6 7-7 10-15 7-18zm-427-52c13-16 12-17-3-4-10 7-18 15-18 17 0 8 8 3 21-13zm207-3h64l-6-67c-11-109-21-131-67-144-36-11-41-10-62 9-13 12-32 22-42 22-18 0-18 1 1 16 18 15 18 15-10 9-24-5-27-3-22 10 18 48 17 61-3 62-22 2-29-13-10-19 9-3 9-13 0-41-16-48-28-47-33 2-2 22 0 37 3 35 4-2 10 17 14 42 11 76 12 77 63 70 25-3 74-6 110-6zm-181-42c-3-7-5-2-5 12 0 14 2 19 5 13 2-7 2-19 0-25zm-10-40c-3-8-6-5-6 6-1 11 2 17 5 13 3-3 4-12 1-19zm333-10c0-18-4-39-9-46-5-8-2-31 6-54 8-24 13-68 11-107-3-61-5-66-25-65-13 0-75 1-139 2-87 2-115 5-112 14 3 7 35 18 72 24 37 6 74 17 82 25 8 8 21 48 29 89 23 115 24 118 41 134 26 26 44 20 44-16zm-343-65c-3-10-5-4-5 12 0 17 2 24 5 18 2-7 2-21 0-30zm370-155c-2-18-4-4-4 32 0 36 2 50 4 33 2-18 2-48 0-65zm-464-25c-7-2-19-2-25 0-7 3-2 5 12 5 14 0 19-2 13-5zm644-9c-3-3-12-4-19-1-8 3-5 6 6 6 11 1 17-2 13-5zm163-132c95-129 194-302 316-551 74-150 142-295 151-322 16-45 16-49 0-67-10-11-99-45-217-83-171-54-2e2-66-2e2-83 0-12-3-16-8-11-12 14-72 153-72 167 0 21 16-5 40-64 13-32 28-58 34-57 6 0 101 30 211 67 189 63 2e2 68 203 93 2 18-44 124-145 330-140 287-251 481-329 576-19 23-34 44-34 47 0 16 18 1 50-42zm-162-214c-3-22-7-23-135-26l-133-3v26 25h136c135 0 135 0 132-22zm-1283-150 130-131-108 99c-91 83-167 164-155 164 2 0 62-59 133-132zm-443-190c-1-172-3-389-5-483-1-93-4 47-5 313-1 265 1 482 6 482 4 0 6-141 4-312zm2838-113c0-5-5-3-10 5-5 8-10 20-10 25 0 6 5 3 10-5 5-8 10-19 10-25zm-953-138c-2-23-3-1-3 48 0 50 1 68 3 42 2-26 2-67 0-90zm1053 92c12-23 20-43 18-45-3-2-14 17-26 41-27 56-20 60 8 4zm-86 15c3-8 2-12-4-9-6 3-10 10-10 16 0 14 7 11 14-7zm503-46c-3-7-5-2-5 12 0 14 2 19 5 13 2-7 2-19 0-25zm-358-103c0-5-6 1-14 15-8 14-14 30-14 35 0 6 6-1 14-15 8-14 14-29 14-35zm424-2c-13-2-33-2-45 0-13 2-3 4 22 4 25 0 35-2 23-4zm-398-43c9-16 13-30 11-30-3 0-12 14-21 30-9 17-13 30-11 30 3 0 12-13 21-30zm429 14c3-8 2-12-4-9-6 3-10 10-10 16 0 14 7 11 14-7zm-595-59c0-5-6 1-14 15-8 14-14 30-14 35 0 6 6-1 14-15 8-14 14-29 14-35zm597 8c-8-16-22-37-31-48-16-19-17-19-3 5 8 14 20 35 27 48 6 12 14 22 17 22 2 0-2-12-10-27zm-386-43c11-22 18-40 15-40-2 0-14 18-25 40-11 22-18 40-15 40 2 0 14-18 25-40zm-181-35c0-5-6 1-14 15-8 14-14 30-14 35 0 6 6-1 14-15 8-14 14-29 14-35zm512-12c-5-10-17-27-26-38-16-19-17-19-3 5 26 46 29 50 34 50 3 0 0-8-5-17zm-491-38c0-5-5-3-10 5-5 8-10 20-10 25 0 6 5 3 10-5 5-8 10-19 10-25zm205 5c9-16 13-30 11-30-3 0-12 14-21 30-9 17-13 30-11 30 3 0 12-13 21-30zm764-30c0-9-4-8-9 5-5 11-9 27-9 35 0 9 4 8 9-5 5-11 9-27 9-35zm-949-25c0-5-5-3-10 5-5 8-10 20-10 25 0 6 5 3 10-5 5-8 10-19 10-25zm414-3c-9-16-25-39-36-53l-20-24 16 28c28 48 48 77 53 77 2 0-3-13-13-28zm-179-32c9-16 13-30 11-30-3 0-12 14-21 30-9 17-13 30-11 30 3 0 12-13 21-30zm-206-35c0-5-6 1-14 15-8 14-14 30-14 35 0 6 6-1 14-15 8-14 14-29 14-35zm950-5c0-9-4-8-9 5-5 11-9 27-9 35 0 9 4 8 9-5 5-11 9-27 9-35zm-2981-6c-3-27-4-26-9 8-3 22-1 34 4 29 5-5 7-21 5-37zm962 32c0-2-9-6-20-9-11-3-18-1-14 4 5 9 34 13 34 5zm-53-93c-2-16-4-5-4 22 0 28 2 40 4 28 2-13 2-35 0-50zm1374 25c20-40 22-41 36-22 37 50 44 58 27 29-40-70-38-70-68-15-15 28-25 50-22 50 3 0 15-19 27-42zm-244-5c-3-10-5-4-5 12 0 17 2 24 5 18 2-7 2-21 0-30zm-4554-4c14-23 1-66-25-80-42-23-69 45-35 89 13 17 47 12 60-9zm-423 5c-60-8-130-8-130-1 0 4 35 6 78 6 42-1 66-3 52-5zm1660-2c-8-4-229-5-490-2l-475 5 490 2c270 1 483-1 475-5zm1267-84c-2-18-4-6-4 27 0 33 2 48 4 33 2-15 2-42 0-60zm2043 47c0-12-14-15-77-13l-78 2 73 3c39 2 72 8 72 13 0 6 2 10 5 10 3 0 5-7 5-15zm-5298-67c-9-9-12-7-12 12 0 19 3 21 12 12 9-9 9-15 0-24zm5135-15c-3-10-5-4-5 12 0 17 2 24 5 18 2-7 2-21 0-30zm-4872-1c-3-3-11 0-18 7-9 10-8 11 6 5 10-3 15-9 12-12zm2602-24c-3-7-5-2-5 12 0 14 2 19 5 13 2-7 2-19 0-25zm-2863-10c7-5 4-8-6-8-12 0-18 7-17 23 0 15 2 17 6 7 3-8 11-18 17-22zm3243-55c-2-16-4-3-4 27 0 30 2 43 4 28 2-16 2-40 0-55zm1903 42c0-11-10-15-32-14-31 2-31 2-5 6 15 2 27 9 27 14 0 5 2 9 5 9 3 0 5-7 5-15zm-117-22c-18-2-48-2-65 0-18 2-4 4 32 4 36 0 50-2 33-4zm-125-10c-10-2-26-2-35 0-10 3-2 5 17 5 19 0 27-2 18-5zm-237-45c-11-18-28-33-38-34-12-1-13 0-2 3 8 2 23 17 33 33 9 17 20 30 23 30 3 0-4-15-16-32zm-1431-28c0-6-89-9-252-8l-253 2 250 6c138 3 251 7 253 8 1 1 2-2 2-8zm-1453-7c-159-2-415-2-570 0-155 1-25 2 288 2 314 0 440-1 282-2zm406 0c-7-2-19-2-25 0-7 3-2 5 12 5 14 0 19-2 13-5zm260 0c-29-2-78-2-110 0-32 2-8 3 52 3 61 0 87-1 58-3zm190 0c-7-2-19-2-25 0-7 3-2 5 12 5 14 0 19-2 13-5z"/><path d="M6568 3803c7-3 16-2 19 1 4 3-2 6-13 5-11 0-14-3-6-6z"/><path d="M6638 3803c7-3 16-2 19 1 4 3-2 6-13 5-11 0-14-3-6-6z"/><path d="M6640 3754c0-8 5-12 10-9 6 3 10 10 10 16 0 5-4 9-10 9-5 0-10-7-10-16z"/><path d="M4711 4431c-11-7 6-48 82-192 52-101 174-337 271-523 97-187 181-345 187-353 17-20 43-17 35 5-9 24-546 1055-555 1064-3 4-12 3-20-1z"/><path d="M5485 3288c32-38 61-65 64-63 3 3-24 34-59 68l-63 62 58-67z"/><path d="M864 2828c3-7 9-21 12-31 9-25 29-15 29 14 0 18-6 25-24 27-16 3-21 0-17-10z"/><path d="M931 2818c0-9-4-25-7-35-5-17-5-17 6 0 6 10 9 25 7 35-4 15-5 15-6 0z"/><path d="M825 2795c3-16 8-38 11-47 4-13 0-18-16-18-12 0-18-4-15-10 3-5 15-10 27-10 19 0 20 4 14 42-4 22-11 48-17 57-8 12-9 9-4-14z"/><path d="M760 28e2c0-5 5-10 10-10 6 0 10 5 10 10 0 6-4 10-10 10-5 0-10-4-10-10z"/><path d="M850 28e2c0-5 5-10 10-10 6 0 10 5 10 10 0 6-4 10-10 10-5 0-10-4-10-10z"/><path d="M2740 2784c0-8 5-12 10-9 6 4 17 1 25-5 12-10 18-10 30 0 25 21 17 30-25 30-30 0-40-4-40-16z"/><path d="M2743 2744c-8-20 8-36 26-25 15 10 8 41-9 41-6 0-13-7-17-16z"/><path d="M2807 2746c-6-15 1-26 15-26 11 0 10 27-1 34-5 3-11 0-14-8z"/><path d="M2678 2692c-38-25-38-26-38-93 0-58 4-72 26-98 47-57 124-33 124 39 0 43 11 68 32 73 18 5 20 11 14 44-9 50-31 67-60 48-18-12-25-12-42-2-16 12-24 10-56-11z"/><path d="M2812 2520c0-14 2-19 5-12 2 6 2 18 0 25-3 6-5 1-5-13z"/><path d="M2610 2525c0-5 10-21 21-35 13-17 17-18 10-5-17 33-31 51-31 40z"/><path d="M249 2483l-24-28 28 24c15 14 27 26 27 28 0 8-8 1-31-24z"/><path d="M2333 2489c-18-12-33-23-33-26 0-2 15 4 33 15 17 11 39 22 47 25 13 5 13 5 0 6-8 0-30-9-47-20z"/><path d="M2466 2478c10-14 21-24 23-22 3 3-6 15-18 27l-24 22 19-27z"/><path d="M2784 2468l-19-23 23 19c21 18 27 26 19 26-2 0-12-10-23-22z"/><path d="M2370 2469c-39-16-70-50-70-77 0-14 32-115 71-226 104-298 111-317 117-312 4 5-12 135-24 199-5 25-3 27 26 27 31 0 32 2 27 30-5 22-3 30 8 30 10 0 15-10 15-30 0-25 4-30 25-30 31 0 31 4-3 82-16 34-43 109-60 164-42 135-72 167-132 143z"/><path d="M2674 2456c11-9 36-15 55-15l36 2-40 6c-22 4-47 10-55 15-8 4-6 0 4-8z"/><path d="M2280 2429c-7-11-10-23-7-25 2-2 9 7 15 21 14 30 7 33-8 4z"/><path d="M2270 2323c0-5 10-18 23-29l22-19-20 25c-11 14-21 27-22 29-2 2-3 0-3-6z"/><path d="M1126 2092c-11-125-10-135 28-154 25-12 36-14 39-5 6 15-6 98-17 115-4 7-2 12 4 12 6 0 2 10-10 22-11 12-20 32-20 44 0 13-4 25-9 28-4 3-11-25-15-62z"/><path d="M390 2020c0-69-3-135-6-147-6-22-4-23 70-23 47 0 76 4 76 11 0 5 5 7 12 3 7-4 8-3 4 5-4 6-12 8-18 5-13-8-62-15-55-8 3 3-6 32-19 65-14 33-21 65-18 71 4 6 3 8-3 5-6-4-10 7-11 26-2 43-9 73-21 94-8 13-11-16-11-107z"/><path d="M8356 2017c-9-56-7-60 27-55l25 3-23 50-22 50-7-48zm33-39c1-5-6-8-14-8-16 0-19 9-8 36 6 16 7 16 14-2 4-10 8-22 8-26z"/><path d="M8850 1995c-7-9-8-15-2-15 5 0 12 7 16 15 3 8 4 15 2 15-2 0-9-7-16-15z"/><path d="M88e2 1935c-7-9-8-15-2-15 5 0 12 7 16 15 3 8 4 15 2 15-2 0-9-7-16-15z"/><path d="M8425 1915c4-11 8-28 11-39 4-23 10-29 21-25 5 2-2 22-15 44-13 22-21 31-17 20z"/><path d="M556 1879c6-11 31-12 37-1 3 4-6 8-19 8-13 1-21-2-18-7z"/><path d="M8745 1870c-15-17-16-20-3-20 9 0 18 9 21 20 3 11 4 20 3 20-2 0-11-9-21-20z"/><path d="M1666 1753c-220-3-228-4-223-23 3-11-2-25-12-32-15-12-15-11-1 7 11 15 8 14-12-4-15-13-26-28-25-34 1-5-5-12-13-14-13-4-13-3 0 6 12 8 6 11-26 11-30 0-53 8-82 30-23 17-42 35-42 40 0 6-27 10-61 10-33 0-58-3-55-8 2-4 0-41-4-82-6-47-5-98 2-137 12-75-24-80 312 35 264 89 295 94 351 58 56-37 74-105 175-676 79-449 77-440 103-441 86-2 166-10 187-18 14-5 34-13 45-17 11-4 23-8 27-8 3-1 10-5 15-10 5-6 2-6-6-1-11 6-13 4-8-9 4-10 10-29 13-42 6-22 3-24-34-24-23 0-51-4-64-9-13-4-47-11-75-15-43-5-53-4-53 8 0 8-5 18-10 21-15 10-50-5-50-20 0-8-8-18-17-23-21-11-152-36-157-31-4 4-101 373-129 488-11 42-13 33-73-260-35-167-65-318-68-334l-6-31 102-20c57-11 112-24 122-29 15-7 17-5 11 6-5 8 1 5 13-5 12-11 22-24 22-29 0-6-7-2-16 9-15 18-15 18-5-3 6-12 11-38 11-57V0h640 640l2 68 2 67 6-70 6-70 2 56c1 31 5 77 8 102l7 46 121 3 121 3-2-35-2-35 8 30c7 25 9 26 10 8 1-16 8-23 24-24 21-1 21-1-3-8-19-5-6-11 59-25 95-20 101-17 101 47v37h120 120v-30c0-32-12-28 167-70 51-11 98-18 104-14 8 5 9 3 4-6-6-10-4-12 7-7 15 5 68-39 68-56 0-4-14 7-31 25l-31 33 28-36 27-37 109-1 108-2v866 865l-735-2c-404-2-735 0-735 5 0 4 333 7 740 7h740l3-872 2-873 3 878 2 877h-749-750l-11-57c-21-106-5-97-149-90-69 4-223 9-341 12-118 3-233 8-256 11l-41 5 8 42c18 93 25 87-113 85-68-2-226-4-352-5zm-420-45 29-33-30 27c-21 18-44 28-75 31l-45 4 46 1c40 2 49-2 75-30zm526 25c-62-2-161-2-220 0-59 1-8 3 113 3 121 0 169-2 107-3zm1153-65c-4-24-11-50-17-58-7-12-8-11-4 5 3 11 8 37 12 58 3 20 8 37 11 37 3 0 2-19-2-42zm-1798-20c-2-13-4-5-4 17-1 22 1 32 4 23 2-10 2-28 0-40zm178 14c-3-3-11 0-18 7-9 10-8 11 6 5 10-3 15-9 12-12zm474-30c29-21 71-79 71-96 0-6-10 7-23 28-28 50-61 74-117 86l-45 9 44-4c24-2 56-12 70-23zm-139 8c-34-11-60-11-35 0 11 5 29 8 40 8 16 0 15-2-5-8zm-70-19c-8-5-26-11-40-15-21-5-20-3 5 9 32 15 60 20 35 6zm698-91c-19-147 11-217 103-244 33-10 138-19 297-27 136-6 297-14 357-19 95-7 85-8-65-4-263 7-540 24-583 35-49 13-103 61-118 106-15 47-2 251 16 231 1-2-2-37-7-78zm-1151 48c-3-8-6-5-6 6-1 11 2 17 5 13 3-3 4-12 1-19zm373 13c-8-5-26-11-40-15-21-5-20-3 5 9 32 15 60 20 35 6zm-363-68c-3-10-5-4-5 12 0 17 2 24 5 18 2-7 2-21 0-30zm113-18c-19-7-42-13-50-13-8 0 1 6 20 13 19 7 42 13 50 13 8 0-1-6-20-13zm628-40c0-16-2-15-8 5-11 34-11 60 0 35 5-11 8-29 8-40zm-731 13c-3-8-6-5-6 6-1 11 2 17 5 13 3-3 4-12 1-19zm761-158c0-14-6 2-14 35-7 33-13 67-12 75 1 23 26-82 26-110zm1919-2c-3-8-6-5-6 6-1 11 2 17 5 13 3-3 4-12 1-19zm-1910-60c-3-7-5-2-5 12 0 14 2 19 5 13 2-7 2-19 0-25zm10-50c-3-7-5-2-5 12 0 14 2 19 5 13 2-7 2-19 0-25zm1910-290c-1-57-3-11-3 102 0 113 2 159 3 103 2-57 2-149 0-205zm-19e2 235c-3-10-5-4-5 12 0 17 2 24 5 18 2-7 2-21 0-30zm10-55c-3-7-5-2-5 12 0 14 2 19 5 13 2-7 2-19 0-25zm10-55c-3-10-5-4-5 12 0 17 2 24 5 18 2-7 2-21 0-30zm10-55c-3-7-5-2-5 12 0 14 2 19 5 13 2-7 2-19 0-25zm1580-45c-3-10-5-4-5 12 0 17 2 24 5 18 2-7 2-21 0-30zm-1570-10c-3-10-5-4-5 12 0 17 2 24 5 18 2-7 2-21 0-30zm1530-15c-3-8-6-5-6 6-1 11 2 17 5 13 3-3 4-12 1-19zm-1520-45c-3-10-5-4-5 12 0 17 2 24 5 18 2-7 2-21 0-30zm1510-25c-3-8-6-5-6 6-1 11 2 17 5 13 3-3 4-12 1-19zm60-10c-3-7-5-2-5 12 0 14 2 19 5 13 2-7 2-19 0-25zm-1560-20c-3-7-5-2-5 12 0 14 2 19 5 13 2-7 2-19 0-25zm1190-1e2c-2-24-4-7-4 37 0 44 2 63 4 43 2-21 2-57 0-80zm-1180 45c-3-10-5-4-5 12 0 17 2 24 5 18 2-7 2-21 0-30zm1480 15c-3-8-6-5-6 6-1 11 2 17 5 13 3-3 4-12 1-19zm-1738-46c1-7-3-10-9-7-6 3-10-4-10-16 0-12-2-20-5-17-3 3-3 25 1 49 6 34 9 39 15 24 4-11 8-26 8-33zm1818 1c-3-10-5-4-5 12 0 17 2 24 5 18 2-7 2-21 0-30zm-1550-30c-3-10-5-4-5 12 0 17 2 24 5 18 2-7 2-21 0-30zm1460-5c-3-8-6-5-6 6-1 11 2 17 5 13 3-3 4-12 1-19zm-1708-38c0-9-4-8-9 5-5 11-9 27-9 35 0 9 4 8 9-5 5-11 9-27 9-35zm-52-12c-3-7-5-2-5 12 0 14 2 19 5 13 2-7 2-19 0-25zm310-5c-3-10-5-4-5 12 0 17 2 24 5 18 2-7 2-21 0-30zm1550-20c-3-10-5-4-5 12 0 17 2 24 5 18 2-7 2-21 0-30zm-110 5c-3-8-6-5-6 6-1 11 2 17 5 13 3-3 4-12 1-19zm-1690-10c-3-8-6-5-6 6-1 11 2 17 5 13 3-3 4-12 1-19zm-70-20c-3-7-5-2-5 12 0 14 2 19 5 13 2-7 2-19 0-25zm330-10c-3-7-5-2-5 12 0 14 2 19 5 13 2-7 2-19 0-25zm-238-38c0-9-4-8-9 5-5 11-9 27-9 35 0 9 4 8 9-5 5-11 9-27 9-35zm-102-2c-3-7-5-2-5 12 0 14 2 19 5 13 2-7 2-19 0-25zm350 0c-3-8-6-5-6 6-1 11 2 17 5 13 3-3 4-12 1-19zm1410 0c-3-8-6-5-6 6-1 11 2 17 5 13 3-3 4-12 1-19zm130-30c-3-7-5-2-5 12 0 14 2 19 5 13 2-7 2-19 0-25zm-19e2-20c-3-7-5-2-5 12 0 14 2 19 5 13 2-7 2-19 0-25zm120 10c-3-8-6-5-6 6-1 11 2 17 5 13 3-3 4-12 1-19zm411-5c-10-2-26-2-35 0-10 3-2 5 17 5 19 0 27-2 18-5zm1229-35c-3-7-5-2-5 12 0 14 2 19 5 13 2-7 2-19 0-25zm-1630 0c-3-8-6-5-6 6-1 11 2 17 5 13 3-3 4-12 1-19zm-148-57c-6-34-14-60-16-57-2 2 1 32 8 65 6 34 14 60 16 57 2-2-1-32-8-65zm158 17c-3-8-6-5-6 6-1 11 2 17 5 13 3-3 4-12 1-19zm1350-115c-2-27-3-5-3 47 0 52 1 74 3 48 2-27 2-69 0-95zm420 1e2c-3-10-5-4-5 12 0 17 2 24 5 18 2-7 2-21 0-30zm-160-15c-3-8-6-5-6 6-1 11 2 17 5 13 3-3 4-12 1-19zm-16e2-10c-3-8-6-5-6 6-1 11 2 17 5 13 3-3 4-12 1-19zm2010-120c-2-29-3-8-3 47 0 55 1 79 3 53 2-26 2-71 0-1e2zM2347 378c-3-8-6-5-6 6-1 11 2 17 5 13 3-3 4-12 1-19zm-510-30c-3-8-6-5-6 6-1 11 2 17 5 13 3-3 4-12 1-19zm480 6c-3-3-12-4-19-1-8 3-5 6 6 6 11 1 17-2 13-5zm1280-41c-3-10-5-4-5 12 0 17 2 24 5 18 2-7 2-21 0-30zm-1960-5c-3-7-5-2-5 12 0 14 2 19 5 13 2-7 2-19 0-25zm556 25c-7-2-21-2-30 0-10 3-4 5 12 5 17 0 24-2 18-5zm1224-15c-3-8-6-5-6 6-1 11 2 17 5 13 3-3 4-12 1-19zm-1535-29c18-1 19-2 5-6-22-6-47 14-46 36 0 11 3 9 9-6 6-14 19-23 32-24zm98 11c-14-4-36-8-50-8-22 0-22 1 5 8 17 4 39 8 50 8 16 0 15-2-5-8zm-353-42c-3-7-5-2-5 12 0 14 2 19 5 13 2-7 2-19 0-25zm1780-20c-3-7-5-2-5 12 0 14 2 19 5 13 2-7 2-19 0-25zm-1790-35c-3-10-5-4-5 12 0 17 2 24 5 18 2-7 2-21 0-30zm1990 15c-3-8-6-5-6 6-1 11 2 17 5 13 3-3 4-12 1-19zm-460-60c-3-7-5-2-5 12 0 14 2 19 5 13 2-7 2-19 0-25zm440-5c-3-10-5-4-5 12 0 17 2 24 5 18 2-7 2-21 0-30zm294-6c15-4 14-4-3-3-16 1-23 8-24 21-1 14 0 15 3 3 2-9 13-19 24-21zm-2254 27c-3-3-12-4-19-1-8 3-5 6 6 6 11 1 17-2 13-5zm56-11c-7-2-21-2-30 0-10 3-4 5 12 5 17 0 24-2 18-5zm50-10c-7-2-19-2-25 0-7 3-2 5 12 5 14 0 19-2 13-5zm44-9c-3-3-12-4-19-1-8 3-5 6 6 6 11 1 17-2 13-5zm1720-10c-3-3-12-4-19-1-8 3-5 6 6 6 11 1 17-2 13-5zm473-4c20-6 21-8 5-8-11 0-31 4-45 8-20 6-21 8-5 8 11 0 31-4 45-8zm-427-7c-7-2-19-2-25 0-7 3-2 5 12 5 14 0 19-2 13-5zm484-9c-3-3-12-4-19-1-8 3-5 6 6 6 11 1 17-2 13-5zm40-10c-3-3-12-4-19-1-8 3-5 6 6 6 11 1 17-2 13-5zM1867 33c-3-10-5-5-5 12 0 17 2 24 5 18 2-7 2-21 0-30z"/><path d="M7158 957c-2-441 0-838 3-882 3-44 6 131 7 389 1 258 4 472 7 475 3 2 5-170 5-385 0-214 0-426 0-471V0h1160 1160v348c0 191 3 587 7 880l6 532h-75c-41 0-77-3-81-6-3-3 3-29 12-57 10-29 21-65 25-81l7-29-47 7c-44 6-46 5-41-17 15-57 29-218 24-274-6-76-30-113-95-145-42-20-63-23-207-26-88-1-265 3-393 10-191 11-232 11-232 0 0-7 32-214 70-460 68-435 76-491 65-480-7 7-157 960-152 965 2 2 154-4 337-13 353-18 440-14 515 21 62 30 75 63 74 185-1 58-6 134-13 170l-11 65-249 7c-136 4-251 9-254 12-3 4-8 35-11 70l-6 64-807 5-808 5-2-801zm1295 776c-156-2-410-2-565 0-156 1-29 2 282 2 311 0 438-1 283-2zm-324-995c-5-18-39-145-75-283-64-243-70-263-78-254-6 7 147 569 155 569 4 0 3-15-2-32z"/><path d="M750 1730c-102-53-394-150-452-150-48 0-96 18-101 38-3 9-5-351-6-8e2L190 0h568 569l12 71c7 38 15 68 18 65 3-2 0-28-6-56-6-28-11-59-10-68 0-9 14 45 31 122 30 140 30 146-4 158-5 2 21 165 57 363 58 322 77 447 55 360l-8-30-1 27c-1 25-5 27-48 31-44 3-43 4 17 7 65 3 64 3-30 11-52 4-234 12-405 18-171 6-346 13-390 14-63 3-91 9-125 28-55 30-104 1e2-119 169-12 56-14 183-5 242 7 42 16 47 86 49 26 1 45 6 43 10-6 9 20 19 50 19 13 0 26 6 28 13 4 9 6 9 6 0 1-8 14-5 38 10 20 12 46 23 56 24 10 2 28 9 40 15 12 7 28 11 35 10 6-2 12 4 12 13 0 9 6 18 14 21 15 6 31 35 18 33-4-1-23-9-42-19zm547-677c-20-2-52-2-70 0-17 2 0 4 38 4 39 0 53-2 32-4zm170-105c-3-7-5-2-5 12 0 14 2 19 5 13 2-7 2-19 0-25zm-10-55c-3-10-5-4-5 12 0 17 2 24 5 18 2-7 2-21 0-30zm-10-55c-3-7-5-2-5 12 0 14 2 19 5 13 2-7 2-19 0-25zm-10-55c-3-10-5-4-5 12 0 17 2 24 5 18 2-7 2-21 0-30zm-10-60c-3-10-5-4-5 12 0 17 2 24 5 18 2-7 2-21 0-30zm-10-55c-3-7-5-2-5 12 0 14 2 19 5 13 2-7 2-19 0-25zm-10-55c-3-10-5-4-5 12 0 17 2 24 5 18 2-7 2-21 0-30zm-10-55c-3-7-5-2-5 12 0 14 2 19 5 13 2-7 2-19 0-25zm-10-55c-3-10-5-4-5 12 0 17 2 24 5 18 2-7 2-21 0-30zm-10-55c-3-7-5-2-5 12 0 14 2 19 5 13 2-7 2-19 0-25zm-10-55c-3-10-5-4-5 12 0 17 2 24 5 18 2-7 2-21 0-30zm-10-55c-3-7-5-2-5 12 0 14 2 19 5 13 2-7 2-19 0-25zm-10-40c-3-8-6-5-6 6-1 11 2 17 5 13 3-3 4-12 1-19zm41-49c-3-8-7-3-11 10-4 17-3 21 5 13 5-5 8-16 6-23zm-11-41c-3-8-6-5-6 6-1 11 2 17 5 13 3-3 4-12 1-19zm-10-50c-3-7-5-2-5 12 0 14 2 19 5 13 2-7 2-19 0-25z"/><path d="M4492 873l3-878 2 873 3 872h865 865l-2-47-1-48-4 43-4 42h-855-854V865 0h698l699 1v30c0 31 0 31-13 7-7-12-13-19-14-15 0 16 21 47 29 42 9-5 38 24 33 34-1 3 19 7 45 7l48 2-45-8c-42-7-41-7 15-5 42 2 77 11 113 29 54 27 67 46 32 46-11 0-20 3-20 8 0 4 7 95 15 202 8 107 21 305 30 440 9 135 27 388 40 562 14 174 25 328 25 343v25h-875-875l2-877zm1725 675c-2-18-4-6-4 27 0 33 2 48 4 33 2-15 2-42 0-60zm-10-130c-2-18-4-6-4 27 0 33 2 48 4 33 2-15 2-42 0-60zm-10-130c-2-18-4-6-4 27 0 33 2 48 4 33 2-15 2-42 0-60zm-10-140c-2-18-4-4-4 32 0 36 2 50 4 33 2-18 2-48 0-65zm-10-140c-2-18-4-4-4 32 0 36 2 50 4 33 2-18 2-48 0-65zm-10-140c-2-18-4-4-4 32 0 36 2 50 4 33 2-18 2-48 0-65zm-10-165c-2-21-4-4-4 37 0 41 2 58 4 38 2-21 2-55 0-75zm-10-150c-2-21-4-6-4 32 0 39 2 55 4 38 2-18 2-50 0-70zm-10-145c-2-18-4-4-4 32 0 36 2 50 4 33 2-18 2-48 0-65zm-10-130c-2-18-4-4-4 32 0 36 2 50 4 33 2-18 2-48 0-65zm15-116c18-4 14-8-23-28-24-13-48-23-54-23-5 0 7 9 29 20 28 15 35 24 27 32-6 6-10 25-9 42l1 30 4-34c3-23 11-35 25-39z"/><path d="M6626 1723c-3-16-15-84-26-153-11-69-32-179-45-245-13-66-31-174-39-240-80-602-117-873-121-892-3-13-12-23-20-23-15 0-20-21-29-120-4-37-2-50 4-40 6 10 10 11 10 3 0-10 42-13 176-13 166 0 175 1 169 18-3 11 3 29 15 44 16 21 30 26 77 30 64 4 173 49 173 70 0 9-3 10-8 2-8-12-66-44-79-44-4 1 9 10 31 21l39 21-7 76c-7 71-71 523-97 677-17 101-165 765-177 795-9 22-11 22-12 5l-1-20-8 20c-5 12-4 23 3 27 7 5 5 8-6 8-10 0-19-11-22-27zm11-40c-3-10-5-4-5 12 0 17 2 24 5 18 2-7 2-21 0-30zm-12-83c-4-28-9-49-12-47-2 3-1 28 3 56 4 28 9 50 11 47 3-3 2-28-2-56zm212-712c-3-7-5-2-5 12 0 14 2 19 5 13 2-7 2-19 0-25zm10-55c-3-10-5-4-5 12 0 17 2 24 5 18 2-7 2-21 0-30zm10-60c-3-10-5-4-5 12 0 17 2 24 5 18 2-7 2-21 0-30zm-370-50c-3-10-5-4-5 12 0 17 2 24 5 18 2-7 2-21 0-30zm380-10c-3-10-5-4-5 12 0 17 2 24 5 18 2-7 2-21 0-30zm-390-70c-3-10-5-2-5 17 0 19 2 27 5 18 2-10 2-26 0-35zm4e2.0c-3-10-5-2-5 17 0 19 2 27 5 18 2-10 2-26 0-35zm-410-70c-3-10-5-2-5 17 0 19 2 27 5 18 2-10 2-26 0-35zm420 0c-3-10-5-2-5 17 0 19 2 27 5 18 2-10 2-26 0-35zm-430-70c-3-10-5-2-5 17 0 19 2 27 5 18 2-10 2-26 0-35zm440 0c-3-10-5-2-5 17 0 19 2 27 5 18 2-10 2-26 0-35zm10-75c-2-13-4-5-4 17-1 22 1 32 4 23 2-10 2-28 0-40zm-460-5c-3-10-5-2-5 17 0 19 2 27 5 18 2-10 2-26 0-35zm-10-70c-3-10-5-2-5 17 0 19 2 27 5 18 2-10 2-26 0-35zm480 0c-3-10-5-2-5 17 0 19 2 27 5 18 2-10 2-26 0-35zm-490-70c-3-10-5-2-5 17 0 19 2 27 5 18 2-10 2-26 0-35zm5e2-10c-3-10-5-2-5 17 0 19 2 27 5 18 2-10 2-26 0-35zm-510-70c-3-10-5-2-5 17 0 19 2 27 5 18 2-10 2-26 0-35zm520-5c-2-13-4-5-4 17-1 22 1 32 4 23 2-10 2-28 0-40zM6367 63c-2-16-4-5-4 22 0 28 2 40 4 28 2-13 2-35 0-50zm446 40c-13-2-33-2-45 0-13 2-3 4 22 4 25 0 35-2 23-4zm-126-85c-3-7-5-2-5 12 0 14 2 19 5 13 2-7 2-19 0-25z"/><path d="M1120 1397c0-10 17-14 67-16 78-3 80 8 3 15-29 2-56 7-61 10-5 3-9-1-9-9z"/><path d="M1480 1354c0-5 18-21 39-36 21-15 38-33 39-40 4-44 11-68 25-83 9-8 14-22 11-30-4-9 0-15 9-15 9 0 17-14 22-37 4-21 12-44 18-52 7-8 11-16 9-18-1-2 2-11 7-21 18-30 12-2-30 142-23 78-44 151-47 164-3 17-11 22-37 22-19 0-40 3-49 6-9 3-16 2-16-2z"/><path d="M1537 13c-3-5 8-8 24-9 15-1 26 3 23 7-6 11-41 12-47 2z"/></g></svg>