<?xml version="1.0" encoding="UTF-8" standalone="no"?>
<!DOCTYPE svg PUBLIC "-//W3C//DTD SVG 1.1//EN" "http://www.w3.org/Graphics/SVG/1.1/DTD/svg11.dtd">
<svg viewBox="0 0 4194 250" height="250.0pt" width="4194.0pt" xmlns="http://www.w3.org/2000/svg" version="1.1">
<path d="M 0.00 0.00 L 4194.00 0.00 L 4194.00 250.00 L 0.00 250.00 L 0.00 128.14 C 1.30 133.12 2.07 137.78 4.86 142.19 C 7.09 146.14 10.26 149.14 13.57 152.16 C 21.04 157.27 30.40 160.35 39.45 158.56 C 42.58 158.09 45.65 158.40 48.74 158.95 C 52.71 159.65 56.11 158.16 60.05 158.33 C 62.75 158.33 65.31 159.13 68.00 159.14 C 70.69 159.10 73.27 158.32 75.98 158.34 C 78.69 158.21 81.22 158.93 83.89 159.12 C 87.00 159.29 89.88 158.27 92.99 158.34 C 97.03 158.27 100.58 159.75 104.68 158.85 C 108.42 158.07 112.07 158.27 115.80 158.94 C 119.37 159.60 122.47 158.42 125.97 158.34 C 130.20 158.13 133.91 159.77 138.19 158.85 C 141.81 158.14 145.16 158.19 148.79 158.88 C 153.08 159.75 156.81 158.10 161.06 158.34 C 163.38 158.38 165.59 159.02 167.90 159.13 C 170.99 159.26 173.90 158.23 177.00 158.34 C 179.36 158.28 181.60 158.82 183.93 159.07 C 187.41 159.44 190.53 158.19 194.02 158.33 C 197.55 158.30 200.65 159.54 204.23 159.00 C 208.23 158.40 211.95 157.76 215.91 159.07 C 221.26 159.50 225.97 157.58 231.33 158.66 C 234.55 159.34 237.48 159.19 240.70 158.57 C 246.19 157.54 251.11 160.04 256.57 158.71 C 262.24 157.36 267.38 159.98 272.96 158.77 C 276.58 158.04 280.15 158.33 283.76 158.97 C 287.35 159.58 290.43 158.34 293.96 158.34 C 296.67 158.21 299.22 158.89 301.89 159.11 C 305.00 159.30 307.87 158.28 310.98 158.33 C 313.36 158.24 315.60 158.80 317.93 159.06 C 321.43 159.46 324.51 158.24 328.00 158.34 C 330.73 158.27 333.30 159.00 336.00 159.15 C 344.53 158.90 352.86 156.08 359.22 150.27 C 366.63 143.76 370.86 133.78 370.75 123.96 C 370.18 115.76 367.03 107.61 361.22 101.69 C 357.40 97.42 352.57 94.94 347.44 92.62 C 342.15 91.70 337.52 90.06 332.07 91.32 C 326.52 92.62 321.49 90.05 316.01 91.21 C 312.42 91.93 308.84 91.71 305.27 91.06 C 301.30 90.36 297.89 91.82 293.96 91.67 C 290.45 91.66 287.34 90.42 283.76 91.03 C 279.87 91.76 276.12 91.92 272.21 91.12 C 268.29 90.32 264.88 91.68 261.02 91.67 C 257.20 91.79 253.85 90.32 249.98 91.06 C 245.79 91.84 242.39 91.85 238.21 91.05 C 234.26 90.34 230.88 91.83 226.97 91.66 C 224.63 91.68 222.42 91.13 220.10 90.91 C 216.94 90.66 214.19 91.64 211.03 91.67 C 207.11 91.83 203.71 90.37 199.75 91.05 C 195.85 91.78 192.14 91.89 188.24 91.10 C 184.29 90.33 180.89 91.72 177.00 91.67 C 173.90 91.76 171.00 90.74 167.92 90.87 C 165.24 91.01 162.70 91.78 159.98 91.67 C 156.45 91.70 153.33 90.46 149.74 91.00 C 146.18 91.59 142.70 91.98 139.12 91.29 C 136.21 90.74 133.79 90.75 130.88 91.31 C 127.29 91.99 123.81 91.57 120.25 90.99 C 116.66 90.48 113.57 91.72 110.02 91.67 C 106.19 91.78 102.86 90.34 98.99 91.06 C 95.66 91.65 92.34 91.94 88.98 91.32 C 86.30 90.82 83.72 90.69 81.03 91.22 C 77.42 91.95 73.85 91.68 70.25 91.04 C 66.31 90.37 62.91 91.87 58.99 91.67 C 56.27 91.64 53.72 90.84 51.00 90.87 C 48.30 90.92 45.73 91.71 43.02 91.67 C 39.95 91.81 37.07 90.79 34.01 90.85 C 31.58 90.91 29.15 91.50 26.73 91.80 C 17.34 94.07 9.15 100.10 4.43 108.56 C 2.00 112.60 1.18 117.29 0.00 121.84 L 0.00 0.00 Z" fill="#ffffff" />
<path d="M 34.01 90.85 C 37.07 90.79 39.95 91.81 43.02 91.67 C 45.73 91.71 48.30 90.92 51.00 90.87 C 53.72 90.84 56.27 91.64 58.99 91.67 C 62.91 91.87 66.31 90.37 70.25 91.04 C 73.85 91.68 77.42 91.95 81.03 91.22 C 83.72 90.69 86.30 90.82 88.98 91.32 C 92.34 91.94 95.66 91.65 98.99 91.06 C 102.86 90.34 106.19 91.78 110.02 91.67 C 113.57 91.72 116.66 90.48 120.25 90.99 C 123.81 91.57 127.29 91.99 130.88 91.31 C 133.79 90.75 136.21 90.74 139.12 91.29 C 142.70 91.98 146.18 91.59 149.74 91.00 C 153.33 90.46 156.45 91.70 159.98 91.67 C 162.70 91.78 165.24 91.01 167.92 90.87 C 171.00 90.74 173.90 91.76 177.00 91.67 C 180.89 91.72 184.29 90.33 188.24 91.10 C 192.14 91.89 195.85 91.78 199.75 91.05 C 203.71 90.37 207.11 91.83 211.03 91.67 C 214.19 91.64 216.94 90.66 220.10 90.91 C 222.42 91.13 224.63 91.68 226.97 91.66 C 230.88 91.83 234.26 90.34 238.21 91.05 C 242.39 91.85 245.79 91.84 249.98 91.06 C 253.85 90.32 257.20 91.79 261.02 91.67 C 264.88 91.68 268.29 90.32 272.21 91.12 C 276.12 91.92 279.87 91.76 283.76 91.03 C 287.34 90.42 290.45 91.66 293.96 91.67 C 297.89 91.82 301.30 90.36 305.27 91.06 C 308.84 91.71 312.42 91.93 316.01 91.21 C 321.49 90.05 326.52 92.62 332.07 91.32 C 337.52 90.06 342.15 91.70 347.44 92.62 C 352.57 94.94 357.40 97.42 361.22 101.69 C 367.03 107.61 370.18 115.76 370.75 123.96 C 370.86 133.78 366.63 143.76 359.22 150.27 C 352.86 156.08 344.53 158.90 336.00 159.15 C 333.30 159.00 330.73 158.27 328.00 158.34 C 324.51 158.24 321.43 159.46 317.93 159.06 C 315.60 158.80 313.36 158.24 310.98 158.33 C 307.87 158.28 305.00 159.30 301.89 159.11 C 299.22 158.89 296.67 158.21 293.96 158.34 C 290.43 158.34 287.35 159.58 283.76 158.97 C 280.15 158.33 276.58 158.04 272.96 158.77 C 267.38 159.98 262.24 157.36 256.57 158.71 C 251.11 160.04 246.19 157.54 240.70 158.57 C 237.48 159.19 234.55 159.34 231.33 158.66 C 225.97 157.58 221.26 159.50 215.91 159.07 C 211.95 157.76 208.23 158.40 204.23 159.00 C 200.65 159.54 197.55 158.30 194.02 158.33 C 190.53 158.19 187.41 159.44 183.93 159.07 C 181.60 158.82 179.36 158.28 177.00 158.34 C 173.90 158.23 170.99 159.26 167.90 159.13 C 165.59 159.02 163.38 158.38 161.06 158.34 C 156.81 158.10 153.08 159.75 148.79 158.88 C 145.16 158.19 141.81 158.14 138.19 158.85 C 133.91 159.77 130.20 158.13 125.97 158.34 C 122.47 158.42 119.37 159.60 115.80 158.94 C 112.07 158.27 108.42 158.07 104.68 158.85 C 100.58 159.75 97.03 158.27 92.99 158.34 C 89.88 158.27 87.00 159.29 83.89 159.12 C 81.22 158.93 78.69 158.21 75.98 158.34 C 73.27 158.32 70.69 159.10 68.00 159.14 C 65.31 159.13 62.75 158.33 60.05 158.33 C 56.11 158.16 52.71 159.65 48.74 158.95 C 45.65 158.40 42.58 158.09 39.45 158.56 C 30.40 160.35 21.04 157.27 13.57 152.16 C 10.26 149.14 7.09 146.14 4.86 142.19 C 2.07 137.78 1.30 133.12 0.00 128.14 L 0.00 121.84 C 1.18 117.29 2.00 112.60 4.43 108.56 C 9.15 100.10 17.34 94.07 26.73 91.80 C 29.15 91.50 31.58 90.91 34.01 90.85 Z" fill="#000000" />
<path d="M 509.71 90.93 C 513.31 90.49 516.43 91.74 519.99 91.67 C 523.49 91.78 526.56 90.53 530.05 90.94 C 532.39 91.20 534.64 91.75 537.01 91.67 C 540.13 91.73 543.00 90.71 546.11 90.89 C 548.78 91.09 551.33 91.77 554.04 91.67 C 557.56 91.66 560.66 90.41 564.24 91.03 C 567.85 91.67 571.43 91.95 575.05 91.23 C 580.64 90.03 585.77 92.65 591.44 91.29 C 596.19 90.08 600.33 91.92 605.03 91.64 C 607.39 91.57 609.64 90.93 612.00 90.86 C 614.40 90.81 616.59 91.44 618.95 91.61 C 623.41 91.99 627.64 90.51 632.12 90.93 C 638.17 93.05 643.22 90.03 649.18 91.17 C 652.76 91.86 656.18 91.80 659.75 91.10 C 663.70 90.30 667.11 91.72 670.99 91.67 C 674.77 91.74 678.04 90.39 681.87 91.03 C 685.54 91.75 689.16 91.92 692.85 91.18 C 697.45 90.17 701.48 92.02 706.06 91.62 C 709.52 91.36 712.67 90.41 716.20 91.16 C 719.77 91.86 723.19 91.79 726.77 91.12 C 731.06 90.24 734.79 91.92 739.04 91.66 C 741.77 91.60 744.27 90.76 747.02 90.87 C 749.72 91.01 752.28 91.77 755.01 91.66 C 757.73 91.72 760.30 90.97 763.00 90.86 C 765.73 90.79 768.24 91.63 770.96 91.66 C 775.21 91.87 778.91 90.24 783.20 91.14 C 786.84 91.86 790.15 91.81 793.80 91.13 C 797.71 90.30 801.14 91.65 804.98 91.67 C 808.82 91.79 812.24 90.39 816.13 90.99 C 820.97 91.73 825.58 92.58 829.87 95.08 C 838.59 99.83 844.93 107.98 847.06 117.72 C 848.98 124.69 847.70 131.46 845.24 138.09 C 841.04 148.16 831.90 155.67 821.32 158.19 C 818.39 158.57 815.76 159.28 812.90 159.12 C 810.23 158.93 807.69 158.23 804.99 158.34 C 801.45 158.29 798.35 159.55 794.76 159.00 C 791.20 158.40 787.71 158.01 784.12 158.71 C 778.48 160.04 773.35 157.40 767.66 158.67 C 762.46 160.01 757.87 157.85 752.69 158.42 C 749.75 158.76 747.08 159.48 744.09 158.97 C 740.74 158.34 737.39 158.07 734.01 158.68 C 731.31 159.19 728.75 159.30 726.05 158.77 C 722.43 158.06 718.84 158.32 715.24 158.97 C 711.64 159.57 708.57 158.34 705.04 158.33 C 701.11 158.16 697.71 159.65 693.74 158.95 C 690.34 158.34 686.94 158.06 683.51 158.71 C 680.63 159.29 678.07 159.24 675.19 158.68 C 671.82 158.07 668.49 158.35 665.14 158.94 C 661.23 159.66 657.85 158.20 653.99 158.33 C 650.46 158.31 647.36 159.54 643.78 158.99 C 639.78 158.40 636.06 157.76 632.10 159.07 C 629.00 159.28 626.01 158.85 622.96 158.43 C 618.09 157.78 613.78 159.88 608.94 158.82 C 605.29 158.09 601.68 158.26 598.05 158.94 C 594.17 159.67 590.82 158.22 586.99 158.34 C 583.88 158.28 581.00 159.29 577.90 159.12 C 575.22 158.91 572.68 158.22 569.97 158.33 C 566.44 158.35 563.37 159.56 559.77 158.98 C 556.16 158.34 552.57 158.04 548.94 158.77 C 546.23 159.30 543.67 159.19 540.97 158.68 C 537.59 158.06 534.23 158.34 530.87 158.97 C 527.05 159.62 523.77 158.24 519.99 158.34 C 516.89 158.27 513.98 159.24 510.89 159.16 C 508.56 159.08 506.22 158.45 503.94 158.03 C 502.82 157.80 501.69 157.58 500.56 157.38 C 496.32 155.36 492.24 153.55 488.79 150.25 C 481.38 143.74 477.15 133.76 477.28 123.95 C 477.80 116.03 480.84 108.08 486.29 102.23 C 490.20 97.72 495.19 95.03 500.56 92.62 C 503.61 92.07 506.64 91.33 509.71 90.93 Z" fill="#000000" />
<path d="M 989.00 90.85 C 991.70 90.92 994.27 91.69 996.98 91.66 C 1000.88 91.82 1004.27 90.33 1008.21 91.05 C 1012.36 91.84 1015.79 91.85 1019.95 91.06 C 1023.84 90.34 1027.18 91.77 1031.01 91.67 C 1034.58 91.74 1037.66 90.45 1041.27 90.98 C 1044.83 91.59 1048.33 91.99 1051.93 91.31 C 1054.79 90.77 1057.22 90.74 1060.09 91.29 C 1063.68 91.98 1067.18 91.60 1070.74 91.00 C 1074.34 90.45 1077.43 91.71 1080.98 91.66 C 1084.82 91.80 1088.20 90.34 1092.09 91.06 C 1095.75 91.73 1099.38 91.92 1103.05 91.18 C 1107.59 90.16 1111.53 92.01 1116.04 91.64 C 1119.19 91.48 1122.02 90.49 1125.25 91.01 C 1128.81 91.59 1132.30 92.00 1135.88 91.29 C 1141.49 89.95 1146.59 92.59 1152.26 91.34 C 1157.41 89.99 1161.93 92.10 1167.05 91.60 C 1169.42 91.40 1171.62 90.78 1174.04 90.87 C 1176.74 91.00 1179.29 91.77 1182.02 91.67 C 1185.12 91.73 1188.00 90.72 1191.10 90.89 C 1193.77 91.09 1196.31 91.77 1199.02 91.66 C 1202.55 91.68 1205.65 90.43 1209.24 91.03 C 1212.85 91.66 1216.42 91.95 1220.05 91.23 C 1225.69 90.02 1230.84 92.67 1236.54 91.28 C 1241.57 90.03 1245.98 92.13 1250.98 91.59 C 1254.13 91.25 1257.03 90.48 1260.23 91.10 C 1263.79 91.79 1267.26 91.87 1270.82 91.17 C 1275.74 90.13 1280.16 92.30 1285.12 91.53 C 1295.96 89.39 1307.97 93.45 1315.55 101.46 C 1322.04 108.00 1325.31 116.97 1325.29 126.12 C 1325.07 128.78 1324.42 131.39 1324.10 134.03 C 1322.09 139.66 1319.46 144.86 1315.07 149.03 C 1307.96 156.28 1297.93 159.56 1287.90 159.06 C 1281.85 156.96 1276.78 159.98 1270.83 158.82 C 1267.26 158.13 1263.77 158.21 1260.22 158.90 C 1256.28 159.69 1252.88 158.28 1249.00 158.34 C 1246.27 158.25 1243.69 159.02 1240.99 159.14 C 1238.27 159.23 1235.76 158.40 1233.06 158.35 C 1228.80 158.09 1225.08 159.75 1220.79 158.87 C 1217.18 158.19 1213.79 158.14 1210.19 158.84 C 1205.91 159.78 1202.21 158.13 1197.97 158.34 C 1194.47 158.42 1191.37 159.60 1187.80 158.94 C 1184.06 158.26 1180.41 158.07 1176.66 158.85 C 1172.57 159.75 1169.03 158.27 1164.99 158.33 C 1161.88 158.27 1159.00 159.29 1155.89 159.12 C 1153.22 158.93 1150.68 158.23 1147.98 158.34 C 1144.44 158.33 1141.36 159.55 1137.76 158.99 C 1134.13 158.35 1130.55 158.02 1126.89 158.77 C 1121.37 159.98 1116.30 157.39 1110.70 158.67 C 1105.58 159.99 1101.10 157.90 1096.02 158.41 C 1094.00 158.58 1092.04 159.07 1090.01 159.14 C 1087.27 159.23 1084.77 158.38 1082.05 158.34 C 1077.79 158.09 1074.06 159.75 1069.77 158.87 C 1066.11 158.18 1062.84 158.15 1059.18 158.85 C 1055.65 159.61 1052.51 158.61 1049.05 158.37 C 1044.50 157.97 1040.50 159.85 1035.93 158.82 C 1032.22 158.09 1028.64 158.26 1024.94 158.96 C 1021.10 159.65 1017.78 158.22 1013.99 158.33 C 1010.12 158.31 1006.69 159.69 1002.75 158.88 C 998.86 158.09 995.11 158.25 991.23 158.96 C 987.23 159.61 983.90 158.45 979.96 157.88 C 972.43 155.85 966.63 151.41 961.52 145.66 C 957.48 139.30 954.56 132.68 954.54 125.00 C 954.55 117.30 957.47 110.71 961.52 104.33 C 963.36 102.53 965.12 100.62 967.04 98.89 C 973.22 93.63 980.98 91.20 989.00 90.85 Z" fill="#000000" />
<path d="M 1464.88 90.88 C 1468.34 90.63 1471.56 91.81 1475.03 91.66 C 1478.55 91.66 1481.65 90.42 1485.25 91.03 C 1488.85 91.67 1492.44 91.95 1496.06 91.23 C 1501.67 90.02 1506.80 92.66 1512.48 91.29 C 1517.52 90.01 1521.95 92.15 1526.98 91.59 C 1529.39 91.37 1531.63 90.75 1534.10 90.88 C 1536.78 91.06 1539.32 91.78 1542.02 91.66 C 1545.56 91.69 1548.65 90.44 1552.24 91.01 C 1555.66 91.56 1559.00 91.99 1562.46 91.34 C 1565.46 90.78 1568.06 90.72 1571.07 91.32 C 1574.67 91.98 1578.16 91.58 1581.72 90.98 C 1585.33 90.46 1588.43 91.75 1591.99 91.67 C 1595.09 91.78 1597.99 90.75 1601.07 90.87 C 1603.76 91.00 1606.30 91.78 1609.02 91.67 C 1612.13 91.72 1615.00 90.71 1618.11 90.89 C 1620.78 91.09 1623.33 91.77 1626.04 91.67 C 1629.56 91.66 1632.66 90.42 1636.24 91.03 C 1639.84 91.67 1643.43 91.95 1647.05 91.23 C 1652.63 90.03 1657.75 92.64 1663.41 91.30 C 1668.47 90.02 1672.92 92.15 1677.97 91.59 C 1680.40 91.36 1682.63 90.74 1685.11 90.88 C 1687.78 91.08 1690.32 91.78 1693.03 91.66 C 1696.55 91.68 1699.66 90.45 1703.24 91.02 C 1706.88 91.62 1710.44 91.98 1714.11 91.24 C 1719.66 90.02 1724.70 92.61 1730.31 91.33 C 1735.88 89.91 1740.87 92.48 1746.45 91.42 C 1750.02 90.73 1752.85 90.70 1756.41 91.43 C 1762.02 92.49 1766.99 89.91 1772.58 91.28 C 1782.39 92.53 1791.18 97.99 1796.69 106.18 C 1800.68 112.23 1802.98 119.73 1802.55 126.99 C 1801.81 135.24 1798.25 143.44 1792.19 149.17 C 1785.67 155.84 1776.11 159.26 1766.88 159.08 C 1762.73 158.42 1758.70 157.94 1754.52 158.87 C 1750.13 159.78 1746.34 158.04 1741.97 158.36 C 1739.22 158.44 1736.69 159.26 1733.90 159.13 C 1731.23 158.96 1728.69 158.22 1725.98 158.34 C 1722.45 158.30 1719.34 159.55 1715.76 158.99 C 1711.77 158.41 1708.06 157.76 1704.10 159.07 C 1698.52 159.46 1693.59 157.49 1687.98 158.77 C 1682.88 159.95 1678.32 157.68 1673.19 158.48 C 1669.89 159.03 1666.75 159.46 1663.43 158.71 C 1657.32 157.35 1651.82 160.20 1645.71 158.56 C 1640.57 157.53 1635.89 159.86 1630.82 158.85 C 1626.93 158.05 1623.13 158.31 1619.25 159.01 C 1615.65 159.54 1612.57 158.28 1609.02 158.33 C 1605.17 158.21 1601.82 159.67 1597.93 158.95 C 1593.75 158.15 1590.31 158.15 1586.13 158.94 C 1582.21 159.66 1578.85 158.19 1574.98 158.34 C 1571.46 158.31 1568.36 159.54 1564.78 158.99 C 1561.14 158.38 1557.57 158.01 1553.90 158.75 C 1548.36 159.98 1543.29 157.41 1537.68 158.67 C 1532.31 160.05 1527.55 157.70 1522.19 158.48 C 1519.23 158.92 1516.41 159.46 1513.41 158.86 C 1509.68 158.08 1505.98 158.25 1502.26 158.94 C 1498.30 159.66 1494.88 158.18 1490.97 158.34 C 1487.44 158.34 1484.36 159.56 1480.77 158.97 C 1477.86 158.50 1474.98 158.11 1472.02 158.47 C 1457.84 161.22 1442.82 153.78 1436.07 141.06 C 1433.57 136.76 1432.67 132.11 1431.96 127.25 C 1431.32 115.46 1436.82 103.93 1446.56 97.18 C 1451.99 93.26 1458.29 91.53 1464.88 90.88 Z" fill="#000000" />
<path d="M 1939.32 91.25 C 1944.13 90.04 1948.27 91.95 1953.05 91.64 C 1955.79 91.54 1958.32 90.71 1961.11 90.88 C 1963.78 91.09 1966.32 91.78 1969.03 91.66 C 1972.56 91.66 1975.65 90.46 1979.24 91.03 C 1982.87 91.66 1986.46 91.96 1990.11 91.22 C 1995.64 90.02 2000.70 92.61 2006.31 91.32 C 2011.43 89.99 2015.91 92.13 2020.99 91.59 C 2023.41 91.38 2025.63 90.75 2028.09 90.87 C 2030.77 91.05 2033.31 91.77 2036.01 91.66 C 2039.55 91.70 2042.66 90.46 2046.24 91.00 C 2049.80 91.59 2053.28 91.99 2056.86 91.29 C 2062.51 89.94 2067.63 92.61 2073.33 91.34 C 2078.55 89.97 2083.14 92.17 2088.33 91.57 C 2090.98 91.29 2093.35 90.64 2096.05 90.94 C 2098.39 91.20 2100.64 91.74 2103.02 91.67 C 2106.13 91.74 2109.01 90.70 2112.11 90.87 C 2114.78 91.07 2117.31 91.79 2120.02 91.66 C 2123.57 91.67 2126.65 90.45 2130.25 91.03 C 2133.83 91.64 2137.37 91.97 2140.98 91.25 C 2146.52 89.99 2151.60 92.60 2157.22 91.34 C 2162.36 89.99 2166.87 92.11 2171.98 91.60 C 2174.40 91.38 2176.63 90.75 2179.10 90.87 C 2181.78 91.04 2184.31 91.79 2187.02 91.67 C 2190.15 91.72 2192.99 90.67 2196.11 90.90 C 2198.79 91.12 2201.33 91.78 2204.05 91.67 C 2206.75 91.67 2209.30 90.85 2212.00 90.86 C 2214.37 90.89 2216.61 91.52 2218.97 91.63 C 2223.50 92.01 2227.48 90.15 2232.03 91.18 C 2236.45 92.15 2240.60 91.41 2244.98 90.86 C 2253.79 91.02 2262.43 94.10 2268.86 100.23 C 2275.83 106.57 2279.52 115.67 2279.88 125.00 C 2279.49 134.64 2275.58 144.01 2268.20 150.38 C 2261.83 156.14 2253.50 158.96 2244.99 159.14 C 2242.29 158.98 2239.72 158.25 2236.99 158.33 C 2233.88 158.27 2230.99 159.28 2227.89 159.12 C 2225.22 158.93 2222.69 158.22 2219.98 158.34 C 2216.44 158.32 2213.36 159.55 2209.76 158.99 C 2206.35 158.42 2202.99 158.02 2199.54 158.66 C 2196.55 159.23 2193.96 159.28 2190.96 158.68 C 2187.34 158.01 2183.84 158.43 2180.26 159.02 C 2176.66 159.52 2173.58 158.26 2170.00 158.34 C 2166.90 158.24 2164.00 159.26 2160.91 159.13 C 2158.59 159.03 2156.37 158.38 2154.04 158.34 C 2149.79 158.09 2146.06 159.76 2141.77 158.87 C 2138.14 158.19 2134.81 158.15 2131.18 158.85 C 2126.12 159.85 2121.42 157.55 2116.28 158.56 C 2112.65 159.28 2109.92 159.27 2106.28 158.57 C 2100.73 157.53 2095.77 160.07 2090.25 158.68 C 2084.64 157.38 2079.57 159.97 2074.03 158.77 C 2070.41 158.05 2066.83 158.33 2063.23 158.96 C 2059.30 159.63 2055.89 158.12 2051.96 158.34 C 2049.25 158.35 2046.70 159.17 2044.00 159.14 C 2041.30 159.07 2038.73 158.30 2036.02 158.33 C 2032.15 158.21 2028.79 159.65 2024.88 158.95 C 2020.69 158.15 2017.29 158.13 2013.11 158.94 C 2009.20 159.66 2005.84 158.20 2001.98 158.34 C 1998.44 158.29 1995.35 159.53 1991.77 159.01 C 1987.77 158.41 1984.05 157.75 1980.08 159.08 C 1976.67 159.35 1973.42 158.67 1970.05 158.37 C 1965.79 157.96 1962.01 159.68 1957.79 158.95 C 1954.91 158.45 1952.06 158.12 1949.14 158.48 C 1936.54 160.99 1922.71 154.97 1915.45 144.44 C 1911.60 139.20 1909.67 132.48 1909.11 126.06 C 1909.10 117.45 1912.23 108.49 1918.17 102.17 C 1923.72 96.12 1931.16 92.26 1939.32 91.25 Z" fill="#000000" />
<path d="M 2424.15 91.19 C 2427.68 91.84 2430.90 91.82 2434.43 91.14 C 2439.11 90.18 2443.26 92.17 2447.97 91.59 C 2451.62 91.10 2455.01 90.45 2458.69 91.33 C 2464.38 92.62 2469.50 89.95 2475.14 91.29 C 2478.72 91.98 2482.23 91.61 2485.79 91.00 C 2489.38 90.47 2492.44 91.69 2495.98 91.67 C 2499.86 91.80 2503.23 90.34 2507.15 91.05 C 2511.35 91.85 2514.73 91.85 2518.94 91.06 C 2522.82 90.33 2526.18 91.78 2530.02 91.66 C 2533.58 91.72 2536.65 90.46 2540.25 90.99 C 2543.81 91.59 2547.30 91.98 2550.88 91.30 C 2553.79 90.74 2556.21 90.75 2559.12 91.30 C 2562.70 91.98 2566.19 91.59 2569.75 90.99 C 2573.35 90.47 2576.43 91.71 2579.98 91.67 C 2582.36 91.75 2584.61 91.20 2586.95 90.93 C 2590.45 90.53 2593.50 91.78 2597.01 91.66 C 2600.12 91.74 2603.01 90.73 2606.11 90.88 C 2608.78 91.07 2611.32 91.78 2614.02 91.66 C 2617.56 91.69 2620.65 90.44 2624.24 91.01 C 2627.65 91.57 2630.99 91.99 2634.44 91.34 C 2640.47 89.91 2645.96 92.73 2652.04 91.21 C 2656.59 90.14 2660.53 91.92 2665.03 91.66 C 2667.77 91.58 2670.30 90.76 2673.08 90.87 C 2675.76 91.00 2678.30 91.78 2681.02 91.67 C 2684.13 91.72 2687.00 90.70 2690.11 90.89 C 2692.79 91.09 2695.33 91.77 2698.04 91.67 C 2701.56 91.65 2704.66 90.42 2708.24 91.03 C 2711.84 91.67 2715.42 91.95 2719.05 91.23 C 2722.18 90.62 2725.23 90.84 2728.32 91.50 C 2740.75 93.29 2751.68 102.79 2755.38 114.76 C 2756.74 119.99 2757.83 125.03 2756.49 130.42 C 2754.95 140.90 2748.08 150.12 2738.77 155.04 C 2734.38 157.53 2729.08 158.54 2724.11 159.12 C 2720.64 159.38 2717.44 158.18 2713.97 158.33 C 2710.43 158.34 2707.37 159.56 2703.77 158.98 C 2699.89 158.26 2696.10 158.08 2692.20 158.87 C 2688.28 159.69 2684.87 158.33 2681.02 158.33 C 2677.17 158.21 2673.80 159.67 2669.90 158.94 C 2665.72 158.15 2662.29 158.16 2658.12 158.94 C 2654.21 159.65 2650.84 158.19 2646.98 158.34 C 2643.46 158.31 2640.35 159.54 2636.77 158.99 C 2633.14 158.39 2629.60 158.01 2625.95 158.74 C 2620.38 159.99 2615.30 157.41 2609.67 158.67 C 2604.56 159.99 2600.08 157.91 2595.01 158.40 C 2592.61 158.59 2590.40 159.23 2587.95 159.13 C 2585.26 158.98 2582.70 158.23 2579.99 158.33 C 2576.88 158.28 2574.00 159.30 2570.89 159.12 C 2568.22 158.92 2565.68 158.21 2562.97 158.34 C 2559.44 158.34 2556.36 159.56 2552.78 158.97 C 2549.17 158.34 2545.60 158.04 2541.97 158.76 C 2536.34 159.99 2531.21 157.33 2525.51 158.71 C 2520.47 159.98 2516.04 157.86 2511.01 158.41 C 2507.85 158.75 2504.95 159.53 2501.74 158.89 C 2497.86 158.10 2494.12 158.24 2490.25 158.95 C 2486.67 159.60 2483.55 158.38 2480.03 158.34 C 2476.10 158.15 2472.69 159.62 2468.74 158.96 C 2464.85 158.23 2461.11 158.09 2457.21 158.90 C 2453.28 159.69 2449.88 158.30 2446.01 158.33 C 2442.03 158.27 2438.53 159.71 2434.49 158.87 C 2430.31 157.94 2426.27 158.40 2422.11 159.08 C 2412.91 159.29 2403.31 155.82 2396.80 149.20 C 2390.72 143.44 2387.19 135.27 2386.42 126.99 C 2385.91 118.29 2389.38 108.75 2395.30 102.35 C 2399.21 97.80 2404.19 95.05 2409.59 92.65 C 2414.67 91.81 2418.96 90.15 2424.15 91.19 Z" fill="#000000" />
<path d="M 2895.74 90.97 C 2899.32 90.47 2902.45 91.64 2905.96 91.67 C 2909.89 91.84 2913.31 90.36 2917.27 91.06 C 2921.14 91.78 2924.85 91.90 2928.73 91.10 C 2932.69 90.31 2936.09 91.73 2940.00 91.67 C 2943.98 91.71 2947.47 90.28 2951.52 91.13 C 2955.28 91.93 2958.98 91.75 2962.73 91.05 C 2966.70 90.36 2970.12 91.83 2974.05 91.67 C 2977.58 91.64 2980.64 90.43 2984.25 91.03 C 2987.61 91.62 2990.95 91.96 2994.35 91.33 C 2996.93 90.86 2999.47 90.68 3002.07 91.18 C 3005.71 91.91 3009.32 91.73 3012.95 91.06 C 3016.84 90.33 3020.17 91.78 3024.01 91.67 C 3027.56 91.72 3030.66 90.46 3034.26 90.99 C 3037.82 91.59 3041.31 91.98 3044.90 91.30 C 3047.80 90.76 3050.23 90.75 3053.13 91.30 C 3056.72 92.00 3060.20 91.58 3063.76 90.99 C 3067.35 90.45 3070.44 91.70 3073.98 91.67 C 3077.83 91.79 3081.19 90.33 3085.09 91.06 C 3088.43 91.66 3091.77 91.93 3095.14 91.31 C 3097.82 90.81 3100.36 90.69 3103.05 91.22 C 3106.62 91.94 3110.18 91.69 3113.74 91.04 C 3117.70 90.37 3121.10 91.83 3125.03 91.67 C 3127.74 91.67 3130.30 90.85 3133.00 90.86 C 3135.37 90.89 3137.60 91.53 3139.96 91.63 C 3144.51 92.02 3148.50 90.14 3153.07 91.18 C 3156.71 91.91 3160.33 91.74 3163.96 91.06 C 3167.83 90.33 3171.19 91.78 3175.02 91.67 C 3178.88 91.69 3182.29 90.29 3186.23 91.12 C 3189.90 91.82 3193.14 91.84 3196.82 91.17 C 3201.24 90.33 3205.49 91.43 3209.82 92.42 C 3217.04 94.42 3222.52 98.88 3227.45 104.35 C 3229.89 108.67 3232.49 112.47 3233.41 117.45 C 3235.67 125.71 3233.86 135.05 3229.42 142.30 C 3224.28 151.16 3214.99 157.28 3204.83 158.64 C 3198.90 160.19 3193.59 157.38 3187.63 158.66 C 3181.75 160.12 3176.44 157.32 3170.52 158.72 C 3165.07 160.05 3160.17 157.52 3154.68 158.57 C 3151.04 159.29 3148.26 159.27 3144.64 158.56 C 3139.52 157.55 3134.84 159.84 3129.80 158.85 C 3126.14 158.15 3122.85 158.18 3119.19 158.87 C 3115.27 159.70 3111.87 158.34 3108.02 158.34 C 3105.32 158.23 3102.78 158.93 3100.11 159.12 C 3097.01 159.28 3094.11 158.25 3091.00 158.33 C 3087.90 158.23 3085.00 159.26 3081.91 159.13 C 3079.23 158.96 3076.69 158.22 3073.98 158.34 C 3070.44 158.30 3067.35 159.52 3063.77 159.01 C 3059.77 158.41 3056.07 157.75 3052.10 159.07 C 3046.75 159.52 3042.02 157.57 3036.65 158.66 C 3033.42 159.34 3030.51 159.20 3027.28 158.57 C 3021.73 157.52 3016.78 160.09 3011.25 158.68 C 3005.65 157.39 3000.58 159.96 2995.06 158.78 C 2991.43 158.05 2987.85 158.33 2984.25 158.97 C 2980.66 159.57 2977.56 158.37 2974.04 158.34 C 2970.11 158.17 2966.70 159.64 2962.75 158.95 C 2959.32 158.36 2955.92 158.03 2952.46 158.71 C 2949.64 159.31 2946.97 159.21 2944.14 158.68 C 2940.78 158.07 2937.44 158.35 2934.10 158.94 C 2930.20 159.68 2926.83 158.20 2922.98 158.34 C 2920.27 158.30 2917.70 159.06 2915.00 159.13 C 2912.61 159.17 2910.43 158.55 2908.07 158.39 C 2903.15 157.93 2898.84 159.96 2893.88 158.75 C 2883.71 157.55 2874.43 151.64 2869.02 142.97 C 2864.48 135.77 2862.46 126.42 2864.54 118.10 C 2866.56 107.82 2873.96 98.65 2883.45 94.26 C 2887.22 92.33 2891.58 91.59 2895.74 90.97 Z" fill="#000000" />
<path d="M 3386.73 91.49 C 3389.85 90.97 3392.84 90.56 3395.98 91.26 C 3399.60 91.97 3403.16 91.63 3406.76 91.01 C 3410.36 90.45 3413.44 91.68 3416.98 91.67 C 3419.69 91.79 3422.23 91.05 3424.91 90.88 C 3427.69 90.75 3430.23 91.56 3432.97 91.65 C 3437.35 91.96 3441.15 90.22 3445.56 91.14 C 3449.30 91.92 3453.00 91.76 3456.74 91.05 C 3460.70 90.35 3464.12 91.83 3468.04 91.67 C 3470.74 91.67 3473.31 90.88 3476.00 90.86 C 3478.69 90.90 3481.27 91.67 3483.97 91.66 C 3487.88 91.84 3491.29 90.34 3495.24 91.05 C 3498.64 91.66 3502.03 91.95 3505.46 91.29 C 3508.34 90.71 3510.91 90.77 3513.80 91.32 C 3517.17 91.94 3520.50 91.65 3523.85 91.06 C 3527.76 90.34 3531.15 91.81 3535.01 91.67 C 3537.72 91.70 3540.30 90.91 3543.00 90.86 C 3545.69 90.87 3548.26 91.66 3550.96 91.66 C 3554.89 91.84 3558.30 90.36 3562.25 91.05 C 3565.84 91.70 3569.43 91.94 3573.03 91.21 C 3575.92 90.61 3578.71 90.90 3581.59 91.42 C 3585.12 92.00 3588.46 91.44 3591.94 90.95 C 3595.44 90.51 3598.53 91.81 3602.02 91.66 C 3605.56 91.71 3608.65 90.45 3612.25 90.99 C 3615.80 91.59 3619.29 91.99 3622.88 91.30 C 3625.79 90.74 3628.21 90.75 3631.12 91.30 C 3634.70 91.98 3638.19 91.59 3641.75 90.99 C 3645.34 90.46 3648.44 91.72 3651.99 91.67 C 3655.83 91.79 3659.16 90.33 3663.05 91.06 C 3666.68 91.75 3670.28 91.90 3673.93 91.19 C 3677.76 90.39 3681.30 91.18 3685.02 91.97 C 3686.15 92.20 3687.28 92.42 3688.42 92.61 C 3692.67 94.68 3696.77 96.46 3700.22 99.79 C 3707.81 106.49 3712.15 116.92 3711.65 127.00 C 3710.84 134.89 3707.80 142.52 3702.21 148.25 C 3698.39 152.53 3693.55 155.04 3688.41 157.38 C 3683.99 158.08 3679.21 159.73 3674.80 158.94 C 3671.46 158.35 3668.13 158.07 3664.76 158.68 C 3661.59 159.36 3658.65 159.17 3655.50 158.56 C 3650.15 157.54 3645.35 159.97 3640.05 158.77 C 3634.44 157.48 3629.51 159.49 3623.92 159.06 C 3617.85 156.96 3612.80 160.00 3606.84 158.82 C 3603.16 158.08 3599.55 158.24 3595.88 158.97 C 3592.06 159.62 3588.78 158.25 3585.00 158.34 C 3581.89 158.24 3578.99 159.28 3575.89 159.12 C 3573.22 158.93 3570.68 158.23 3567.98 158.34 C 3564.44 158.30 3561.36 159.54 3557.77 159.00 C 3554.17 158.40 3550.65 158.01 3547.02 158.73 C 3541.42 160.02 3536.33 157.39 3530.68 158.66 C 3525.30 160.05 3520.54 157.69 3515.17 158.49 C 3512.22 158.93 3509.42 159.46 3506.44 158.87 C 3502.68 158.09 3498.98 158.24 3495.23 158.95 C 3491.28 159.65 3487.87 158.17 3483.97 158.33 C 3480.43 158.35 3477.36 159.57 3473.76 158.98 C 3470.37 158.40 3467.03 158.03 3463.61 158.66 C 3461.01 159.15 3458.47 159.32 3455.85 158.82 C 3452.18 158.07 3448.54 158.26 3444.88 158.96 C 3441.06 159.61 3437.76 158.25 3433.99 158.33 C 3430.89 158.26 3427.99 159.27 3424.90 159.13 C 3422.22 158.96 3419.69 158.22 3416.98 158.33 C 3414.27 158.30 3411.70 159.08 3409.00 159.13 C 3406.30 159.15 3403.74 158.35 3401.03 158.33 C 3397.11 158.13 3393.70 159.64 3389.75 158.96 C 3386.86 158.48 3383.99 158.12 3381.05 158.48 C 3368.38 160.97 3354.67 155.06 3347.32 144.50 C 3343.21 138.98 3341.31 131.79 3340.93 125.00 C 3341.31 118.49 3343.03 111.60 3346.83 106.20 C 3352.16 98.23 3360.86 92.66 3370.39 91.38 C 3376.07 89.82 3381.06 92.36 3386.73 91.49 Z" fill="#000000" />
<path d="M 3852.99 90.85 C 3856.65 91.16 3860.07 92.05 3863.79 91.51 C 3866.89 91.02 3869.84 90.53 3872.96 91.21 C 3876.57 91.93 3880.15 91.70 3883.74 91.05 C 3887.70 90.35 3891.11 91.82 3895.03 91.67 C 3897.74 91.67 3900.30 90.88 3902.99 90.87 C 3905.69 90.91 3908.26 91.68 3910.97 91.66 C 3914.87 91.82 3918.25 90.35 3922.18 91.05 C 3925.90 91.74 3929.52 91.92 3933.25 91.16 C 3938.22 90.11 3942.73 92.35 3947.75 91.50 C 3951.48 90.80 3954.56 90.66 3958.29 91.43 C 3963.44 92.48 3968.11 90.13 3973.19 91.16 C 3976.86 91.85 3980.13 91.82 3983.80 91.13 C 3988.08 90.26 3991.80 91.91 3996.04 91.66 C 3998.38 91.63 4000.59 90.96 4002.92 90.87 C 4005.69 90.77 4008.23 91.57 4010.97 91.65 C 4015.33 91.94 4019.14 90.21 4023.53 91.13 C 4027.28 91.94 4030.98 91.74 4034.73 91.06 C 4038.69 90.37 4042.12 91.84 4046.05 91.67 C 4049.58 91.64 4052.64 90.44 4056.24 91.03 C 4059.59 91.63 4062.90 91.95 4066.28 91.34 C 4068.88 90.87 4071.44 90.67 4074.06 91.18 C 4077.70 91.91 4081.32 91.74 4084.95 91.06 C 4088.84 90.33 4092.17 91.78 4096.01 91.67 C 4099.13 91.74 4102.00 90.69 4105.11 90.88 C 4107.78 91.09 4110.32 91.78 4113.03 91.66 C 4115.73 91.67 4118.30 90.91 4121.00 90.87 C 4123.69 90.88 4126.25 91.68 4128.96 91.67 C 4133.18 91.79 4136.88 90.21 4141.16 91.18 C 4145.06 91.98 4148.86 91.65 4152.74 90.97 C 4164.38 90.39 4175.95 95.96 4182.63 105.55 C 4186.68 111.09 4188.64 118.22 4189.00 125.00 C 4188.62 131.79 4186.68 138.91 4182.62 144.46 C 4180.63 147.44 4177.99 149.70 4175.39 152.17 C 4171.27 154.83 4167.06 157.03 4162.25 158.20 C 4159.84 158.49 4157.42 159.08 4154.99 159.15 C 4151.93 159.22 4149.05 158.20 4145.98 158.33 C 4142.87 158.28 4140.00 159.29 4136.90 159.11 C 4134.22 158.90 4131.68 158.21 4128.97 158.34 C 4125.44 158.34 4122.37 159.56 4118.78 158.97 C 4115.17 158.33 4111.59 158.03 4107.96 158.77 C 4102.39 159.98 4097.28 157.36 4091.63 158.69 C 4086.31 160.04 4081.58 157.66 4076.25 158.49 C 4072.89 159.08 4069.71 159.43 4066.33 158.67 C 4060.65 157.40 4055.53 160.04 4049.90 158.71 C 4046.31 158.03 4042.81 158.40 4039.25 159.00 C 4035.65 159.55 4032.57 158.31 4029.02 158.33 C 4026.31 158.21 4023.78 158.97 4021.10 159.12 C 4018.31 159.25 4015.79 158.43 4013.03 158.35 C 4008.64 158.05 4004.85 159.78 4000.45 158.87 C 3996.71 158.08 3993.00 158.25 3989.26 158.94 C 3985.30 159.65 3981.88 158.18 3977.96 158.33 C 3974.44 158.36 3971.34 159.56 3967.75 158.97 C 3964.14 158.33 3960.56 158.05 3956.94 158.77 C 3951.40 159.96 3946.32 157.38 3940.71 158.68 C 3935.20 160.08 3930.26 157.53 3924.72 158.57 C 3921.47 159.21 3918.59 159.33 3915.32 158.66 C 3909.96 157.59 3905.25 159.49 3899.90 159.08 C 3895.93 157.75 3892.22 158.40 3888.22 159.01 C 3884.64 159.53 3881.55 158.30 3878.02 158.34 C 3873.89 158.24 3870.24 159.78 3866.04 158.82 C 3862.00 157.95 3858.08 158.42 3854.06 159.07 C 3844.29 159.37 3834.44 155.50 3827.74 148.31 C 3821.93 142.37 3818.82 134.26 3818.22 126.06 C 3818.12 116.24 3822.32 106.20 3829.77 99.71 C 3836.13 93.93 3844.47 91.04 3852.99 90.85 Z" fill="#000000" /></svg>