<svg id="svg" version="1.1" xmlns="http://www.w3.org/2000/svg" xmlns:xlink="http://www.w3.org/1999/xlink" width="400" height="71.56353563832418" viewBox="0, 0, 400,71.56353563832418"><g id="svgg"><path id="path0" d="M10.612 36.031 C 10.155 36.198,10.144 36.229,10.254 37.060 C 10.398 38.150,10.486 38.231,11.151 37.899 C 11.964 37.494,12.711 37.674,14.573 38.723 C 17.159 40.180,18.319 40.164,20.838 38.637 C 22.889 37.394,23.466 37.376,25.333 38.500 C 28.359 40.322,29.922 40.239,33.089 38.090 C 33.846 37.576,34.746 37.540,35.333 38.000 C 36.089 38.591,36.326 38.325,36.331 36.883 C 36.336 35.409,33.418 35.391,31.359 36.852 C 29.437 38.216,28.304 38.228,26.464 36.907 C 24.395 35.421,22.032 35.452,19.770 36.996 C 17.933 38.251,16.914 38.210,15.167 36.813 C 14.054 35.923,11.916 35.556,10.612 36.031 M11.091 39.224 C 10.640 39.554,11.285 41.000,11.882 41.000 C 12.503 41.000,13.322 41.329,14.431 42.026 C 16.849 43.543,18.651 43.537,20.897 42.004 C 22.585 40.851,23.524 40.776,24.981 41.680 C 27.968 43.532,29.735 43.657,31.935 42.171 C 33.339 41.224,34.001 40.958,34.680 41.066 L 35.307 41.166 35.590 40.314 C 35.827 39.600,35.836 39.437,35.645 39.316 C 34.752 38.750,32.875 39.071,31.718 39.987 C 29.648 41.625,28.017 41.675,26.250 40.157 C 24.510 38.662,22.384 38.699,19.975 40.266 C 17.969 41.571,16.922 41.592,15.366 40.360 C 13.981 39.262,11.822 38.689,11.091 39.224 M22.027 42.593 C 21.524 42.729,20.586 43.215,19.871 43.709 C 18.232 44.841,17.013 44.942,15.802 44.045 C 14.485 43.070,13.673 42.636,13.000 42.546 C 12.185 42.436,12.181 42.497,12.925 43.511 C 15.398 46.881,18.012 47.383,21.300 45.122 C 22.734 44.135,23.987 44.156,25.269 45.189 C 28.152 47.511,32.527 46.433,34.320 42.959 C 34.758 42.110,33.454 42.198,32.191 43.103 C 29.559 44.987,28.442 45.082,26.333 43.598 C 24.750 42.483,23.503 42.192,22.027 42.593 M191.119 45.070 C 189.376 45.539,188.245 47.090,188.256 48.996 C 188.278 52.780,192.786 54.437,195.298 51.584 C 197.980 48.537,195.074 44.007,191.119 45.070 " stroke="none" fill="#c2dfac" fill-rule="evenodd"></path><path id="path1" d="M229.778 6.111 C 229.717 6.172,229.667 8.947,229.667 12.278 L 229.667 18.333 226.745 18.333 L 223.823 18.333 223.870 20.375 L 223.917 22.417 226.791 22.462 L 229.665 22.508 229.707 37.296 L 229.750 52.083 232.042 52.130 L 234.333 52.176 234.333 37.338 L 234.333 22.500 237.750 22.500 L 241.167 22.500 241.167 20.417 L 241.167 18.333 237.750 18.333 L 234.333 18.333 234.333 12.167 L 234.333 6.000 232.111 6.000 C 230.889 6.000,229.839 6.050,229.778 6.111 M62.917 17.611 C 59.309 17.948,56.858 18.822,54.000 20.792 C 51.092 22.796,48.739 26.004,47.464 29.703 L 46.931 31.250 46.935 35.000 C 46.947 43.808,51.419 49.463,60.132 51.686 C 64.528 52.807,71.324 51.444,74.333 48.837 C 74.563 48.639,74.975 48.284,75.250 48.048 C 75.525 47.813,76.078 47.312,76.479 46.935 L 77.208 46.250 77.112 48.583 C 76.825 55.573,74.094 59.315,68.543 60.326 C 68.015 60.423,67.396 60.542,67.167 60.592 C 65.518 60.949,61.396 60.703,59.167 60.113 C 56.658 59.449,53.993 57.463,52.660 55.264 L 52.096 54.333 49.710 54.333 C 46.939 54.333,46.917 54.348,47.592 55.691 C 49.662 59.807,52.292 62.225,56.430 63.818 C 61.822 65.893,70.495 65.454,74.232 62.918 C 74.548 62.704,75.093 62.392,75.445 62.226 C 76.693 61.633,78.968 59.055,79.908 57.167 C 80.251 56.479,80.597 55.789,80.678 55.633 C 80.759 55.478,80.868 55.109,80.920 54.814 C 80.972 54.519,81.043 54.233,81.077 54.177 C 81.111 54.122,81.184 53.778,81.239 53.413 C 81.294 53.048,81.423 52.337,81.527 51.833 C 81.655 51.204,81.736 45.805,81.783 34.625 L 81.851 18.333 79.509 18.333 L 77.167 18.333 77.167 21.016 L 77.167 23.698 75.650 22.271 C 73.396 20.148,70.360 18.402,68.333 18.062 C 68.104 18.024,67.542 17.924,67.083 17.841 C 66.045 17.652,63.802 17.528,62.917 17.611 M103.333 17.675 C 99.698 18.006,98.332 18.480,95.250 20.475 C 91.861 22.670,88.629 27.403,87.905 31.233 C 87.869 31.426,87.803 31.771,87.760 32.000 C 87.309 34.374,87.583 38.538,88.345 40.869 C 89.056 43.046,89.602 44.060,91.459 46.656 C 91.747 47.059,93.648 48.933,94.588 49.740 C 98.889 53.436,107.720 54.047,113.370 51.039 C 115.875 49.706,117.472 48.341,119.076 46.161 C 120.027 44.868,121.601 42.167,121.403 42.167 C 121.358 42.167,121.404 42.012,121.506 41.823 C 121.607 41.633,121.717 41.352,121.751 41.198 C 121.784 41.043,121.972 40.317,122.167 39.583 C 123.058 36.235,122.706 31.814,121.239 27.956 C 120.391 25.724,117.815 22.585,115.352 20.781 C 113.576 19.481,111.209 18.319,109.880 18.095 C 106.957 17.603,105.296 17.496,103.333 17.675 M139.750 17.614 C 137.934 17.799,136.056 18.524,134.952 19.466 C 133.900 20.362,132.167 22.136,132.167 22.316 C 132.167 22.417,132.092 22.500,132.000 22.500 C 131.898 22.500,131.833 21.693,131.833 20.412 L 131.833 18.324 129.458 18.370 L 127.083 18.417 127.041 35.292 L 126.998 52.167 129.338 52.167 C 131.062 52.167,131.695 52.112,131.746 51.958 C 131.784 51.844,131.847 47.587,131.888 42.500 C 131.928 37.412,131.999 33.100,132.045 32.917 C 132.090 32.733,132.179 32.073,132.242 31.450 C 132.839 25.512,137.290 20.891,140.942 22.417 C 141.271 22.554,141.669 22.667,141.827 22.667 C 142.155 22.667,144.357 19.088,144.231 18.759 C 144.029 18.235,141.073 17.479,139.750 17.614 M160.750 17.613 C 160.292 17.643,159.429 17.751,158.833 17.853 C 158.237 17.955,157.533 18.067,157.268 18.102 C 157.002 18.137,156.702 18.228,156.601 18.304 C 156.500 18.380,156.094 18.534,155.700 18.647 C 152.032 19.696,147.755 23.896,145.762 28.405 C 143.919 32.574,144.090 38.526,146.180 42.985 C 151.254 53.813,165.234 56.407,173.758 48.102 L 174.992 46.900 175.038 49.492 L 175.083 52.083 177.333 52.083 L 179.583 52.083 179.626 35.204 L 179.668 18.324 177.376 18.370 L 175.083 18.417 175.000 21.228 L 174.917 24.039 174.392 23.311 C 172.782 21.079,168.772 18.501,166.250 18.077 C 165.975 18.031,165.375 17.925,164.917 17.842 C 163.869 17.652,161.840 17.540,160.750 17.613 M209.583 17.663 C 201.255 18.698,198.518 28.707,205.155 33.852 C 205.849 34.390,206.495 34.894,206.592 34.974 C 206.688 35.053,207.888 35.735,209.258 36.490 C 210.629 37.245,211.975 37.988,212.250 38.140 C 212.525 38.292,212.805 38.492,212.872 38.583 C 212.940 38.675,212.996 38.694,212.997 38.625 C 212.999 38.556,213.141 38.631,213.314 38.792 C 213.486 38.952,213.855 39.271,214.134 39.500 C 217.502 42.267,215.615 47.572,211.000 48.313 C 208.485 48.717,205.924 47.746,203.840 45.599 C 202.935 44.666,202.949 44.666,202.138 45.542 C 201.005 46.765,200.745 47.068,200.361 47.618 L 199.988 48.152 200.619 48.866 C 200.966 49.259,201.325 49.657,201.417 49.752 C 203.781 52.199,209.065 53.563,212.750 52.677 C 214.855 52.171,218.500 49.765,218.500 48.881 C 218.500 48.763,218.575 48.667,218.667 48.667 C 218.758 48.667,218.833 48.590,218.833 48.497 C 218.833 48.403,219.026 48.021,219.262 47.648 C 221.857 43.537,220.157 37.927,215.325 34.656 C 213.730 33.576,213.689 33.552,212.417 32.917 C 207.069 30.247,205.298 28.108,206.029 25.203 C 206.746 22.355,211.539 21.031,214.148 22.960 C 214.391 23.139,214.742 23.335,214.927 23.394 C 215.113 23.453,215.712 23.911,216.257 24.412 C 217.487 25.541,217.229 25.591,218.865 23.907 C 220.529 22.194,220.530 22.191,219.653 21.480 C 219.270 21.170,218.836 20.801,218.687 20.660 C 216.508 18.593,212.559 17.294,209.583 17.663 M255.917 17.744 C 253.371 18.218,250.666 20.060,249.185 22.327 C 248.929 22.718,248.913 22.636,248.833 20.577 L 248.750 18.417 246.750 18.368 C 245.650 18.342,244.600 18.357,244.417 18.403 C 244.086 18.485,244.084 18.608,244.122 35.284 L 244.161 52.083 246.475 52.129 L 248.788 52.176 248.881 43.463 C 249.002 32.056,249.317 29.072,250.668 26.551 C 252.481 23.168,255.538 21.451,257.996 22.435 C 258.854 22.778,259.042 22.694,259.598 21.719 C 259.850 21.278,260.186 20.767,260.345 20.583 C 260.698 20.177,261.333 19.050,261.333 18.831 C 261.333 18.516,259.180 17.767,257.833 17.612 C 257.421 17.565,256.558 17.624,255.917 17.744 M277.750 17.606 C 277.091 17.658,274.544 17.987,273.936 18.099 C 271.626 18.522,267.018 21.423,266.045 23.067 C 265.975 23.187,265.579 23.676,265.167 24.155 C 264.511 24.916,263.985 25.731,263.387 26.917 C 263.294 27.100,263.132 27.418,263.026 27.622 C 260.710 32.104,260.986 39.354,263.656 44.161 C 267.020 50.216,271.827 52.939,279.083 52.900 C 283.383 52.876,284.467 52.598,288.497 50.483 C 289.764 49.819,293.050 46.651,293.582 45.583 C 293.764 45.217,294.195 44.474,294.540 43.932 C 295.314 42.716,295.314 42.648,294.542 42.269 C 294.198 42.101,293.804 41.908,293.667 41.841 C 293.529 41.774,292.989 41.483,292.467 41.193 C 291.269 40.529,291.280 40.528,290.782 41.375 C 290.553 41.765,290.200 42.271,289.998 42.500 C 289.797 42.729,289.400 43.254,289.117 43.667 C 288.655 44.339,288.227 44.773,286.876 45.936 C 286.496 46.264,286.083 46.509,284.465 47.366 C 282.147 48.594,277.771 48.917,274.833 48.078 C 273.950 47.826,272.502 47.082,271.675 46.454 C 270.476 45.544,268.769 43.792,268.424 43.115 C 268.275 42.823,268.012 42.348,267.840 42.061 C 267.345 41.231,266.534 38.676,266.420 37.583 C 266.363 37.033,266.281 36.415,266.238 36.209 L 266.161 35.835 281.205 35.793 L 296.250 35.750 296.268 35.083 C 296.350 32.011,294.931 27.346,293.134 24.778 C 291.034 21.779,286.456 18.548,283.667 18.097 C 281.076 17.679,279.004 17.507,277.750 17.606 M317.333 17.612 C 314.632 17.919,313.560 18.104,312.510 18.441 C 311.298 18.831,309.138 19.918,309.028 20.194 C 308.997 20.271,308.898 20.333,308.808 20.333 C 308.296 20.333,303.833 24.616,303.833 25.107 C 303.833 25.232,303.775 25.333,303.704 25.333 C 303.401 25.333,301.447 29.585,301.237 30.704 C 300.774 33.161,300.712 33.803,300.756 35.667 C 300.808 37.877,301.060 39.331,301.730 41.286 C 302.087 42.327,302.354 42.878,303.402 44.750 C 303.663 45.215,304.224 46.067,304.335 46.167 C 304.386 46.212,304.576 46.438,304.756 46.667 C 305.053 47.045,307.571 49.434,308.241 49.974 C 310.948 52.154,316.533 53.428,320.750 52.827 C 322.630 52.559,326.738 50.997,327.333 50.322 C 327.379 50.270,327.766 49.990,328.193 49.700 C 328.619 49.410,329.501 48.652,330.151 48.015 L 331.333 46.859 331.333 49.513 L 331.333 52.167 333.583 52.167 C 334.972 52.167,335.834 52.103,335.834 52.000 C 335.835 51.908,335.835 44.371,335.835 35.250 C 335.835 26.129,335.835 18.589,335.834 18.495 C 335.834 18.384,335.057 18.340,333.625 18.370 L 331.417 18.417 331.371 21.208 C 331.344 22.881,331.260 24.000,331.163 24.000 C 331.073 24.000,331.000 23.904,331.000 23.788 C 331.000 23.526,329.272 21.721,328.395 21.066 C 328.040 20.802,327.712 20.541,327.667 20.487 C 326.324 18.897,320.437 17.260,317.333 17.612 M358.583 17.609 C 355.884 17.835,353.379 18.751,351.595 20.162 C 350.864 20.742,348.456 23.253,348.327 23.572 C 348.244 23.778,348.184 22.796,348.177 21.125 L 348.167 18.333 345.916 18.333 L 343.665 18.333 343.708 35.208 L 343.750 52.083 345.958 52.130 L 348.167 52.176 348.173 44.880 C 348.183 32.856,348.691 28.910,350.534 26.561 C 353.781 22.419,359.593 20.853,362.758 23.267 C 363.046 23.487,363.331 23.667,363.391 23.667 C 363.811 23.667,365.286 25.807,365.650 26.946 C 365.963 27.929,366.233 30.559,366.245 32.750 C 366.249 33.392,366.270 38.025,366.293 43.046 L 366.333 52.176 368.625 52.130 L 370.917 52.083 371.023 42.917 C 371.081 37.875,371.177 33.487,371.237 33.167 C 371.296 32.846,371.458 31.871,371.597 31.000 C 372.824 23.287,381.833 19.385,387.042 24.310 C 387.385 24.635,387.667 24.974,387.667 25.062 C 387.667 25.151,387.766 25.342,387.888 25.487 C 388.187 25.841,388.616 27.081,388.757 28.000 C 388.821 28.412,388.910 28.900,388.956 29.083 C 389.001 29.267,389.072 34.442,389.112 40.583 C 389.152 46.725,389.216 51.844,389.254 51.958 C 389.305 52.111,389.923 52.167,391.586 52.167 L 393.849 52.167 393.788 40.458 C 393.754 34.019,393.676 28.450,393.613 28.083 C 392.441 21.200,388.539 17.612,382.250 17.637 C 378.675 17.651,375.862 18.781,373.149 21.293 C 372.206 22.166,371.860 22.592,370.654 24.366 L 370.122 25.148 369.293 23.468 C 367.921 20.686,364.753 18.004,362.833 17.999 C 362.604 17.999,362.154 17.930,361.833 17.848 C 361.094 17.657,359.450 17.536,358.583 17.609 M281.667 22.433 C 283.346 22.798,285.712 23.848,286.625 24.634 C 287.861 25.697,288.138 25.972,288.673 26.667 C 289.396 27.606,289.576 27.898,290.006 28.833 C 290.634 30.196,291.000 31.188,291.000 31.525 C 291.000 31.603,285.561 31.667,278.913 31.667 L 266.827 31.667 266.939 31.208 C 268.088 26.497,272.463 22.653,277.167 22.223 C 277.762 22.169,278.285 22.092,278.329 22.053 C 278.451 21.942,280.464 22.171,281.667 22.433 M68.151 22.580 C 68.647 22.735,69.448 23.043,69.932 23.264 C 70.416 23.486,70.860 23.667,70.918 23.667 C 70.976 23.667,71.374 23.905,71.803 24.197 C 79.660 29.535,79.089 42.200,70.811 46.218 C 66.905 48.114,62.126 48.167,58.366 46.356 C 56.676 45.542,56.500 45.442,56.500 45.294 C 56.500 45.224,56.409 45.167,56.298 45.167 C 55.993 45.167,53.894 42.934,53.243 41.917 C 52.552 40.837,51.961 39.241,51.579 37.422 C 51.096 35.122,52.251 29.164,53.341 28.333 C 53.401 28.287,53.656 27.922,53.907 27.522 C 55.450 25.058,58.810 23.006,62.500 22.274 C 63.415 22.093,67.257 22.301,68.151 22.580 M107.265 22.393 C 114.399 23.649,119.215 31.110,117.568 38.352 C 116.468 43.186,112.390 47.414,108.167 48.099 C 108.029 48.121,107.542 48.200,107.083 48.273 C 103.088 48.915,98.848 47.592,96.250 44.893 C 94.663 43.244,93.649 41.719,93.330 40.500 C 93.222 40.087,93.057 39.656,92.963 39.542 C 92.869 39.427,92.836 39.333,92.889 39.333 C 92.942 39.333,92.870 39.015,92.729 38.625 C 92.570 38.185,92.452 37.158,92.416 35.917 C 92.360 33.965,92.404 33.632,93.115 30.706 C 93.165 30.498,93.273 30.288,93.353 30.238 C 93.434 30.188,93.500 30.013,93.500 29.849 C 93.500 28.829,96.809 25.029,98.583 24.010 C 101.429 22.376,104.220 21.857,107.265 22.393 M165.100 22.402 C 166.477 22.692,168.938 23.738,169.615 24.321 C 172.339 26.668,172.728 27.126,173.930 29.417 C 175.546 32.496,175.734 36.968,174.390 40.403 C 172.196 46.015,166.666 49.181,160.346 48.443 C 159.758 48.374,159.213 48.279,159.135 48.231 C 159.058 48.183,158.789 48.110,158.539 48.069 C 156.909 47.802,153.973 45.825,152.433 43.957 C 150.292 41.361,149.346 38.658,149.365 35.194 C 149.375 33.210,149.467 32.632,150.057 30.833 C 150.452 29.628,150.730 29.000,150.870 29.000 C 150.941 29.000,151.000 28.920,151.000 28.822 C 151.000 27.843,155.400 23.500,156.391 23.500 C 156.453 23.500,156.822 23.357,157.210 23.182 C 157.912 22.865,159.279 22.414,159.917 22.289 C 160.847 22.107,164.025 22.176,165.100 22.402 M321.333 22.417 C 329.557 24.147,333.906 33.266,330.316 41.250 C 329.964 42.031,329.504 42.812,329.204 43.136 C 329.088 43.262,328.887 43.568,328.759 43.816 C 328.565 44.191,327.390 45.354,326.750 45.805 C 325.318 46.813,322.833 48.150,322.833 47.912 C 322.833 47.873,322.644 47.914,322.412 48.002 C 321.520 48.341,318.668 48.695,317.750 48.581 C 316.305 48.400,315.803 48.308,315.083 48.092 C 314.671 47.967,314.333 47.895,314.333 47.931 C 314.333 48.110,312.333 47.076,311.438 46.434 C 307.118 43.333,304.777 37.955,305.701 33.250 C 307.221 25.503,313.924 20.858,321.333 22.417 M36.375 37.083 C 36.377 37.450,36.411 37.580,36.451 37.373 C 36.491 37.166,36.490 36.866,36.448 36.706 C 36.406 36.547,36.374 36.717,36.375 37.083 " stroke="none" fill="#4c849c" fill-rule="evenodd"></path><path id="path2" d="M21.917 17.603 C 15.994 18.126,12.289 20.185,8.756 24.917 C 5.890 28.754,4.877 35.068,6.281 40.341 C 8.792 49.776,18.982 55.253,28.248 52.148 C 30.616 51.355,32.644 50.142,34.437 48.446 L 35.991 46.976 36.037 49.530 L 36.083 52.083 38.375 52.130 L 40.667 52.176 40.667 35.250 L 40.667 18.324 38.375 18.370 L 36.083 18.417 36.038 21.124 L 35.992 23.831 34.872 22.644 C 31.422 18.986,26.765 17.174,21.917 17.603 M343.580 35.250 C 343.580 44.508,343.600 48.320,343.625 43.721 C 343.650 39.122,343.650 31.547,343.625 26.888 C 343.600 22.229,343.580 25.992,343.580 35.250 M27.083 22.664 C 32.597 24.409,35.865 28.768,36.334 35.000 C 36.544 37.800,36.540 37.936,36.237 38.239 C 36.082 38.394,35.953 38.862,35.923 39.376 C 35.866 40.334,35.555 41.167,35.254 41.167 C 35.018 41.167,34.458 42.297,34.590 42.510 C 34.749 42.768,33.695 44.137,32.780 44.860 C 26.733 49.642,20.777 49.789,14.458 45.312 C 13.652 44.741,12.514 43.368,12.403 42.833 C 12.355 42.604,12.189 42.158,12.033 41.842 C 11.877 41.526,11.771 41.202,11.796 41.122 C 11.821 41.041,11.780 41.013,11.705 41.060 C 11.315 41.300,10.648 40.007,10.787 39.281 C 10.839 39.006,10.735 38.630,10.502 38.254 C 9.639 36.857,10.523 31.651,12.132 28.667 C 14.855 23.612,21.566 20.918,27.083 22.664 " stroke="none" fill="#0c3c5c" fill-rule="evenodd"></path><path id="path3" d="M244.080 35.250 C 244.080 44.325,244.100 48.013,244.125 43.446 C 244.150 38.878,244.150 31.453,244.125 26.946 C 244.100 22.438,244.080 26.175,244.080 35.250 M335.913 35.250 C 335.913 44.325,335.934 48.013,335.958 43.446 C 335.983 38.878,335.983 31.453,335.958 26.946 C 335.934 22.438,335.913 26.175,335.913 35.250 M366.244 42.917 C 366.244 47.867,366.266 49.868,366.292 47.363 C 366.318 44.859,366.317 40.809,366.292 38.363 C 366.266 35.918,366.244 37.967,366.244 42.917 M331.539 35.500 C 331.539 35.821,331.573 35.952,331.615 35.792 C 331.657 35.631,331.657 35.369,331.615 35.208 C 331.573 35.048,331.539 35.179,331.539 35.500 M248.875 38.583 C 248.877 38.950,248.911 39.080,248.951 38.873 C 248.991 38.666,248.990 38.366,248.948 38.206 C 248.906 38.047,248.874 38.217,248.875 38.583 " stroke="none" fill="#4c5ca0" fill-rule="evenodd"></path><path id="path4" d="M389.078 42.333 C 389.078 47.512,389.099 49.631,389.125 47.042 C 389.151 44.452,389.151 40.215,389.125 37.625 C 389.099 35.035,389.078 37.154,389.078 42.333 M162.042 48.615 C 162.202 48.657,162.465 48.657,162.625 48.615 C 162.785 48.573,162.654 48.539,162.333 48.539 C 162.012 48.539,161.881 48.573,162.042 48.615 M278.294 48.618 C 278.501 48.658,278.801 48.656,278.960 48.615 C 279.120 48.573,278.950 48.540,278.583 48.542 C 278.217 48.544,278.086 48.578,278.294 48.618 M318.208 48.615 C 318.369 48.657,318.631 48.657,318.792 48.615 C 318.952 48.573,318.821 48.539,318.500 48.539 C 318.179 48.539,318.048 48.573,318.208 48.615 " stroke="none" fill="#4cc0c0" fill-rule="evenodd"></path></g></svg>