<?xml version="1.0" standalone="no"?>
<!DOCTYPE svg PUBLIC "-//W3C//DTD SVG 20010904//EN"
 "http://www.w3.org/TR/2001/REC-SVG-20010904/DTD/svg10.dtd">
<svg version="1.0" xmlns="http://www.w3.org/2000/svg"
 width="9432.000000pt" height="2873.000000pt" viewBox="0 0 9432.000000 2873.000000"
 preserveAspectRatio="xMidYMid meet">
<metadata>
Created by potrace 1.16, written by Peter Selinger 2001-2019
</metadata>
<g transform="translate(0.000000,2873.000000) scale(0.100000,-0.100000)"
fill="#000000" stroke="none">
<path d="M10100 24229 c-2015 -91 -3758 -803 -5280 -2157 -200 -178 -569 -544
-747 -742 -1152 -1280 -1852 -2708 -2128 -4338 -128 -757 -160 -1633 -89
-2472 167 -2000 950 -3769 2322 -5246 1193 -1284 2584 -2133 4137 -2523 1037
-261 2206 -326 3315 -186 2119 269 3966 1313 5495 3109 l110 128 3 -1436 2
-1436 1075 0 1075 0 0 8435 0 8435 -1075 0 -1075 0 -2 -1535 -3 -1536 -95 128
c-460 620 -1032 1221 -1587 1670 -1042 842 -2242 1379 -3573 1597 -590 96
-1252 134 -1880 105z m1090 -2110 c1237 -74 2383 -473 3345 -1164 478 -344
961 -797 1340 -1260 823 -1003 1308 -2177 1459 -3530 35 -308 41 -448 41 -890
0 -442 -6 -575 -41 -885 -206 -1848 -1096 -3448 -2506 -4505 -1004 -752 -2203
-1230 -3413 -1359 -385 -41 -969 -46 -1325 -12 -1108 108 -2109 469 -3050
1099 -348 233 -622 458 -934 765 -342 338 -629 686 -887 1078 -991 1500 -1381
3176 -1133 4869 105 721 313 1379 649 2060 271 549 588 1033 969 1481 131 154
519 544 666 670 896 768 1960 1280 3095 1488 552 101 1110 132 1725 95z"/>
<path d="M30920 24230 c-1387 -71 -2685 -456 -3913 -1159 -720 -412 -1308
-860 -1877 -1430 -656 -657 -1175 -1383 -1605 -2241 -545 -1089 -838 -2198
-906 -3430 -23 -425 -3 -1097 46 -1535 213 -1887 1049 -3640 2360 -4950 1271
-1272 3050 -2173 4835 -2449 460 -71 765 -96 1260 -103 636 -9 1102 25 1667
122 1487 256 2892 896 4006 1828 389 324 790 730 1111 1121 l98 120 -5 -815
c-5 -795 -10 -952 -42 -1404 -89 -1242 -311 -2161 -680 -2810 -189 -333 -396
-604 -690 -904 -266 -271 -552 -506 -885 -726 -1031 -682 -2086 -1015 -3565
-1127 -228 -17 -1189 -17 -1420 0 -1519 113 -2622 456 -3595 1119 -714 487
-1373 1204 -1845 2006 l-80 136 -1187 0 -1187 1 52 -113 c88 -190 328 -662
442 -867 555 -1000 1132 -1739 1785 -2287 950 -798 2269 -1412 3717 -1733
1227 -271 2712 -348 4053 -210 1929 199 3611 893 4855 2001 176 157 501 492
648 668 531 634 918 1317 1222 2151 316 866 503 2084 575 3740 27 611 30 1462
30 8013 l0 6837 -1100 0 -1100 0 0 -1455 0 -1455 -174 198 c-1001 1138 -2029
1942 -3109 2432 -772 349 -1565 568 -2417 664 -384 44 -1013 65 -1380 46z
m920 -2100 c937 -36 1774 -237 2590 -620 1212 -570 2141 -1408 2790 -2515 175
-298 380 -743 502 -1090 331 -937 455 -2058 353 -3180 -143 -1562 -705 -2832
-1710 -3864 -986 -1012 -2261 -1623 -3783 -1810 -1348 -167 -2701 -26 -3815
398 -1529 582 -2806 1798 -3449 3286 -465 1074 -624 2388 -442 3655 211 1477
944 2898 2014 3905 1188 1118 2773 1773 4440 1835 107 4 206 7 220 8 14 1 144
-3 290 -8z"/>
<path d="M51590 24229 c-918 -38 -1819 -209 -2610 -494 -1333 -481 -2479
-1276 -3491 -2420 -959 -1086 -1616 -2307 -1959 -3640 -257 -998 -346 -2118
-255 -3185 168 -1946 922 -3670 2269 -5185 1318 -1482 2929 -2372 4861 -2685
771 -125 1654 -159 2462 -95 2312 184 4185 1116 5690 2831 1238 1412 1964
2996 2187 4779 81 642 92 1426 30 2105 -160 1760 -791 3335 -1887 4709 -1092
1367 -2434 2332 -3952 2839 -1024 342 -2153 491 -3345 441z m1080 -2153 c663
-68 1244 -213 1815 -454 816 -343 1592 -896 2263 -1612 1061 -1132 1666 -2449
1816 -3955 37 -369 48 -894 26 -1240 -62 -950 -303 -1838 -731 -2685 -736
-1459 -1884 -2521 -3359 -3105 -636 -252 -1270 -393 -2000 -445 -197 -14 -718
-15 -920 -1 -751 53 -1441 210 -2085 476 -204 84 -619 289 -800 395 -925 543
-1670 1286 -2232 2226 -666 1112 -993 2301 -993 3604 1 1933 673 3562 2031
4919 1036 1035 2230 1647 3594 1840 119 17 339 40 530 55 133 10 898 -3 1045
-18z"/>
<path d="M69630 24233 c-745 -51 -1388 -264 -2032 -675 -725 -461 -1434 -1178
-2058 -2076 l-85 -123 -3 1221 -2 1220 -1115 0 -1115 0 0 -8435 0 -8435 1115
0 1115 0 0 3183 c0 3473 7 4210 50 5232 57 1343 167 2371 321 2990 41 165 120
426 191 635 300 878 695 1569 1183 2069 546 560 1191 926 1832 1040 478 85
855 36 1422 -185 91 -36 170 -63 176 -60 11 4 1117 1785 1130 1819 8 18 -333
193 -565 290 -535 222 -1078 324 -1560 290z"/>
<path d="M80325 24229 c-1735 -78 -3312 -635 -4656 -1646 -388 -292 -632 -506
-1015 -888 -311 -310 -502 -521 -729 -805 -1375 -1716 -1999 -3755 -1864
-6090 96 -1665 603 -3180 1498 -4475 332 -481 689 -906 1125 -1340 1350 -1343
2908 -2139 4696 -2399 694 -101 1493 -119 2215 -50 2208 211 4144 1259 5718
3096 l152 177 3 -1440 2 -1439 1075 0 1075 0 0 8435 0 8435 -1075 0 -1075 0 0
-1541 0 -1541 -147 193 c-945 1251 -2050 2146 -3318 2691 -1103 474 -2350 686
-3680 627z m851 -2099 c556 -20 1008 -82 1494 -205 908 -228 1749 -660 2486
-1277 1335 -1118 2149 -2583 2378 -4279 168 -1243 46 -2509 -344 -3579 -319
-875 -793 -1635 -1420 -2274 -252 -257 -433 -416 -712 -627 -932 -703 -2064
-1177 -3183 -1333 -379 -53 -501 -61 -955 -61 -456 0 -591 9 -950 61 -1503
218 -2937 999 -3956 2154 -415 471 -759 991 -1060 1605 -183 375 -303 671
-407 1010 -200 647 -291 1210 -304 1880 -26 1317 311 2554 1015 3725 610 1016
1422 1808 2432 2372 936 523 1967 803 3065 831 55 2 114 4 130 5 17 1 148 -3
291 -8z"/>
</g>
</svg>
