<svg id="svg" version="1.1" xmlns="http://www.w3.org/2000/svg" xmlns:xlink="http://www.w3.org/1999/xlink" width="400" height="121.84054283290925" viewBox="0, 0, 400,121.84054283290925"><g id="svgg"><path id="path0" d="M19.667 58.154 C 18.489 58.386,17.167 59.116,17.167 59.532 C 17.167 59.976,17.630 62.685,17.721 62.776 C 17.754 62.810,18.065 62.645,18.411 62.410 C 19.767 61.490,21.720 61.137,22.833 61.610 C 23.988 62.101,24.834 62.580,25.949 63.373 C 30.601 66.681,35.144 66.899,39.379 64.018 C 40.569 63.209,42.468 62.037,42.750 61.938 C 45.336 61.030,47.786 61.504,49.917 63.323 C 54.254 67.029,59.377 67.000,64.833 63.241 C 68.123 60.975,69.429 60.838,71.895 62.503 C 73.139 63.342,73.211 63.266,73.488 60.819 C 73.651 59.380,73.670 59.409,72.000 58.608 C 69.414 57.369,65.591 58.113,63.002 60.358 C 61.475 61.682,58.146 62.979,56.818 62.767 C 55.771 62.599,53.659 61.820,53.004 61.360 C 52.657 61.116,51.911 60.595,51.345 60.201 C 46.988 57.171,42.977 57.268,38.500 60.512 C 34.464 63.438,31.817 63.414,27.711 60.415 C 24.873 58.342,22.330 57.627,19.667 58.154 M19.402 65.482 C 18.465 65.797,18.472 65.728,19.198 67.557 L 19.717 68.865 20.233 68.729 C 20.906 68.552,22.857 68.604,22.984 68.801 C 23.039 68.886,23.262 69.011,23.481 69.079 C 23.937 69.222,25.785 70.362,26.182 70.746 C 28.355 72.847,33.203 73.865,36.240 72.858 C 37.655 72.389,40.879 70.528,41.500 69.822 C 41.703 69.591,43.175 68.988,44.167 68.729 C 45.748 68.317,47.169 68.762,49.720 70.469 C 53.366 72.909,54.287 73.245,57.333 73.244 C 60.246 73.244,61.187 72.900,64.671 70.560 C 67.798 68.459,68.488 68.239,70.151 68.815 C 70.710 69.008,71.199 69.167,71.236 69.167 C 71.336 69.167,72.333 66.511,72.333 66.244 C 72.333 65.703,70.841 65.274,68.917 65.261 C 66.774 65.248,65.963 65.555,63.250 67.406 C 60.704 69.143,58.755 70.000,57.349 70.000 C 55.958 70.000,53.133 68.821,51.587 67.595 C 47.509 64.361,43.079 64.459,38.204 67.889 C 34.208 70.701,32.074 70.642,27.667 67.599 C 24.386 65.334,21.808 64.674,19.402 65.482 M67.250 72.576 C 66.164 72.845,64.483 73.701,63.333 74.571 C 58.945 77.891,55.936 78.011,51.856 75.028 C 49.112 73.022,47.929 72.590,45.167 72.587 C 42.267 72.584,41.597 72.842,37.917 75.386 C 34.239 77.928,30.889 77.674,27.333 74.584 C 26.007 73.431,21.833 71.941,21.833 72.620 C 21.833 73.096,24.891 76.907,25.950 77.750 C 30.609 81.461,34.826 81.494,40.333 77.864 C 44.369 75.203,46.098 75.209,50.000 77.896 C 51.519 78.943,53.605 79.984,54.461 80.123 C 54.762 80.172,55.048 80.276,55.097 80.356 C 55.280 80.651,59.023 80.515,60.114 80.173 C 63.561 79.092,67.106 76.394,68.980 73.426 C 69.733 72.232,69.367 72.053,67.250 72.576 M399.642 83.708 C 399.334 84.906,399.377 87.889,399.715 88.750 C 399.967 89.392,399.977 89.294,399.988 86.125 C 400.001 82.554,399.979 82.398,399.642 83.708 " stroke="none" fill="#bcd4db" fill-rule="evenodd"></path><path id="path1" d="M40.000 19.185 C 33.821 19.886,25.423 23.386,22.210 26.600 C 22.068 26.741,21.457 27.255,20.851 27.742 C 15.405 32.118,10.577 39.714,8.854 46.619 C 2.318 72.817,22.501 97.004,48.536 94.173 C 57.723 93.174,65.092 89.285,71.878 81.855 L 73.000 80.626 73.000 86.563 L 73.000 92.500 77.667 92.500 L 82.333 92.500 82.333 56.667 L 82.333 20.833 77.669 20.833 L 73.004 20.833 72.960 27.191 L 72.917 33.549 71.918 32.233 C 64.541 22.515,52.834 17.729,40.000 19.185 M49.171 28.339 C 56.512 29.233,62.708 32.761,67.471 38.756 C 68.051 39.486,68.623 40.205,68.743 40.354 C 70.170 42.126,72.053 46.507,72.819 49.833 C 73.666 53.516,73.937 59.821,73.351 62.250 C 73.263 62.617,73.001 63.627,72.770 64.494 C 72.539 65.362,72.377 66.099,72.411 66.133 C 72.858 66.580,68.925 73.982,67.212 75.918 C 57.256 87.166,39.675 88.868,28.222 79.693 C 25.283 77.338,21.933 73.749,21.813 72.826 C 21.801 72.738,21.782 72.610,21.771 72.542 C 21.759 72.473,21.590 72.192,21.395 71.917 C 20.372 70.471,18.824 67.017,18.334 65.083 C 18.055 63.983,17.756 62.933,17.671 62.750 C 17.020 61.351,17.016 54.279,17.665 51.255 C 20.927 36.060,34.072 26.499,49.171 28.339 " stroke="none" fill="#0c3c5c" fill-rule="evenodd"></path><path id="path2" d="M128.500 19.187 C 119.756 20.190,110.694 25.010,104.878 31.750 C 100.443 36.890,97.438 43.208,96.317 49.750 C 95.498 54.528,95.824 62.159,97.007 65.917 C 99.962 75.299,104.288 81.289,111.706 86.266 C 127.222 96.678,149.050 93.803,160.543 79.833 L 161.160 79.083 161.163 81.250 C 161.168 86.523,160.604 92.600,159.837 95.529 C 156.842 106.962,144.330 113.306,128.161 111.590 C 118.965 110.614,111.801 106.236,107.490 98.958 L 106.922 98.000 101.794 98.000 C 98.974 98.000,96.667 98.029,96.667 98.065 C 96.667 98.785,100.799 105.806,102.423 107.846 C 109.465 116.693,121.915 121.298,136.625 120.498 C 154.600 119.520,166.270 110.233,169.399 94.417 C 170.431 89.199,170.500 86.549,170.500 52.128 L 170.500 20.833 165.833 20.833 L 161.167 20.833 161.167 26.946 L 161.167 33.058 159.964 31.737 C 151.025 21.925,140.661 17.791,128.500 19.187 M216.000 19.183 C 209.762 19.878,203.079 22.456,198.907 25.774 C 198.271 26.280,197.450 26.931,197.083 27.221 C 182.361 38.852,178.906 62.031,189.539 77.833 C 197.718 89.989,210.141 95.697,225.105 94.174 C 248.891 91.753,263.672 67.643,255.917 43.917 C 255.025 41.189,251.639 34.936,250.228 33.414 C 250.057 33.229,249.544 32.629,249.089 32.081 C 241.034 22.370,229.107 17.721,216.000 19.183 M292.667 19.316 C 287.393 20.482,283.062 23.735,278.208 30.175 L 277.667 30.894 277.667 25.864 L 277.667 20.833 272.833 20.833 L 268.000 20.833 268.000 56.667 L 268.000 92.500 272.833 92.500 L 277.667 92.500 277.667 76.208 C 277.667 49.558,278.101 45.160,281.427 38.034 C 285.037 30.305,292.996 26.189,298.700 29.103 C 299.457 29.490,299.614 29.384,300.513 27.875 C 300.992 27.073,301.698 25.929,302.083 25.333 C 303.334 23.396,304.333 21.694,304.333 21.500 C 304.333 21.243,301.474 19.923,299.968 19.486 C 298.198 18.971,294.606 18.888,292.667 19.316 M338.500 19.113 C 314.757 21.541,299.633 46.165,307.566 69.475 C 309.192 74.250,312.247 79.316,315.524 82.667 C 323.270 90.588,330.747 94.006,340.938 94.286 C 352.175 94.593,360.822 91.041,368.646 82.901 L 370.833 80.625 370.833 86.562 L 370.833 92.500 375.500 92.500 L 380.167 92.500 380.167 56.667 L 380.167 20.833 375.502 20.833 L 370.837 20.833 370.794 27.175 L 370.750 33.516 370.250 32.869 C 367.845 29.759,365.209 27.184,362.000 24.813 C 356.200 20.526,346.853 18.259,338.500 19.113 M348.083 28.492 C 371.776 32.304,379.955 63.968,361.221 79.352 C 354.675 84.728,344.719 87.022,336.833 84.970 C 336.146 84.791,335.471 84.618,335.333 84.584 C 334.844 84.465,333.232 83.860,332.066 83.357 C 325.560 80.552,319.465 74.137,317.079 67.583 C 316.912 67.125,316.722 66.675,316.655 66.583 C 315.644 65.184,314.680 58.275,314.993 54.667 C 316.481 37.534,331.322 25.795,348.083 28.492 M139.750 28.665 C 151.491 31.176,159.935 40.342,161.322 52.083 C 163.170 67.723,154.530 80.348,140.171 82.991 C 132.423 84.417,122.913 83.042,118.228 79.818 C 117.840 79.551,117.467 79.333,117.399 79.333 C 116.408 79.333,111.120 74.077,109.338 71.320 C 104.934 64.506,103.954 53.507,107.113 46.337 C 111.820 35.651,119.669 29.631,130.667 28.271 C 132.327 28.065,138.123 28.317,139.750 28.665 M226.667 28.885 C 245.704 33.452,254.701 56.582,243.793 72.917 C 241.997 75.607,241.729 75.945,240.207 77.451 C 234.166 83.428,225.187 86.404,216.917 85.172 C 214.754 84.850,214.584 84.819,214.167 84.664 C 213.938 84.578,213.563 84.475,213.333 84.434 C 208.241 83.517,201.614 78.878,198.105 73.774 C 185.949 56.091,196.225 31.543,217.083 28.438 C 218.770 28.187,224.961 28.476,226.667 28.885 " stroke="none" fill="#4c849c" fill-rule="evenodd"></path><path id="path3" d="" stroke="none" fill="#4c5ca0" fill-rule="evenodd"></path><path id="path4" d="" stroke="none" fill="#4cc0c0" fill-rule="evenodd"></path></g></svg>