<?xml version="1.0" standalone="no"?>
<!DOCTYPE svg PUBLIC "-//W3C//DTD SVG 20010904//EN"
 "http://www.w3.org/TR/2001/REC-SVG-20010904/DTD/svg10.dtd">
<svg version="1.0" xmlns="http://www.w3.org/2000/svg"
 width="2123.000000pt" height="2221.000000pt" viewBox="0 0 2123.000000 2221.000000"
 preserveAspectRatio="xMidYMid meet">
<metadata>
Created by potrace 1.16, written by Peter Selinger 2001-2019
</metadata>
<g transform="translate(0.000000,2221.000000) scale(0.100000,-0.100000)"
fill="#000000" stroke="none">
<path d="M9420 19779 c-2015 -91 -3758 -803 -5280 -2157 -200 -178 -569 -544
-747 -742 -1152 -1280 -1852 -2708 -2128 -4338 -128 -757 -160 -1633 -89
-2472 167 -2000 950 -3769 2322 -5246 1193 -1284 2584 -2133 4137 -2523 1037
-261 2206 -326 3315 -186 2119 269 3966 1313 5495 3109 l110 128 3 -1436 2
-1436 1075 0 1075 0 0 8435 0 8435 -1075 0 -1075 0 -2 -1535 -3 -1536 -95 128
c-460 620 -1032 1221 -1587 1670 -1042 842 -2242 1379 -3573 1597 -590 96
-1252 134 -1880 105z m1090 -2110 c1237 -74 2383 -473 3345 -1164 478 -344
961 -797 1340 -1260 497 -605 883 -1298 1131 -2028 189 -558 298 -1105 356
-1787 15 -179 17 -1069 2 -1164 l-9 -58 -63 46 c-34 25 -69 46 -77 46 -8 0
-15 5 -15 10 0 6 -13 10 -30 10 -21 0 -39 10 -61 35 -18 19 -35 33 -37 30 -3
-3 -16 4 -28 16 -13 12 -30 19 -38 16 -8 -3 -20 1 -26 9 -7 8 -23 14 -35 14
-12 0 -28 7 -35 15 -7 8 -20 15 -30 15 -10 0 -23 7 -30 15 -7 8 -27 15 -46 15
-18 0 -36 5 -39 10 -3 6 -23 10 -44 10 -22 0 -44 6 -51 15 -8 9 -30 15 -59 15
-26 0 -52 5 -57 10 -7 7 -112 9 -310 6 -324 -4 -405 -11 -417 -32 -5 -9 -25
-14 -52 -14 -25 0 -45 -4 -45 -10 0 -5 -15 -10 -34 -10 -21 0 -36 -6 -40 -15
-3 -9 -18 -15 -34 -15 -16 0 -35 -7 -42 -15 -7 -8 -21 -15 -31 -15 -10 0 -21
-4 -24 -10 -3 -5 -15 -10 -25 -10 -11 0 -32 -16 -47 -35 -21 -27 -35 -35 -60
-35 -17 0 -35 -5 -38 -10 -3 -6 -26 -19 -50 -30 -25 -11 -55 -34 -67 -50 -14
-20 -31 -30 -47 -30 -14 0 -37 -9 -51 -20 -14 -11 -32 -20 -42 -20 -9 0 -18
-3 -20 -8 -5 -13 -85 -72 -97 -72 -6 0 -11 -5 -11 -10 0 -6 -8 -14 -17 -17
-34 -12 -166 -117 -171 -135 -2 -10 -10 -18 -18 -18 -27 0 -119 -59 -132 -84
-8 -15 -22 -26 -33 -26 -19 0 -118 -49 -146 -71 -19 -16 -126 -69 -139 -69 -6
0 -17 -7 -24 -15 -7 -8 -20 -15 -30 -15 -10 0 -23 -7 -30 -15 -7 -8 -23 -15
-35 -15 -12 0 -28 -7 -35 -15 -7 -8 -23 -15 -36 -15 -12 0 -26 -4 -29 -10 -3
-5 -16 -10 -29 -10 -13 0 -30 -8 -40 -19 -11 -12 -25 -16 -42 -13 -15 3 -32
-2 -45 -14 -14 -12 -32 -17 -57 -15 -26 1 -46 -4 -64 -18 -21 -17 -41 -21 -96
-21 -39 0 -74 -4 -77 -10 -4 -6 -65 -10 -150 -10 -85 0 -146 4 -150 10 -3 6
-33 10 -65 10 -42 0 -69 6 -94 21 -20 12 -48 19 -65 17 -18 -1 -37 4 -50 16
-12 11 -29 16 -41 13 -11 -3 -30 3 -44 14 -13 10 -36 19 -49 19 -14 0 -29 5
-32 10 -3 6 -14 10 -24 10 -10 0 -24 6 -30 14 -7 8 -34 17 -62 21 -35 5 -58
15 -78 36 -20 19 -40 29 -60 29 -23 0 -42 11 -70 39 -22 22 -59 49 -83 60 -57
28 -109 59 -133 81 -11 10 -32 22 -47 25 -16 4 -28 11 -28 15 0 4 -34 33 -76
64 -51 38 -84 56 -105 56 -21 0 -29 5 -29 18 0 16 -79 92 -95 92 -4 0 -24 13
-44 28 -20 15 -47 33 -61 40 -14 6 -33 16 -43 22 -9 5 -25 15 -35 20 -9 6 -27
14 -39 19 -11 6 -24 15 -28 20 -3 6 -17 11 -30 11 -13 0 -25 3 -27 8 -6 13
-69 42 -92 42 -13 0 -40 16 -60 35 -21 20 -48 35 -61 35 -13 0 -27 5 -30 10
-3 6 -22 10 -41 10 -22 0 -37 6 -40 15 -4 9 -19 15 -35 15 -17 0 -32 6 -35 15
-4 10 -20 15 -50 15 -24 0 -44 5 -44 10 0 6 -22 10 -48 10 -27 0 -57 6 -68 15
-12 9 -44 14 -91 15 -39 0 -75 5 -78 10 -4 6 -102 10 -260 10 -158 0 -256 -4
-260 -10 -3 -5 -41 -10 -85 -10 -60 0 -79 -3 -84 -15 -4 -11 -20 -15 -55 -15
-27 0 -53 -4 -56 -10 -3 -6 -21 -10 -39 -10 -18 0 -41 -7 -52 -15 -10 -8 -33
-15 -50 -15 -19 0 -34 -6 -38 -15 -3 -9 -18 -15 -35 -15 -16 0 -33 -4 -36 -10
-3 -5 -16 -10 -29 -10 -12 0 -31 -7 -42 -15 -10 -8 -27 -15 -36 -15 -9 0 -25
-10 -35 -23 -18 -23 -101 -67 -127 -67 -7 0 -19 -7 -26 -15 -7 -8 -22 -15 -35
-15 -12 0 -30 -9 -40 -20 -10 -11 -38 -29 -64 -41 -50 -24 -171 -109 -171
-120 0 -3 -14 -13 -32 -20 -18 -7 -39 -20 -48 -29 -9 -8 -27 -22 -40 -30 -12
-8 -40 -27 -61 -43 -21 -15 -43 -27 -47 -27 -5 0 -17 -10 -28 -21 -10 -12 -28
-25 -39 -31 -41 -19 -70 -38 -81 -53 -11 -15 -52 -39 -154 -91 -19 -10 -41
-24 -48 -31 -7 -7 -19 -13 -26 -13 -7 0 -30 -11 -50 -25 -20 -14 -45 -25 -55
-25 -10 0 -24 -7 -31 -15 -7 -8 -20 -15 -30 -15 -10 0 -23 -7 -30 -15 -7 -8
-23 -15 -36 -15 -12 0 -26 -4 -29 -10 -3 -5 -19 -10 -34 -10 -15 0 -36 -9 -45
-19 -10 -11 -25 -17 -37 -14 -11 3 -28 -2 -40 -13 -14 -12 -32 -17 -56 -15
-24 2 -41 -3 -56 -17 -24 -22 -65 -27 -296 -38 -82 -4 -127 -2 -134 5 -6 6
-40 11 -75 11 -48 0 -73 5 -98 21 -20 12 -46 19 -63 17 -18 -1 -37 5 -50 16
-12 11 -29 16 -40 13 -12 -3 -27 3 -38 15 -9 11 -25 17 -35 15 -10 -3 -25 1
-32 9 -8 8 -23 14 -34 14 -11 0 -25 7 -32 15 -7 8 -19 15 -26 15 -8 0 -33 14
-56 30 -22 17 -50 30 -60 30 -25 0 -78 28 -78 40 0 6 -9 10 -19 10 -11 0 -21
3 -23 8 -1 4 -34 23 -73 42 -38 19 -78 45 -88 57 -10 13 -23 23 -28 23 -13 0
-81 50 -92 67 -4 7 -15 13 -23 13 -8 0 -17 7 -20 15 -4 8 -13 15 -21 15 -18 0
-54 25 -113 79 -25 23 -49 41 -54 41 -4 0 -31 17 -58 37 -28 20 -80 52 -117
71 -36 19 -72 43 -79 53 -7 11 -22 19 -32 19 -10 0 -22 4 -25 10 -3 5 -23 17
-43 26 -20 8 -44 20 -52 25 -8 5 -24 13 -35 18 -12 5 -26 16 -33 24 -7 8 -32
18 -56 21 -24 4 -52 16 -61 26 -10 11 -28 20 -40 20 -13 0 -28 7 -35 15 -7 8
-24 15 -37 15 -14 0 -37 6 -51 14 -46 23 -97 36 -144 36 -28 0 -50 6 -58 15
-8 10 -31 15 -69 15 -31 0 -62 5 -67 10 -7 7 -97 9 -265 6 -278 -5 -391 -13
-400 -28 -3 -5 -33 -14 -65 -19 -32 -6 -73 -12 -91 -16 -18 -3 -38 -11 -44
-19 -6 -8 -24 -14 -39 -14 -15 0 -33 -7 -40 -15 -7 -8 -23 -15 -35 -15 -12 0
-28 -6 -35 -14 -6 -8 -18 -12 -26 -9 -8 3 -25 -4 -38 -16 -12 -12 -25 -18 -29
-14 -4 3 -15 -1 -24 -10 -10 -8 -29 -20 -43 -26 -14 -6 -38 -20 -55 -30 -61
-40 -60 -45 -75 308 -23 516 25 1108 131 1621 124 597 304 1117 584 1685 271
549 588 1033 969 1481 131 154 519 544 666 670 896 768 1960 1280 3095 1488
552 101 1110 132 1725 95z m5125 -7818 c3 -5 36 -13 73 -16 37 -4 73 -12 80
-18 7 -5 15 -7 18 -4 3 3 21 -3 40 -14 19 -10 43 -19 52 -19 10 0 27 -7 38
-15 10 -8 29 -15 41 -15 12 0 25 -4 28 -10 3 -5 14 -10 25 -10 10 0 20 -7 24
-15 3 -8 14 -15 25 -15 11 0 23 -5 26 -10 3 -6 25 -19 48 -29 24 -11 51 -29
62 -41 10 -11 35 -28 54 -37 20 -9 62 -36 93 -60 31 -24 59 -43 63 -43 3 0 18
-9 33 -19 15 -11 49 -22 75 -26 l48 -6 -7 -37 c-20 -110 -97 -437 -134 -570
-34 -123 -45 -150 -56 -141 -7 6 -18 8 -23 4 -6 -3 -16 3 -23 15 -7 11 -20 20
-29 20 -9 0 -22 7 -29 15 -7 8 -19 15 -28 15 -21 0 -80 19 -114 36 -14 8 -35
14 -46 14 -11 0 -25 7 -32 15 -7 8 -29 15 -49 15 -20 0 -42 5 -48 11 -16 16
-238 38 -381 38 -146 1 -348 -17 -391 -35 -18 -8 -46 -14 -61 -14 -15 0 -33
-7 -40 -15 -7 -8 -27 -15 -45 -15 -20 0 -35 -6 -39 -15 -3 -8 -15 -15 -27 -15
-19 0 -56 -9 -104 -26 -5 -2 -17 -8 -25 -13 -8 -5 -22 -12 -30 -15 -8 -4 -28
-15 -45 -25 -28 -18 -91 -51 -125 -65 -21 -8 -48 -26 -91 -58 -20 -16 -40 -28
-44 -28 -3 0 -40 -22 -81 -50 -41 -27 -77 -50 -80 -50 -4 0 -35 -22 -70 -50
-35 -27 -66 -50 -70 -50 -11 0 -134 -101 -134 -111 0 -5 -8 -9 -19 -9 -10 0
-24 -7 -31 -15 -7 -8 -18 -15 -24 -15 -7 0 -23 -12 -37 -26 -13 -14 -33 -30
-44 -36 -11 -5 -42 -22 -70 -38 -27 -16 -69 -38 -92 -50 -23 -11 -45 -24 -48
-30 -3 -5 -13 -10 -21 -10 -9 0 -30 -11 -48 -25 -18 -14 -42 -25 -54 -25 -11
0 -24 -4 -27 -10 -3 -5 -17 -10 -29 -10 -13 0 -29 -7 -36 -15 -7 -8 -18 -15
-25 -15 -7 0 -18 -7 -25 -15 -7 -8 -25 -15 -40 -15 -15 0 -34 -8 -44 -19 -11
-12 -25 -16 -42 -13 -16 3 -29 -1 -34 -9 -6 -8 -24 -12 -51 -11 -28 2 -48 -3
-61 -15 -13 -12 -32 -16 -59 -14 -26 2 -50 -4 -73 -18 -31 -19 -48 -21 -224
-21 -175 0 -194 2 -226 21 -22 13 -48 19 -70 18 -22 -2 -41 3 -54 14 -12 11
-35 17 -65 17 -25 0 -49 5 -52 10 -3 6 -21 10 -40 10 -19 0 -37 5 -40 10 -3 6
-14 10 -24 10 -10 0 -26 9 -36 20 -10 11 -25 20 -34 20 -9 0 -25 7 -35 15 -11
8 -30 15 -43 15 -13 0 -23 5 -23 10 0 6 -7 10 -15 10 -15 0 -122 55 -140 71
-5 5 -16 9 -24 9 -8 0 -29 11 -47 25 -18 14 -37 25 -42 25 -5 0 -15 6 -21 14
-7 8 -26 18 -42 21 -16 4 -29 12 -29 19 0 14 -78 51 -87 42 -4 -3 -14 8 -24
24 -11 17 -23 30 -28 30 -4 0 -28 18 -52 40 -24 22 -55 43 -69 47 -14 3 -37
18 -51 32 -43 43 -101 85 -154 111 -27 14 -54 31 -58 37 -4 7 -27 22 -50 33
-23 11 -49 24 -57 29 -8 5 -22 12 -30 15 -8 4 -28 15 -45 25 -50 32 -110 61
-128 61 -9 0 -17 4 -17 10 0 5 -11 12 -25 16 -13 3 -29 12 -36 20 -6 8 -21 14
-33 14 -12 0 -31 7 -42 15 -10 8 -34 15 -51 15 -18 0 -33 5 -33 10 0 6 -15 10
-34 10 -18 0 -39 7 -46 15 -7 8 -27 15 -44 15 -18 0 -41 7 -52 15 -10 8 -39
15 -64 15 -26 0 -51 5 -58 12 -32 32 -731 33 -764 0 -7 -7 -32 -12 -58 -12
-25 0 -58 -7 -74 -15 -15 -8 -41 -15 -56 -15 -15 0 -33 -7 -40 -15 -7 -8 -25
-15 -41 -15 -15 0 -31 -4 -34 -10 -3 -5 -23 -10 -44 -10 -22 0 -44 -6 -51 -15
-7 -8 -20 -15 -30 -15 -10 0 -23 -7 -30 -15 -7 -8 -20 -15 -30 -15 -10 0 -23
-7 -30 -15 -7 -8 -20 -15 -29 -15 -9 0 -25 -7 -35 -15 -11 -8 -28 -15 -38 -15
-19 0 -36 -11 -66 -42 -9 -10 -26 -18 -38 -18 -12 0 -24 -3 -26 -7 -5 -13 -66
-53 -80 -54 -7 0 -25 -8 -39 -17 -147 -93 -179 -115 -179 -123 0 -5 -6 -9 -13
-9 -7 0 -30 -16 -51 -35 -22 -20 -49 -38 -61 -41 -13 -3 -35 -19 -51 -35 -15
-16 -32 -29 -37 -29 -5 0 -35 -20 -67 -45 -32 -25 -62 -45 -65 -45 -4 0 -30
-17 -58 -37 -60 -45 -94 -63 -114 -63 -8 0 -29 -11 -46 -24 -18 -13 -59 -36
-92 -51 -33 -15 -73 -33 -88 -41 -16 -8 -34 -14 -42 -14 -7 0 -18 -7 -25 -15
-7 -8 -23 -15 -35 -15 -12 0 -28 -7 -35 -15 -7 -8 -24 -15 -39 -15 -15 0 -33
-6 -39 -12 -7 -7 -28 -11 -48 -9 -24 2 -42 -3 -55 -15 -13 -11 -33 -17 -52
-16 -18 2 -50 -6 -72 -18 -35 -18 -58 -20 -218 -20 -161 0 -182 2 -219 21 -24
12 -53 19 -69 17 -19 -3 -35 2 -46 14 -10 11 -30 18 -54 18 -21 0 -41 5 -44
11 -4 6 -23 9 -42 7 -24 -2 -39 3 -48 15 -7 9 -21 17 -32 17 -11 0 -26 7 -33
15 -7 8 -21 15 -30 15 -17 0 -53 15 -110 47 -14 8 -37 20 -52 26 -16 6 -28 15
-28 19 0 4 -9 8 -20 8 -11 0 -23 7 -26 15 -4 9 -19 15 -38 15 -25 0 -36 6 -46
25 -7 14 -20 25 -27 25 -8 0 -29 11 -47 25 -18 14 -37 25 -42 25 -5 0 -32 19
-59 43 -28 23 -63 49 -80 57 -16 8 -43 25 -59 38 -16 13 -35 21 -42 18 -7 -3
-20 6 -29 20 -18 27 -140 119 -199 149 -21 11 -46 30 -56 43 -10 12 -22 22
-27 22 -14 0 -72 30 -78 41 -4 5 -13 9 -22 9 -8 0 -32 14 -53 30 -21 17 -45
30 -53 30 -8 0 -20 7 -27 15 -7 9 -19 14 -26 11 -7 -2 -20 4 -30 15 -9 10 -24
19 -33 19 -9 0 -25 7 -35 15 -11 8 -27 15 -37 15 -9 0 -22 7 -29 15 -7 8 -25
15 -41 15 -15 0 -31 5 -34 10 -3 6 -19 10 -34 10 -16 0 -34 7 -41 15 -7 8 -27
15 -44 15 -18 0 -41 7 -52 15 -10 8 -37 15 -60 15 -22 0 -45 5 -50 10 -36 36
-711 37 -747 1 -6 -6 -27 -11 -46 -11 -20 0 -49 -7 -65 -15 -15 -8 -41 -15
-57 -15 -15 0 -32 -6 -36 -13 -9 -14 -111 -43 -120 -33 -12 12 -106 330 -154
524 -40 161 -48 206 -39 218 7 7 17 14 22 14 5 0 24 11 42 25 18 14 36 25 41
25 4 0 24 13 44 28 20 16 43 32 51 35 8 4 29 16 45 27 17 11 39 24 50 30 11 6
34 19 50 29 17 11 42 20 57 20 15 1 30 6 33 11 3 6 19 10 34 10 16 0 34 7 41
15 7 8 25 15 41 15 15 0 31 5 34 10 3 5 17 10 30 10 13 0 27 5 30 10 4 6 10 8
15 5 5 -3 19 -1 32 5 28 12 288 28 288 18 0 -5 26 -8 58 -8 31 -1 68 -7 82
-15 14 -8 37 -14 52 -15 15 0 30 -4 33 -10 3 -5 20 -10 36 -10 17 0 32 -6 35
-15 4 -8 18 -15 34 -15 28 0 85 -24 95 -41 4 -5 16 -9 28 -10 12 0 36 -9 52
-20 17 -10 40 -23 52 -28 11 -5 24 -15 28 -20 3 -6 14 -11 24 -11 10 0 28 -12
42 -26 13 -14 40 -32 59 -40 19 -8 55 -32 80 -53 49 -41 85 -63 97 -59 8 3 37
-22 93 -77 14 -14 31 -25 38 -25 7 0 22 -9 34 -20 12 -11 28 -20 36 -20 8 0
23 -11 33 -24 10 -13 31 -27 45 -30 15 -4 47 -27 71 -52 25 -24 51 -44 60 -44
8 0 29 -10 46 -22 37 -27 66 -45 87 -54 66 -28 89 -40 120 -60 19 -13 56 -27
82 -30 27 -4 48 -10 48 -15 0 -20 42 -49 70 -49 17 0 30 -4 30 -10 0 -5 9 -10
20 -10 11 0 20 -4 20 -10 0 -5 11 -10 24 -10 14 0 31 -7 40 -15 8 -8 26 -15
40 -15 13 0 31 -7 40 -15 8 -8 30 -15 50 -15 19 0 38 -4 41 -10 3 -5 28 -10
54 -10 31 0 53 -5 61 -15 8 -10 30 -15 65 -15 33 0 57 -5 64 -14 12 -14 61
-19 365 -32 86 -4 132 -2 139 5 7 7 57 11 128 11 95 0 118 3 123 15 4 11 21
15 64 15 41 0 64 5 72 15 7 9 29 15 51 15 21 0 41 5 44 10 3 6 23 10 45 10 24
0 40 5 44 15 3 10 19 15 44 15 23 0 45 6 52 15 7 8 20 15 29 15 10 0 36 9 59
20 22 11 48 20 57 20 10 0 31 10 48 22 18 13 35 23 39 23 3 0 10 3 14 8 4 4
15 7 24 7 10 0 24 7 31 16 15 19 58 38 77 35 7 -1 31 13 55 32 23 19 49 37 57
41 8 3 29 15 45 25 17 11 36 20 44 20 7 1 30 15 51 31 21 17 42 30 47 30 4 0
14 9 21 20 7 11 19 20 26 20 8 0 23 11 34 25 11 14 28 25 39 25 10 0 24 9 31
20 7 11 16 20 22 20 19 0 99 61 105 80 4 11 10 18 15 15 5 -3 11 -1 15 5 3 5
15 10 25 10 10 0 20 3 22 8 5 11 66 52 77 52 6 0 14 6 18 13 4 7 24 21 43 30
46 23 67 36 111 70 20 15 46 27 58 27 12 0 21 5 21 10 0 6 10 10 23 10 12 0
35 14 51 30 21 21 39 30 62 30 18 0 36 5 39 10 3 6 22 10 41 10 22 0 37 6 40
15 4 9 19 15 40 15 22 0 37 6 43 18 8 16 19 18 64 14 34 -3 57 0 61 7 4 6 38
11 79 11 40 1 91 5 115 9 23 5 45 5 48 0 3 -5 37 -9 75 -9 39 0 79 -5 90 -10
10 -6 40 -12 65 -14 25 -2 51 -9 57 -15 6 -6 31 -11 55 -11 41 0 136 -36 172
-65 8 -7 33 -15 54 -18 21 -4 48 -15 60 -25 12 -11 28 -22 36 -26 8 -3 29 -15
45 -26 52 -33 87 -50 105 -50 10 0 20 -9 23 -20 3 -11 21 -27 41 -35 20 -9 36
-20 36 -25 0 -5 15 -12 34 -15 23 -5 56 -28 102 -71 37 -35 73 -64 79 -64 7 0
28 -13 46 -30 19 -16 41 -30 49 -30 8 -1 31 -14 50 -30 19 -17 39 -30 46 -30
6 0 19 -10 30 -21 10 -12 54 -41 96 -66 43 -25 80 -49 84 -54 3 -5 13 -9 23
-9 10 0 26 -9 36 -20 10 -11 21 -17 26 -15 4 3 10 1 14 -5 3 -5 13 -10 22 -10
9 0 24 -6 32 -14 26 -23 153 -84 198 -96 23 -6 45 -15 48 -20 3 -6 17 -10 30
-10 12 0 25 -7 29 -15 3 -9 18 -15 39 -15 19 0 40 -7 47 -15 7 -9 29 -15 51
-15 21 0 41 -4 44 -10 3 -5 21 -10 39 -10 18 0 41 -7 52 -15 11 -8 42 -14 75
-15 30 0 61 -6 67 -12 19 -19 162 -30 412 -31 249 -1 376 7 433 29 20 8 57 14
81 14 27 0 48 6 56 15 7 8 27 15 46 15 18 0 36 5 39 10 3 6 26 10 51 10 33 0
47 5 56 20 7 11 22 20 34 20 12 0 24 6 27 14 3 7 26 16 52 18 25 3 54 13 64
22 10 9 26 16 37 16 36 0 154 51 174 74 7 9 18 16 25 16 22 0 70 29 100 60 16
16 37 30 47 30 9 0 33 9 53 20 20 11 41 20 48 20 7 0 18 9 25 20 7 11 21 20
32 20 11 0 20 5 20 10 0 6 5 10 11 10 6 0 25 11 43 25 18 14 37 25 43 25 5 0
20 12 34 26 13 14 49 42 79 62 30 20 81 58 114 86 32 27 67 50 77 51 10 1 28
14 39 28 12 15 26 27 32 27 6 0 25 10 42 23 17 13 38 27 46 30 8 4 29 16 45
27 17 11 49 28 72 40 23 11 45 24 48 30 3 5 14 10 25 10 10 0 20 7 24 15 3 8
16 15 28 15 13 0 35 11 50 25 15 14 39 25 53 25 14 0 33 4 43 9 35 18 119 40
174 46 32 4 60 11 63 16 8 12 122 12 130 0z m118 -1733 c16 -11 39 -18 56 -16
16 1 36 -3 45 -11 8 -7 22 -11 30 -8 8 3 22 -3 31 -13 9 -10 37 -21 62 -25 49
-7 78 -20 103 -46 8 -8 23 -18 33 -22 9 -3 17 -11 17 -17 0 -35 -210 -456
-331 -665 l-64 -110 -185 -6 c-109 -3 -197 -10 -213 -17 -16 -7 -49 -12 -73
-12 -27 0 -52 -6 -60 -15 -9 -9 -34 -15 -60 -15 -24 0 -44 -4 -44 -10 0 -5
-18 -10 -40 -10 -22 0 -40 -4 -40 -10 0 -5 -7 -10 -16 -10 -9 0 -30 -6 -47
-14 -18 -8 -39 -17 -47 -20 -8 -3 -22 -10 -30 -14 -42 -24 -61 -32 -79 -32
-10 0 -24 -7 -31 -15 -7 -8 -19 -15 -27 -15 -8 0 -33 -15 -56 -33 -44 -36 -75
-51 -94 -48 -6 1 -20 -9 -30 -22 -10 -13 -23 -22 -29 -20 -6 2 -17 -3 -24 -12
-7 -8 -18 -15 -25 -15 -6 0 -20 -9 -30 -20 -10 -11 -27 -23 -39 -26 -11 -4
-43 -26 -71 -50 -27 -24 -55 -44 -61 -44 -7 0 -26 -13 -44 -30 -18 -16 -35
-30 -40 -30 -4 0 -15 -9 -25 -20 -10 -11 -23 -20 -29 -20 -6 0 -22 -11 -36
-24 -57 -55 -79 -74 -83 -69 -3 2 -13 0 -24 -5 -10 -5 -30 -15 -45 -23 -16 -7
-28 -17 -28 -23 0 -7 -12 -17 -27 -24 -51 -24 -114 -60 -148 -86 -18 -14 -40
-26 -49 -26 -8 0 -17 -4 -21 -9 -8 -14 -65 -41 -85 -41 -10 0 -20 -7 -24 -15
-3 -8 -14 -15 -24 -15 -11 0 -40 -11 -66 -25 -26 -14 -56 -25 -66 -25 -10 0
-22 -4 -25 -10 -3 -5 -19 -10 -34 -10 -16 0 -34 -7 -41 -15 -7 -8 -27 -15 -45
-15 -20 0 -35 -6 -39 -15 -4 -11 -21 -15 -60 -15 -30 0 -57 -4 -60 -9 -3 -4
-52 -10 -109 -13 -57 -2 -110 -9 -118 -14 -8 -4 -21 -7 -31 -6 -9 2 -19 -2
-23 -8 -5 -8 -11 -8 -21 1 -7 6 -20 9 -28 6 -7 -3 -18 -1 -24 5 -6 6 -59 13
-117 16 -58 3 -108 9 -111 13 -3 5 -25 9 -49 9 -24 0 -47 5 -50 10 -3 6 -30
10 -60 10 -30 0 -57 5 -60 10 -3 6 -14 10 -24 10 -10 0 -26 9 -36 20 -10 11
-28 20 -41 20 -13 0 -26 5 -29 10 -3 6 -14 10 -25 10 -10 0 -20 7 -24 15 -3 8
-17 15 -31 15 -14 0 -28 6 -31 14 -3 7 -24 19 -47 26 -23 8 -49 19 -57 26 -8
6 -33 18 -55 25 -22 8 -44 20 -48 27 -5 7 -31 24 -59 37 -28 14 -57 34 -65 45
-8 11 -19 20 -25 20 -6 0 -26 11 -44 25 -18 14 -36 25 -39 25 -4 0 -30 20 -58
44 -29 24 -67 47 -85 51 -18 3 -37 15 -42 26 -11 20 -142 120 -172 132 -10 3
-18 11 -18 17 0 5 -7 10 -15 10 -19 0 -48 16 -98 54 -24 18 -45 26 -58 23 -14
-4 -29 5 -51 29 -18 19 -36 33 -42 31 -6 -3 -20 4 -32 15 -11 10 -37 19 -56
20 -25 1 -37 7 -44 22 -5 11 -22 25 -39 30 -39 11 -74 25 -107 42 -14 8 -37
14 -50 14 -12 0 -32 7 -42 15 -11 8 -32 15 -48 15 -15 0 -28 5 -28 10 0 6 -25
10 -55 10 -30 0 -55 5 -55 10 0 6 -23 10 -52 10 -33 0 -58 6 -69 16 -15 14
-60 16 -343 16 -285 1 -328 -1 -350 -16 -16 -10 -46 -16 -80 -16 -30 0 -58 -4
-61 -10 -3 -5 -26 -10 -50 -10 -24 0 -47 -4 -50 -10 -3 -5 -16 -10 -29 -10
-13 0 -31 -9 -41 -20 -12 -13 -31 -20 -56 -20 -21 0 -41 -4 -44 -10 -3 -5 -17
-10 -30 -10 -13 0 -27 -4 -30 -10 -3 -5 -19 -10 -34 -10 -16 0 -34 -7 -41 -15
-7 -8 -17 -15 -22 -15 -5 0 -16 -7 -24 -15 -9 -8 -26 -15 -38 -15 -13 0 -31
-9 -41 -20 -10 -11 -20 -18 -23 -15 -6 6 -56 -22 -103 -57 -20 -16 -42 -28
-49 -28 -6 0 -26 -10 -43 -23 -43 -30 -68 -45 -92 -56 -11 -5 -31 -21 -44 -35
-14 -14 -31 -26 -38 -26 -8 0 -39 -25 -70 -55 -31 -30 -64 -55 -73 -55 -10 0
-29 -9 -43 -20 -14 -11 -29 -20 -34 -20 -5 0 -22 -13 -38 -30 -16 -16 -32 -30
-36 -30 -4 0 -37 -20 -73 -45 -37 -25 -69 -45 -72 -45 -3 0 -20 -11 -38 -25
-18 -14 -39 -25 -46 -25 -6 0 -29 -13 -50 -30 -21 -16 -45 -30 -53 -30 -9 0
-19 -4 -22 -10 -3 -5 -13 -10 -22 -10 -8 0 -32 -13 -53 -30 -21 -16 -49 -30
-63 -30 -14 0 -29 -4 -32 -10 -3 -5 -17 -10 -30 -10 -13 0 -27 -4 -30 -10 -3
-6 -16 -10 -29 -10 -12 0 -31 -7 -42 -15 -10 -8 -31 -15 -45 -15 -14 0 -34 -7
-45 -15 -10 -8 -40 -15 -66 -15 -26 0 -49 -4 -52 -9 -3 -4 -50 -10 -104 -13
-54 -3 -105 -8 -112 -13 -17 -10 -83 -11 -99 0 -7 4 -60 10 -117 13 -58 3
-107 9 -110 13 -3 5 -20 9 -38 9 -19 0 -47 7 -62 15 -16 8 -39 15 -51 15 -12
0 -25 4 -28 10 -3 6 -23 10 -44 10 -22 0 -44 6 -51 15 -7 8 -23 15 -36 15 -13
0 -24 5 -24 10 0 6 -11 10 -24 10 -14 0 -27 4 -30 9 -3 4 -24 11 -46 15 -24 4
-45 14 -52 26 -7 11 -17 20 -23 20 -6 0 -16 9 -23 20 -7 11 -23 20 -37 20 -14
0 -28 7 -31 15 -4 8 -14 15 -24 15 -10 0 -23 7 -30 15 -7 8 -17 15 -23 15 -6
0 -43 25 -83 55 -40 30 -76 55 -79 55 -3 0 -18 12 -35 26 -35 32 -76 54 -100
54 -10 0 -32 16 -48 35 -34 38 -136 118 -165 128 -11 4 -15 12 -11 18 4 7 3 9
-3 6 -6 -4 -22 2 -36 13 -14 11 -29 20 -33 20 -4 0 -21 11 -38 24 -17 13 -41
26 -53 30 -13 4 -23 11 -23 16 0 4 -8 11 -17 14 -23 8 -56 28 -77 45 -9 8 -19
11 -23 7 -4 -3 -17 4 -30 16 -13 12 -23 18 -23 14 0 -4 -13 2 -29 13 -16 12
-42 22 -58 24 -17 2 -44 13 -60 25 -17 12 -36 22 -42 22 -7 0 -22 6 -34 14
-12 8 -43 18 -70 21 -26 4 -58 16 -71 26 -13 11 -40 19 -59 19 -20 0 -39 5
-42 10 -3 6 -30 10 -59 10 -30 0 -60 6 -72 15 -13 10 -46 14 -114 15 -165 1
-155 -5 -235 128 -38 65 -96 164 -129 222 -59 105 -276 533 -276 544 0 3 6 6
13 6 6 0 23 9 36 19 13 10 32 16 43 13 10 -2 25 1 34 8 8 7 32 13 52 12 42 -2
102 15 102 29 0 5 58 9 133 9 104 0 137 -3 155 -16 12 -8 22 -12 22 -8 0 3 6
2 13 -3 6 -6 47 -11 91 -12 71 -1 80 -3 98 -26 11 -14 26 -25 33 -25 13 0 101
-37 147 -61 10 -5 23 -9 29 -9 6 0 29 -13 52 -28 23 -16 49 -32 57 -35 22 -10
48 -27 107 -69 29 -21 55 -38 59 -38 4 0 30 -17 58 -39 28 -21 61 -41 73 -45
12 -4 36 -20 54 -37 17 -16 36 -29 43 -29 6 0 30 -18 54 -40 24 -22 50 -40 58
-40 8 0 28 -16 45 -35 17 -19 37 -35 44 -35 7 0 18 -6 24 -14 7 -8 33 -24 59
-36 26 -12 53 -31 60 -41 7 -11 20 -19 28 -19 13 0 34 -9 74 -32 8 -4 25 -12
38 -18 12 -5 22 -14 22 -20 0 -5 9 -10 19 -10 11 0 23 -5 26 -10 7 -12 82 -44
87 -38 2 1 16 -7 32 -19 16 -13 37 -23 46 -23 10 0 23 -7 30 -15 7 -9 19 -14
26 -11 6 2 21 -4 32 -15 12 -10 35 -19 51 -19 16 0 33 -4 36 -10 3 -5 14 -10
24 -10 10 0 32 -7 47 -15 16 -8 37 -15 46 -15 9 0 20 -5 23 -10 3 -6 21 -10
39 -10 18 0 41 -7 52 -15 11 -8 42 -14 76 -15 31 0 60 -4 63 -10 3 -5 32 -10
64 -10 32 0 78 -7 101 -15 54 -19 443 -22 487 -3 15 6 64 15 108 19 146 14
200 21 210 30 6 4 30 11 53 15 23 4 45 11 48 15 3 5 13 9 22 9 9 0 30 7 46 15
15 8 39 15 52 15 12 0 26 5 29 10 3 6 19 10 34 10 16 0 34 7 41 15 7 8 20 15
30 15 9 0 25 9 34 19 10 11 24 17 32 14 8 -3 22 1 32 10 9 8 37 24 62 36 43
20 56 27 98 51 9 6 24 13 32 16 8 3 22 10 30 15 8 5 24 13 35 18 11 5 44 25
74 45 29 20 56 36 60 36 3 1 22 14 41 30 19 17 39 30 45 30 7 0 22 11 35 24
12 14 36 28 52 32 17 3 47 21 67 39 63 56 189 145 206 145 8 0 18 7 21 15 4 8
10 15 15 15 19 0 79 45 75 56 -6 16 14 34 37 34 21 0 124 47 132 61 4 5 14 9
25 9 10 0 20 7 24 15 3 8 16 15 30 15 14 0 28 5 31 10 3 6 17 10 30 10 13 0
27 5 30 10 3 6 14 10 24 10 10 0 24 7 31 15 7 8 23 15 35 15 12 0 33 9 47 19
15 12 33 18 45 15 12 -3 30 -1 42 5 12 7 50 13 85 15 38 2 74 11 88 20 33 23
243 23 269 0 13 -11 41 -18 90 -19 39 -2 76 -8 82 -14 6 -6 28 -11 48 -11 20
0 42 -7 49 -15 7 -8 22 -15 33 -15 11 0 28 -7 37 -15 9 -8 40 -16 69 -19 39
-3 62 -11 89 -33 20 -16 49 -33 64 -36 14 -4 39 -17 55 -30 15 -13 45 -31 65
-40 20 -10 46 -29 56 -42 11 -14 29 -25 41 -25 12 0 21 -4 21 -10 0 -5 6 -10
14 -10 7 0 19 -7 26 -15 7 -8 30 -18 51 -21 28 -5 39 -11 39 -24 0 -18 102
-102 150 -124 14 -6 34 -19 45 -29 11 -10 32 -21 46 -24 16 -3 32 -18 44 -39
11 -21 26 -34 38 -34 11 0 34 -10 51 -23 17 -13 38 -27 46 -31 8 -3 38 -20 65
-36 28 -16 60 -34 72 -39 11 -5 24 -15 28 -20 3 -6 13 -11 22 -11 9 0 24 -7
34 -16 9 -8 23 -17 31 -18 7 -1 23 -7 34 -14 12 -6 23 -9 26 -7 3 3 13 -4 23
-15 10 -11 28 -20 40 -20 13 0 28 -7 35 -15 7 -8 20 -15 30 -15 10 0 23 -6 29
-14 10 -12 43 -21 106 -29 11 -1 24 -8 28 -14 4 -7 16 -13 25 -13 9 0 30 -7
46 -15 15 -8 37 -15 48 -15 11 0 34 -6 51 -14 33 -15 58 -19 211 -35 48 -5 93
-14 99 -20 18 -18 551 -15 602 4 22 8 68 14 103 15 34 0 62 4 62 10 0 6 22 10
49 10 27 0 62 7 77 15 16 8 41 15 56 15 15 0 29 4 32 9 3 4 23 11 45 15 21 3
41 12 44 19 3 8 27 17 56 20 28 3 61 13 73 22 13 8 32 15 44 15 12 0 27 7 34
15 7 8 20 15 30 15 9 0 25 9 35 20 10 11 21 18 25 15 4 -2 33 16 65 40 32 25
70 48 84 51 62 13 120 43 168 86 26 24 53 38 69 38 16 0 45 16 77 44 29 24 62
46 73 50 12 4 29 15 39 26 10 11 23 20 30 20 6 0 22 12 36 26 13 14 41 35 61
45 21 11 47 33 60 49 12 17 30 30 40 30 10 0 18 5 18 10 0 6 5 10 11 10 6 0
42 23 79 50 37 28 74 50 82 50 8 0 23 9 34 21 10 12 33 29 51 38 45 23 104 51
133 63 14 6 32 14 40 19 19 10 85 42 131 62 19 9 45 14 57 10 15 -3 30 1 43
13 40 36 321 38 372 2z m-5627 -1696 c58 -5 88 -12 102 -25 14 -13 32 -18 56
-16 21 2 42 -3 53 -13 19 -16 51 -26 115 -35 21 -3 42 -11 49 -19 6 -8 20 -14
30 -14 10 0 20 -4 24 -9 5 -10 35 -25 147 -75 31 -14 60 -31 63 -36 3 -6 16
-10 29 -10 12 0 38 -17 61 -40 21 -22 43 -40 48 -40 5 0 26 -13 47 -30 21 -16
43 -30 49 -30 6 0 21 -11 33 -25 12 -14 27 -25 33 -25 6 0 22 -11 35 -25 13
-14 28 -25 33 -25 5 0 22 -10 37 -22 68 -54 118 -88 129 -88 7 0 36 -20 64
-45 29 -25 58 -45 66 -45 8 0 28 -10 45 -23 17 -12 52 -33 78 -45 26 -13 50
-27 53 -31 2 -5 25 -12 50 -15 24 -4 47 -11 50 -17 4 -5 13 -9 22 -9 8 0 24
-11 35 -25 11 -14 24 -25 29 -25 5 0 22 -9 37 -20 17 -13 46 -21 75 -22 35 -2
53 -8 69 -25 12 -13 30 -23 40 -23 10 0 21 -7 24 -15 4 -10 20 -15 44 -15 22
0 42 -4 45 -10 3 -5 21 -10 40 -10 19 0 37 -4 40 -10 3 -5 27 -10 52 -10 29 0
53 -6 64 -16 10 -9 46 -21 81 -27 83 -13 767 -21 793 -8 11 5 45 12 75 14 30
2 56 10 58 16 2 6 22 11 45 11 23 0 51 7 61 15 11 8 37 15 57 15 21 0 41 5 44
10 3 6 17 10 31 10 14 0 34 8 45 19 11 10 29 17 39 14 11 -3 28 4 41 16 13 12
30 21 40 21 9 0 22 6 29 14 6 8 18 12 26 9 8 -3 25 2 39 11 13 9 34 16 45 16
11 0 23 7 26 15 4 8 14 15 24 15 10 0 23 7 30 15 7 8 19 15 26 15 13 0 34 9
74 32 8 4 25 12 38 18 12 5 22 13 22 17 0 9 8 13 82 49 23 12 54 33 67 48 14
14 34 26 46 26 12 0 32 11 45 25 13 14 30 25 37 25 8 0 31 13 51 29 20 15 72
54 116 86 43 31 80 65 83 75 3 11 18 21 41 25 20 4 58 24 85 46 27 21 55 39
61 39 7 0 24 13 39 28 15 16 43 35 62 42 19 8 35 17 35 22 0 4 7 8 15 8 9 0
29 10 45 22 116 85 -99 -155 -335 -375 -913 -852 -2092 -1460 -3313 -1711
-500 -103 -936 -142 -1477 -133 -640 11 -1174 93 -1770 274 -863 261 -1751
757 -2430 1357 -102 91 -308 287 -343 329 -23 26 -23 27 -3 27 11 0 39 -18 62
-40 23 -22 44 -40 47 -40 3 0 20 -11 38 -25 18 -14 36 -25 41 -25 4 0 19 -12
32 -25 13 -14 32 -25 42 -25 11 0 35 -16 55 -35 19 -19 41 -35 48 -35 8 0 21
-11 30 -24 8 -13 30 -28 48 -31 18 -4 40 -16 49 -26 9 -11 26 -19 37 -19 12 0
25 -6 29 -13 4 -8 15 -17 23 -20 8 -4 22 -11 30 -16 8 -5 32 -17 52 -25 20 -9
40 -21 43 -26 3 -6 14 -10 24 -10 10 0 24 -7 31 -15 7 -8 22 -15 34 -15 12 0
30 -9 40 -21 11 -13 25 -19 37 -16 10 3 22 1 25 -4 3 -5 15 -9 28 -9 13 0 31
-9 41 -20 10 -11 28 -20 39 -20 12 0 30 -7 40 -15 11 -8 32 -15 47 -15 15 0
31 -4 34 -10 3 -5 23 -10 43 -10 20 0 46 -7 56 -15 11 -8 36 -15 56 -15 20 0
41 -5 47 -11 20 -20 170 -32 467 -36 197 -2 303 0 310 7 5 5 33 10 60 10 28 1
69 7 91 15 22 8 51 15 63 15 13 0 38 6 55 14 35 16 72 25 130 33 21 3 41 11
44 19 3 8 17 14 33 14 15 0 35 9 45 20 10 11 31 20 46 20 15 0 30 4 33 9 3 5
14 7 25 4 12 -3 25 5 39 21 11 14 25 26 31 26 6 0 19 4 29 9 62 32 125 61 134
61 6 0 27 14 48 30 21 17 45 30 53 30 8 0 20 7 27 15 7 8 17 15 22 15 6 0 24
10 41 23 36 25 42 29 121 75 31 19 59 38 62 43 3 5 14 9 25 9 10 0 19 4 19 9
0 6 29 30 64 56 35 25 69 52 76 60 7 9 29 23 49 32 20 9 56 34 81 56 24 21 63
48 85 58 47 24 66 35 120 71 22 15 52 30 67 33 15 4 32 13 39 21 6 8 17 14 24
14 7 0 18 7 25 15 7 8 27 15 45 15 18 0 38 6 44 14 6 8 24 16 39 19 69 14 88
21 105 36 11 9 31 14 48 13 17 -2 45 5 65 17 25 15 54 21 102 22 37 1 78 5 92
10 14 4 52 6 85 3 33 -3 97 -8 141 -12z"/>
</g>
</svg>
