<svg id="svg" version="1.1" xmlns="http://www.w3.org/2000/svg" xmlns:xlink="http://www.w3.org/1999/xlink" width="400" height="71.56353563832418" viewBox="0, 0, 400,71.56353563832418"><g id="svgg"><path id="path0" d="M216.667 12.079 L 216.667 18.159 213.792 18.204 L 210.917 18.250 210.917 20.250 L 210.917 22.250 213.791 22.296 L 216.665 22.341 216.707 37.129 L 216.750 51.917 219.208 51.963 L 221.667 52.009 221.667 37.171 L 221.667 22.333 225.000 22.333 L 228.333 22.333 228.333 20.250 L 228.333 18.167 225.000 18.167 L 221.667 18.167 221.667 12.083 L 221.667 6.000 219.167 6.000 L 216.667 6.000 216.667 12.079 M31.583 17.015 C 30.451 17.149,29.820 17.318,28.083 17.951 C 26.309 18.598,23.970 20.395,22.627 22.142 C 21.966 23.002,22.018 23.155,21.991 20.285 L 21.968 17.833 19.651 17.833 L 17.333 17.833 17.333 34.671 L 17.333 51.509 19.625 51.463 L 21.917 51.417 22.013 42.083 C 22.115 32.209,22.197 31.079,22.987 28.787 C 25.312 22.036,33.255 19.239,37.643 23.627 C 39.883 25.867,40.153 27.952,40.162 43.042 L 40.167 51.500 42.399 51.500 C 44.281 51.500,44.647 51.459,44.732 51.236 C 44.788 51.091,44.833 47.226,44.833 42.646 C 44.833 31.973,45.036 30.060,46.484 27.083 C 49.687 20.495,59.179 19.556,61.926 25.556 C 62.664 27.169,62.689 27.584,62.782 39.792 L 62.872 51.500 65.279 51.500 L 67.687 51.500 67.617 39.792 C 67.535 26.197,67.497 25.829,65.825 22.491 C 61.941 14.734,49.502 15.254,44.500 23.381 C 43.792 24.531,43.814 24.529,43.452 23.508 C 42.791 21.646,40.744 19.232,39.110 18.387 C 37.627 17.621,34.000 16.724,32.917 16.856 C 32.825 16.867,32.225 16.939,31.583 17.015 M90.333 17.501 C 84.297 18.119,79.970 20.963,76.794 26.400 C 73.820 31.492,74.001 39.891,77.184 44.542 C 77.576 45.115,78.110 45.898,78.371 46.283 C 80.454 49.356,85.081 52.055,89.332 52.676 C 100.473 54.306,109.725 46.362,109.725 35.167 C 109.725 24.211,101.145 16.395,90.333 17.501 M126.333 17.489 C 123.880 17.885,122.611 18.600,120.462 20.796 L 119.010 22.280 118.963 20.265 L 118.917 18.250 116.542 18.204 L 114.167 18.158 114.167 35.083 L 114.167 52.009 116.542 51.963 L 118.917 51.917 119.015 42.250 C 119.094 34.512,119.167 32.266,119.381 30.995 C 120.411 24.864,123.999 21.224,127.991 22.259 C 128.634 22.426,129.187 22.530,129.220 22.490 C 129.253 22.449,129.742 21.674,130.307 20.766 C 131.461 18.909,131.561 18.460,130.875 18.199 C 129.109 17.528,127.578 17.289,126.333 17.489 M147.667 17.441 C 135.142 18.420,127.735 31.913,133.477 43.288 C 138.836 53.905,152.217 56.102,161.071 47.820 L 162.167 46.795 162.167 49.398 L 162.167 52.000 164.501 52.000 L 166.835 52.000 166.792 35.125 L 166.750 18.250 164.458 18.204 L 162.167 18.157 162.167 21.011 L 162.167 23.864 161.403 22.927 C 158.344 19.171,152.973 17.026,147.667 17.441 M196.500 17.503 C 193.895 17.834,191.920 18.890,190.564 20.679 C 186.457 26.093,188.452 32.150,195.583 35.919 C 201.506 39.048,202.905 40.399,202.913 43.000 C 202.921 45.746,200.594 47.968,197.535 48.134 C 194.950 48.275,193.456 47.678,191.228 45.614 C 190.665 45.093,190.138 44.667,190.055 44.667 C 189.726 44.667,187.167 47.583,187.167 47.958 C 187.167 48.228,189.092 50.238,189.603 50.502 C 189.867 50.638,190.496 50.989,191.000 51.282 C 199.228 56.066,209.324 49.506,207.252 40.721 C 206.461 37.363,204.497 35.346,199.424 32.677 C 193.771 29.704,192.071 27.419,193.396 24.574 C 195.031 21.062,200.381 21.101,203.740 24.649 C 204.421 25.370,204.490 25.343,206.038 23.734 C 207.747 21.958,207.731 22.056,206.470 21.002 C 203.040 18.136,199.979 17.062,196.500 17.503 M243.158 17.507 C 240.751 17.870,239.151 18.858,236.874 21.388 L 236.000 22.360 236.000 20.263 L 236.000 18.167 233.583 18.167 L 231.167 18.167 231.167 35.083 L 231.167 52.000 233.583 52.000 L 236.000 52.000 236.001 44.208 C 236.004 31.997,236.366 28.880,238.144 25.785 C 239.700 23.076,242.743 21.483,244.934 22.230 C 246.110 22.631,246.282 22.588,246.683 21.792 C 246.880 21.402,247.369 20.586,247.770 19.978 C 248.599 18.722,248.632 18.582,248.162 18.331 C 246.889 17.650,244.653 17.282,243.158 17.507 M264.000 17.501 C 261.155 17.792,258.931 18.420,257.333 19.384 C 247.428 25.360,245.522 38.790,253.322 47.643 C 260.222 55.472,274.772 54.353,280.624 45.542 C 282.570 42.611,282.567 42.555,280.375 41.427 C 278.213 40.314,278.362 40.323,277.761 41.275 C 274.203 46.907,268.974 49.295,262.868 48.077 C 257.875 47.082,253.407 41.477,253.339 36.125 L 253.333 35.667 268.333 35.667 L 283.333 35.667 283.333 34.522 C 283.333 32.479,282.501 28.800,281.669 27.167 C 281.506 26.846,281.195 26.221,280.978 25.778 C 278.324 20.359,270.993 16.785,264.000 17.501 M303.417 17.511 C 300.668 17.789,298.817 18.340,296.929 19.443 C 287.702 24.834,285.122 35.635,290.785 45.167 C 291.378 46.164,294.000 48.848,295.250 49.737 C 301.384 54.098,310.406 53.800,315.903 49.056 C 316.629 48.429,317.473 47.705,317.778 47.446 L 318.333 46.976 318.333 49.488 L 318.333 52.000 320.667 52.000 L 323.000 52.000 323.000 35.079 L 323.000 18.157 320.708 18.204 L 318.417 18.250 318.371 20.963 L 318.325 23.677 317.371 22.643 C 313.737 18.706,308.962 16.950,303.417 17.511 M345.417 17.449 C 341.654 17.857,338.375 19.640,336.050 22.540 L 335.417 23.330 335.371 20.748 L 335.325 18.167 332.996 18.167 L 330.667 18.167 330.667 35.083 L 330.667 52.000 332.988 52.000 L 335.309 52.000 335.376 42.708 C 335.447 33.014,335.531 31.762,336.263 29.549 C 339.282 20.424,351.148 19.269,353.018 27.917 C 353.178 28.656,353.258 31.914,353.326 40.417 L 353.417 51.917 355.750 51.917 L 358.083 51.917 358.177 42.500 C 358.299 30.222,358.540 28.767,360.937 25.836 C 365.270 20.537,373.360 20.815,375.391 26.333 C 375.972 27.911,376.047 29.325,376.149 40.667 L 376.250 51.917 378.625 51.963 L 381.000 52.009 380.997 41.130 C 380.993 27.591,380.868 26.339,379.204 23.083 C 375.188 15.228,363.457 15.572,358.000 23.705 C 357.074 25.085,357.208 25.120,356.428 23.289 C 354.771 19.401,350.128 16.938,345.417 17.449 M95.250 22.425 C 102.928 24.443,106.984 32.954,103.863 40.500 C 99.615 50.772,85.047 50.866,80.642 40.650 C 76.337 30.666,85.085 19.752,95.250 22.425 M153.083 22.501 C 164.353 26.087,165.727 41.625,155.250 47.001 C 144.890 52.317,133.338 41.919,137.221 30.774 C 139.510 24.203,146.680 20.463,153.083 22.501 M268.932 22.335 C 273.291 23.443,276.157 26.002,277.665 30.135 L 278.163 31.500 266.001 31.500 L 253.838 31.500 254.183 30.626 C 256.830 23.910,262.527 20.707,268.932 22.335 M309.549 22.560 C 320.823 26.400,321.919 41.917,311.284 47.122 C 300.170 52.562,288.579 40.356,294.163 29.092 C 296.902 23.567,303.848 20.618,309.549 22.560 " stroke="none" fill="#4c849c" fill-rule="evenodd"></path><path id="path1" d="M177.574 45.148 C 176.117 45.810,175.221 47.471,175.367 49.240 C 175.764 54.019,183.034 53.959,183.305 49.175 C 183.487 45.939,180.482 43.827,177.574 45.148 " stroke="none" fill="#d4fc34" fill-rule="evenodd"></path><path id="path2" d="" stroke="none" fill="#6c84a0" fill-rule="evenodd"></path><path id="path3" d="" stroke="none" fill="#6cc468" fill-rule="evenodd"></path><path id="path4" d="" stroke="none" fill="#6c84a0" fill-rule="evenodd"></path></g></svg>