<svg id="svg" version="1.1" xmlns="http://www.w3.org/2000/svg" xmlns:xlink="http://www.w3.org/1999/xlink" width="400" height="356.687898089172" viewBox="0, 0, 400,356.687898089172"><g id="svgg"><path id="path0" d="M137.199 62.465 C 136.414 62.627,134.641 62.769,133.260 62.781 C 131.878 62.792,129.871 63.025,128.799 63.299 C 127.728 63.573,125.968 63.914,124.888 64.057 C 123.809 64.200,122.609 64.538,122.222 64.808 C 121.835 65.078,121.010 65.299,120.388 65.299 C 119.766 65.299,118.557 65.616,117.702 66.005 C 116.846 66.393,115.693 66.714,115.140 66.718 C 114.586 66.723,113.892 66.967,113.598 67.261 C 113.303 67.556,112.713 67.798,112.285 67.799 C 111.857 67.800,111.026 68.120,110.437 68.510 C 109.848 68.900,109.025 69.220,108.607 69.222 C 108.190 69.223,107.652 69.461,107.412 69.750 C 107.172 70.039,106.430 70.378,105.763 70.503 C 105.095 70.628,104.550 70.861,104.550 71.020 C 104.550 71.179,103.988 71.495,103.301 71.722 C 102.614 71.948,102.052 72.269,102.052 72.435 C 102.052 72.600,101.570 72.841,100.981 72.971 C 100.393 73.100,99.911 73.342,99.911 73.508 C 99.911 73.674,99.469 74.033,98.930 74.306 C 97.129 75.216,96.176 75.816,94.677 76.985 C 93.859 77.623,93.085 78.145,92.956 78.145 C 91.536 78.145,78.539 90.446,74.561 95.555 C 72.273 98.493,71.012 99.344,70.179 98.511 C 69.874 98.207,69.733 94.158,69.663 83.747 C 69.576 70.829,69.507 69.358,68.970 68.956 C 68.518 68.618,65.121 68.510,54.890 68.510 L 41.405 68.510 41.212 69.313 C 41.105 69.755,41.062 117.725,41.116 175.914 L 41.213 281.713 54.416 281.593 C 61.677 281.527,67.893 281.398,68.229 281.306 C 68.994 281.096,68.994 281.130,69.533 222.123 C 69.759 197.331,70.104 176.073,70.316 173.773 C 70.525 171.517,70.837 166.539,71.011 162.712 C 71.205 158.424,71.539 155.005,71.881 153.803 C 72.186 152.730,72.435 151.034,72.435 150.035 C 72.435 148.990,72.658 147.924,72.959 147.526 C 73.247 147.145,73.495 146.271,73.510 145.584 C 73.525 144.897,73.783 143.693,74.085 142.908 C 74.386 142.123,74.758 140.882,74.912 140.149 C 75.066 139.417,75.360 138.614,75.566 138.365 C 75.771 138.116,76.051 137.316,76.187 136.587 C 76.324 135.858,76.659 135.076,76.933 134.849 C 77.207 134.621,77.431 134.119,77.431 133.731 C 77.431 133.344,77.664 132.601,77.950 132.080 C 78.236 131.559,78.905 130.169,79.438 128.992 C 79.971 127.814,80.819 126.209,81.323 125.424 C 81.827 124.639,82.438 123.595,82.682 123.104 C 83.177 122.103,86.241 117.802,87.065 116.950 C 87.360 116.646,88.082 115.779,88.671 115.024 C 91.760 111.061,102.117 101.695,103.409 101.695 C 103.596 101.695,103.962 101.437,104.224 101.123 C 104.485 100.808,105.026 100.407,105.427 100.231 C 106.261 99.866,107.203 99.290,108.429 98.394 C 108.900 98.051,109.564 97.770,109.906 97.770 C 110.248 97.770,110.728 97.529,110.972 97.235 C 111.217 96.940,111.758 96.698,112.176 96.697 C 112.593 96.696,113.417 96.376,114.005 95.986 C 114.594 95.596,115.417 95.276,115.835 95.274 C 116.253 95.273,116.784 95.044,117.015 94.765 C 117.247 94.486,118.109 94.144,118.932 94.006 C 119.755 93.868,120.745 93.535,121.132 93.265 C 121.519 92.995,122.448 92.774,123.195 92.774 C 123.943 92.774,125.152 92.520,125.881 92.210 C 128.822 90.959,144.885 90.955,147.301 92.204 C 147.907 92.518,149.018 92.774,149.769 92.774 C 150.520 92.774,151.451 92.992,151.839 93.259 C 152.226 93.525,153.128 93.851,153.845 93.982 C 154.561 94.113,155.343 94.457,155.583 94.746 C 155.823 95.035,156.328 95.272,156.704 95.272 C 157.080 95.272,157.823 95.560,158.355 95.911 C 159.844 96.894,160.654 97.359,161.820 97.896 C 162.409 98.167,163.322 98.795,163.850 99.291 C 164.378 99.788,164.965 100.251,165.153 100.320 C 166.287 100.736,173.773 107.849,173.773 108.510 C 173.773 108.662,174.256 109.316,174.846 109.961 C 175.435 110.607,176.010 111.425,176.122 111.778 C 176.234 112.131,176.876 113.255,177.547 114.275 C 178.219 115.295,178.769 116.384,178.769 116.694 C 178.769 117.005,179.005 117.570,179.293 117.951 C 179.581 118.332,179.827 118.965,179.840 119.358 C 179.853 119.750,180.174 120.714,180.553 121.499 C 180.932 122.284,181.248 123.357,181.255 123.884 C 181.261 124.411,181.459 125.294,181.695 125.847 C 181.930 126.399,182.316 128.136,182.553 129.706 C 182.790 131.276,183.155 133.202,183.365 133.988 C 183.576 134.773,183.752 136.780,183.756 138.448 C 183.761 140.116,184.013 142.846,184.316 144.514 C 184.686 146.548,184.984 151.836,185.224 160.571 C 185.420 167.734,185.718 178.573,185.887 184.657 C 186.056 190.740,186.209 214.853,186.228 238.240 C 186.247 261.627,186.360 281.016,186.479 281.327 C 186.771 282.089,213.127 281.909,213.895 281.139 C 214.394 280.640,214.492 274.712,214.805 226.583 C 215.015 194.249,215.274 174.938,215.524 172.881 C 215.739 171.115,216.050 166.780,216.215 163.247 C 216.380 159.715,216.701 156.353,216.927 155.777 C 217.153 155.201,217.423 153.435,217.527 151.852 C 217.630 150.269,217.932 148.412,218.198 147.725 C 218.463 147.038,218.770 145.711,218.879 144.775 C 218.989 143.840,219.322 142.603,219.619 142.028 C 219.917 141.452,220.161 140.571,220.161 140.070 C 220.161 139.569,220.482 138.560,220.874 137.827 C 221.267 137.095,221.588 136.225,221.588 135.895 C 221.588 135.565,221.813 134.840,222.089 134.284 C 222.931 132.586,223.999 130.107,224.251 129.260 C 224.383 128.818,224.640 128.457,224.823 128.457 C 225.006 128.457,225.156 128.065,225.156 127.586 C 225.156 127.107,225.333 126.605,225.549 126.472 C 225.766 126.338,226.171 125.726,226.450 125.113 C 227.445 122.923,229.350 119.744,229.748 119.611 C 229.970 119.537,230.152 119.269,230.152 119.014 C 230.152 118.496,233.209 114.429,233.738 114.243 C 233.924 114.178,234.077 113.976,234.077 113.796 C 234.077 113.146,240.677 106.844,244.068 104.257 C 245.147 103.433,246.265 102.560,246.552 102.316 C 247.259 101.717,248.328 101.079,249.509 100.550 C 250.049 100.309,250.491 100.005,250.491 99.875 C 250.491 99.571,257.138 96.343,257.765 96.343 C 257.914 96.343,258.276 96.102,258.570 95.807 C 258.865 95.513,259.482 95.272,259.943 95.272 C 260.404 95.272,261.235 95.040,261.791 94.756 C 263.354 93.957,266.186 93.092,268.153 92.813 C 269.135 92.674,270.339 92.338,270.830 92.067 C 272.971 90.882,290.922 90.989,293.744 92.203 C 294.474 92.517,295.522 92.774,296.073 92.774 C 296.625 92.774,297.393 92.995,297.780 93.265 C 298.167 93.535,299.157 93.868,299.979 94.006 C 300.802 94.144,301.665 94.486,301.896 94.765 C 302.128 95.044,302.597 95.272,302.939 95.272 C 303.281 95.272,303.969 95.593,304.468 95.986 C 304.967 96.378,305.558 96.699,305.780 96.699 C 306.002 96.699,306.619 97.003,307.151 97.373 C 307.683 97.744,309.081 98.664,310.259 99.419 C 313.351 101.402,320.647 108.820,321.621 110.972 C 321.754 111.267,322.178 111.989,322.562 112.578 C 322.946 113.167,323.490 114.151,323.770 114.765 C 324.051 115.379,324.457 115.990,324.674 116.124 C 324.890 116.257,325.067 116.734,325.067 117.183 C 325.067 117.632,325.388 118.370,325.781 118.822 C 326.173 119.275,326.499 120.062,326.506 120.572 C 326.512 121.082,326.742 121.795,327.016 122.158 C 327.291 122.520,327.626 123.885,327.762 125.191 C 327.898 126.496,328.184 127.886,328.398 128.278 C 328.624 128.694,328.886 132.493,329.027 137.377 C 329.159 141.989,329.450 150.740,329.672 156.824 C 329.894 162.908,330.254 189.483,330.472 215.879 C 330.814 257.281,331.161 281.466,331.419 281.806 C 331.458 281.857,337.953 281.857,345.852 281.806 L 360.214 281.713 360.313 264.585 C 360.492 233.534,359.265 141.081,358.594 135.058 C 358.397 133.292,358.074 129.679,357.875 127.029 C 357.677 124.380,357.279 121.607,356.991 120.867 C 356.703 120.127,356.467 118.758,356.467 117.824 C 356.467 116.891,356.247 115.810,355.977 115.423 C 355.707 115.036,355.366 114.000,355.218 113.121 C 355.071 112.242,354.747 111.199,354.500 110.802 C 354.252 110.405,353.947 109.494,353.822 108.778 C 353.697 108.062,353.357 107.279,353.068 107.039 C 352.779 106.799,352.542 106.241,352.542 105.798 C 352.542 105.356,352.302 104.794,352.007 104.550 C 351.713 104.305,351.472 103.876,351.472 103.595 C 351.472 103.315,351.159 102.491,350.776 101.766 C 350.393 101.040,349.989 100.205,349.877 99.911 C 349.765 99.616,349.284 98.733,348.807 97.948 C 348.330 97.163,347.761 96.123,347.543 95.636 C 347.324 95.150,347.027 94.668,346.883 94.566 C 346.739 94.464,346.158 93.580,345.592 92.601 C 345.027 91.623,344.428 90.660,344.261 90.461 C 344.095 90.261,343.281 89.213,342.452 88.132 C 339.149 83.821,333.865 78.577,331.222 76.988 C 330.584 76.604,330.062 76.145,330.062 75.968 C 330.062 75.791,329.846 75.647,329.583 75.647 C 329.319 75.647,328.812 75.326,328.457 74.933 C 328.102 74.541,327.674 74.219,327.506 74.219 C 327.338 74.219,326.439 73.696,325.509 73.057 C 323.700 71.813,320.762 70.294,320.165 70.294 C 319.965 70.294,319.602 70.054,319.358 69.759 C 319.113 69.465,318.616 69.224,318.252 69.224 C 317.888 69.224,317.065 68.903,316.423 68.512 C 315.780 68.120,314.929 67.799,314.531 67.798 C 314.133 67.797,313.491 67.578,313.103 67.311 C 312.716 67.043,311.659 66.715,310.753 66.582 C 309.847 66.449,308.803 66.111,308.434 65.831 C 308.064 65.551,307.071 65.316,306.227 65.310 C 305.383 65.304,304.247 65.069,303.703 64.787 C 303.159 64.506,301.281 64.169,299.528 64.038 C 297.776 63.908,295.551 63.576,294.583 63.301 C 292.648 62.751,287.151 62.685,282.248 63.152 C 274.271 63.912,271.275 64.321,270.240 64.789 C 269.622 65.070,268.578 65.300,267.921 65.301 C 267.264 65.302,266.244 65.555,265.656 65.863 C 265.067 66.170,263.824 66.513,262.893 66.623 C 261.962 66.734,261.019 67.044,260.798 67.311 C 260.576 67.578,259.970 67.797,259.451 67.797 C 258.933 67.797,257.909 68.118,257.177 68.510 C 256.445 68.903,255.463 69.224,254.996 69.224 C 254.529 69.224,253.946 69.465,253.702 69.759 C 253.458 70.054,253.022 70.294,252.735 70.294 C 252.048 70.294,245.610 73.388,245.320 73.857 C 245.197 74.056,244.809 74.219,244.459 74.219 C 244.108 74.219,243.531 74.541,243.176 74.933 C 242.821 75.326,242.388 75.647,242.214 75.647 C 241.887 75.647,239.991 76.914,239.146 77.698 C 238.881 77.944,238.430 78.145,238.144 78.145 C 237.857 78.145,237.530 78.385,237.417 78.680 C 237.304 78.974,236.996 79.215,236.732 79.215 C 236.469 79.215,236.125 79.417,235.968 79.663 C 235.811 79.910,234.719 80.823,233.541 81.694 C 227.932 85.840,217.955 96.356,216.850 99.286 C 216.721 99.630,216.449 99.911,216.247 99.911 C 216.044 99.911,215.879 100.103,215.879 100.338 C 215.879 100.705,214.276 103.315,213.731 103.836 C 213.629 103.934,213.351 104.456,213.114 104.996 C 212.877 105.535,212.519 105.977,212.318 105.977 C 212.118 105.977,211.954 106.188,211.954 106.445 C 211.954 108.313,208.441 109.392,207.672 107.761 C 206.590 105.467,206.237 104.590,206.018 103.661 C 205.880 103.074,205.553 102.380,205.292 102.119 C 205.031 101.858,204.817 101.354,204.817 100.999 C 204.817 100.645,204.587 100.164,204.305 99.930 C 204.023 99.696,203.689 99.034,203.563 98.459 C 203.436 97.884,203.187 97.413,203.009 97.413 C 202.831 97.413,202.446 96.891,202.153 96.253 C 201.588 95.024,201.385 94.691,199.554 91.993 C 198.916 91.053,198.394 90.209,198.394 90.117 C 198.394 90.025,197.733 89.261,196.926 88.418 C 196.118 87.576,195.199 86.485,194.883 85.995 C 193.974 84.582,187.912 78.145,187.491 78.145 C 187.404 78.145,187.022 77.864,186.642 77.520 C 186.262 77.177,185.521 76.574,184.995 76.182 C 184.470 75.789,183.782 75.187,183.466 74.844 C 183.151 74.500,182.766 74.219,182.611 74.219 C 182.456 74.219,181.530 73.657,180.553 72.971 C 179.576 72.284,178.553 71.722,178.281 71.722 C 178.009 71.722,177.586 71.481,177.342 71.186 C 177.097 70.892,176.710 70.651,176.481 70.651 C 176.253 70.651,175.435 70.330,174.665 69.938 C 173.896 69.545,172.996 69.224,172.666 69.224 C 172.337 69.224,171.367 68.906,170.512 68.518 C 169.656 68.130,168.534 67.809,168.019 67.804 C 167.503 67.800,166.881 67.556,166.637 67.261 C 166.393 66.967,165.691 66.723,165.077 66.718 C 164.463 66.714,163.261 66.393,162.405 66.005 C 161.550 65.616,160.345 65.298,159.729 65.297 C 159.113 65.295,158.163 65.062,157.619 64.778 C 157.074 64.494,155.629 64.160,154.407 64.035 C 153.185 63.910,151.543 63.597,150.758 63.339 C 149.564 62.947,140.126 61.972,138.983 62.122 C 138.787 62.148,137.984 62.302,137.199 62.465 " stroke="none" fill="#35849c" fill-rule="evenodd"></path><path id="path1" d="M0.000 178.412 L 0.000 356.824 200.000 356.824 L 400.000 356.824 400.000 178.412 L 400.000 0.000 200.000 0.000 L 0.000 0.000 0.000 178.412 M146.501 61.518 C 147.469 61.793,149.387 62.120,150.764 62.245 C 152.141 62.369,153.907 62.699,154.689 62.977 C 155.471 63.256,156.592 63.491,157.181 63.501 C 157.770 63.511,158.661 63.733,159.161 63.994 C 159.662 64.255,160.836 64.573,161.772 64.702 C 162.708 64.830,163.819 65.177,164.242 65.474 C 164.665 65.770,165.502 66.012,166.102 66.012 C 166.701 66.012,167.509 66.233,167.896 66.503 C 168.283 66.773,169.267 67.106,170.083 67.242 C 170.899 67.379,171.862 67.716,172.224 67.989 C 172.586 68.263,173.251 68.493,173.703 68.499 C 174.405 68.509,175.786 69.098,178.055 70.356 C 178.350 70.519,178.975 70.818,179.445 71.020 C 179.915 71.221,180.901 71.863,181.637 72.446 C 182.373 73.029,183.090 73.506,183.231 73.506 C 183.849 73.506,192.685 81.328,192.685 81.875 C 192.685 81.978,193.147 82.506,193.713 83.048 C 194.818 84.107,199.195 89.525,200.129 90.990 C 200.441 91.481,200.782 91.963,200.885 92.061 C 201.076 92.242,202.533 94.513,203.289 95.807 C 203.723 96.550,206.163 101.509,207.347 104.053 C 207.722 104.860,208.029 105.795,208.029 106.131 C 208.029 106.752,208.827 107.761,209.318 107.761 C 209.759 107.761,211.240 106.244,211.240 105.791 C 211.240 105.562,211.561 105.083,211.954 104.728 C 212.346 104.373,212.667 103.945,212.667 103.777 C 212.667 103.609,213.199 102.711,213.849 101.780 C 214.499 100.850,215.136 99.808,215.265 99.465 C 215.394 99.121,215.665 98.840,215.867 98.840 C 216.070 98.840,216.236 98.624,216.236 98.360 C 216.236 98.096,216.557 97.590,216.949 97.235 C 217.342 96.879,217.663 96.381,217.663 96.127 C 217.663 95.872,217.872 95.536,218.129 95.379 C 218.385 95.222,219.504 93.944,220.616 92.539 C 222.652 89.966,228.641 83.854,229.126 83.854 C 229.270 83.854,229.661 83.580,229.996 83.245 C 230.331 82.910,231.828 81.707,233.322 80.572 C 234.816 79.437,236.200 78.386,236.396 78.237 C 237.729 77.225,241.287 74.933,241.526 74.933 C 241.686 74.933,242.107 74.612,242.462 74.219 C 242.817 73.827,243.404 73.506,243.766 73.506 C 244.128 73.506,244.425 73.356,244.425 73.172 C 244.425 72.989,244.987 72.635,245.674 72.387 C 246.360 72.138,246.922 71.820,246.922 71.678 C 246.922 71.537,247.393 71.318,247.968 71.192 C 248.543 71.066,249.205 70.732,249.439 70.450 C 249.673 70.168,250.128 69.938,250.450 69.938 C 250.773 69.938,251.636 69.616,252.368 69.224 C 253.100 68.831,253.947 68.510,254.249 68.510 C 254.551 68.510,255.153 68.285,255.588 68.010 C 256.023 67.735,256.940 67.393,257.627 67.251 C 258.314 67.108,259.193 66.771,259.580 66.502 C 259.967 66.233,260.657 66.012,261.114 66.012 C 261.571 66.012,262.393 65.780,262.941 65.497 C 263.490 65.213,264.806 64.868,265.867 64.729 C 266.929 64.590,268.118 64.279,268.510 64.037 C 268.903 63.796,270.403 63.497,271.845 63.373 C 273.286 63.248,274.812 62.957,275.235 62.726 C 276.249 62.171,292.603 61.902,295.986 62.385 C 300.160 62.981,303.404 63.537,304.906 63.912 C 305.691 64.109,307.130 64.434,308.104 64.635 C 309.078 64.837,310.314 65.229,310.852 65.507 C 311.389 65.785,312.283 66.012,312.838 66.012 C 313.393 66.012,314.163 66.233,314.550 66.502 C 314.938 66.771,315.765 67.103,316.389 67.239 C 317.014 67.375,317.716 67.716,317.949 67.998 C 318.183 68.280,318.604 68.510,318.885 68.510 C 319.321 68.510,320.364 68.983,322.926 70.344 C 324.796 71.337,327.405 72.973,327.505 73.217 C 327.571 73.376,327.827 73.506,328.074 73.506 C 328.322 73.506,328.815 73.827,329.170 74.219 C 329.526 74.612,329.992 74.934,330.207 74.935 C 330.422 74.936,331.209 75.498,331.956 76.184 C 332.703 76.870,333.401 77.431,333.508 77.431 C 333.933 77.431,339.536 82.926,340.823 84.605 C 341.283 85.205,342.149 86.214,342.747 86.848 C 344.118 88.300,348.260 94.552,348.260 95.168 C 348.260 95.421,348.381 95.629,348.528 95.630 C 348.675 95.631,349.260 96.554,349.827 97.682 C 350.394 98.810,350.997 99.973,351.166 100.268 C 351.335 100.562,351.635 101.204,351.832 101.695 C 352.029 102.186,352.430 103.013,352.723 103.534 C 353.016 104.055,353.256 104.718,353.256 105.007 C 353.256 105.296,353.484 105.722,353.763 105.954 C 354.042 106.185,354.378 107.008,354.508 107.781 C 354.639 108.555,354.879 109.188,355.043 109.188 C 355.206 109.188,355.501 109.871,355.698 110.705 C 355.896 111.539,356.303 112.864,356.604 113.649 C 356.904 114.434,357.157 115.646,357.165 116.343 C 357.174 117.039,357.352 117.780,357.560 117.988 C 357.769 118.197,358.089 119.950,358.272 121.885 C 358.455 123.820,358.763 125.889,358.957 126.484 C 359.150 127.078,359.477 131.499,359.683 136.307 C 359.890 141.115,360.206 147.136,360.387 149.688 C 360.568 152.239,360.725 163.640,360.737 175.022 C 360.758 195.526,361.206 239.885,361.670 267.484 C 361.910 281.766,361.908 281.802,361.151 282.560 C 360.130 283.581,331.934 283.768,330.499 282.763 L 329.706 282.208 329.676 244.850 C 329.658 223.589,329.502 206.571,329.312 205.352 C 329.128 204.175,328.825 188.118,328.638 169.670 C 328.428 148.902,328.158 135.554,327.928 134.619 C 327.725 133.789,327.464 131.621,327.350 129.802 C 327.236 127.983,326.836 125.570,326.461 124.441 C 326.087 123.312,325.781 122.108,325.782 121.765 C 325.782 121.422,325.469 120.500,325.086 119.715 C 324.703 118.930,324.041 117.565,323.614 116.682 C 321.260 111.803,319.319 109.122,315.023 104.817 C 312.918 102.707,311.036 100.981,310.842 100.981 C 310.647 100.981,310.272 100.781,310.007 100.535 C 309.036 99.635,307.350 98.608,305.174 97.589 C 303.947 97.015,302.944 96.419,302.944 96.266 C 302.944 96.112,302.663 95.980,302.319 95.974 C 301.976 95.967,301.053 95.651,300.268 95.272 C 299.483 94.893,298.410 94.577,297.885 94.571 C 297.359 94.564,296.713 94.342,296.449 94.078 C 296.185 93.814,294.970 93.485,293.749 93.347 C 292.528 93.209,290.971 92.863,290.290 92.578 C 288.483 91.823,274.804 91.832,273.340 92.589 C 272.778 92.880,271.381 93.225,270.236 93.355 C 269.091 93.486,267.837 93.810,267.450 94.076 C 267.062 94.341,266.293 94.558,265.740 94.558 C 265.188 94.558,264.106 94.880,263.336 95.272 C 262.567 95.665,261.549 95.986,261.075 95.986 C 260.600 95.986,260.026 96.210,259.799 96.484 C 259.572 96.757,258.830 97.086,258.150 97.213 C 257.470 97.341,256.913 97.596,256.913 97.779 C 256.913 97.963,256.472 98.221,255.932 98.353 C 255.393 98.485,254.391 98.890,253.707 99.252 C 253.023 99.614,252.261 99.911,252.012 99.911 C 251.764 99.911,251.561 100.063,251.561 100.248 C 251.561 100.563,250.904 100.993,248.707 102.116 C 248.216 102.367,247.686 102.776,247.529 103.025 C 247.372 103.275,247.019 103.479,246.744 103.479 C 246.469 103.479,246.116 103.694,245.959 103.957 C 245.802 104.219,245.408 104.581,245.084 104.760 C 243.506 105.630,234.798 113.819,234.784 114.446 C 234.781 114.596,234.372 115.104,233.876 115.575 C 232.561 116.823,229.343 121.630,228.364 123.811 C 228.145 124.297,227.856 124.779,227.721 124.881 C 227.586 124.983,227.102 125.870,226.646 126.851 C 226.189 127.832,225.507 129.229,225.129 129.955 C 224.751 130.680,224.442 131.504,224.442 131.784 C 224.442 132.065,224.202 132.494,223.907 132.739 C 223.613 132.983,223.367 133.524,223.360 133.942 C 223.353 134.360,223.038 135.343,222.658 136.128 C 222.279 136.913,221.963 137.881,221.957 138.279 C 221.950 138.677,221.726 139.319,221.459 139.707 C 221.191 140.094,220.854 141.213,220.710 142.194 C 220.565 143.176,220.274 144.300,220.062 144.692 C 219.590 145.570,218.817 149.979,218.343 154.505 C 218.148 156.369,217.764 159.260,217.491 160.928 C 217.218 162.596,216.905 167.733,216.795 172.344 C 216.685 176.955,216.442 184.020,216.253 188.044 C 216.065 192.069,215.829 214.619,215.728 238.156 C 215.576 273.759,215.463 281.032,215.056 281.439 C 213.635 282.861,187.625 284.241,186.100 282.975 C 185.611 282.570,185.549 279.433,185.549 255.422 C 185.549 239.204,185.401 227.009,185.181 225.046 C 184.979 223.242,184.663 206.753,184.478 188.403 C 184.290 169.855,183.979 153.852,183.777 152.364 C 183.577 150.892,183.261 147.038,183.074 143.800 C 182.888 140.562,182.561 136.789,182.348 135.415 C 181.213 128.090,180.453 124.240,179.955 123.283 C 179.750 122.890,179.480 122.007,179.353 121.320 C 179.227 120.633,178.899 119.590,178.625 119.001 C 177.335 116.227,176.155 113.911,175.533 112.935 C 175.158 112.346,174.657 111.463,174.420 110.972 C 173.747 109.582,165.628 101.679,163.245 100.094 C 160.923 98.551,159.826 97.920,157.360 96.714 C 153.714 94.931,152.780 94.558,151.958 94.558 C 151.484 94.558,150.779 94.340,150.392 94.074 C 150.005 93.807,148.683 93.478,147.454 93.342 C 146.226 93.206,144.459 92.864,143.529 92.582 C 141.206 91.877,132.532 91.885,129.884 92.595 C 128.805 92.885,126.878 93.228,125.602 93.357 C 124.326 93.486,122.966 93.809,122.579 94.075 C 122.192 94.341,121.407 94.558,120.834 94.558 C 120.261 94.558,119.093 94.880,118.237 95.272 C 117.382 95.665,115.982 96.307,115.126 96.699 C 114.270 97.092,113.307 97.413,112.985 97.413 C 112.663 97.413,112.400 97.561,112.400 97.741 C 112.400 97.922,111.878 98.184,111.240 98.323 C 110.602 98.463,109.697 98.877,109.229 99.244 C 108.761 99.611,108.159 99.911,107.891 99.911 C 107.623 99.911,107.404 100.042,107.404 100.202 C 107.404 100.361,106.882 100.762,106.244 101.091 C 104.758 101.859,103.708 102.520,103.468 102.838 C 103.364 102.976,102.621 103.538,101.817 104.087 C 98.651 106.249,91.777 112.694,89.384 115.745 C 88.796 116.496,88.090 117.347,87.817 117.636 C 87.543 117.924,86.972 118.671,86.547 119.294 C 86.122 119.918,85.222 121.239,84.546 122.230 C 82.878 124.678,82.524 125.249,81.904 126.494 C 81.610 127.083,81.230 127.806,81.059 128.100 C 80.888 128.394,80.378 129.438,79.927 130.419 C 79.475 131.401,78.890 132.630,78.625 133.151 C 78.361 133.671,78.139 134.314,78.132 134.578 C 78.126 134.842,77.810 135.700,77.431 136.485 C 77.052 137.270,76.736 138.158,76.729 138.458 C 76.723 138.757,76.500 139.319,76.235 139.707 C 75.969 140.094,75.644 141.110,75.511 141.964 C 75.378 142.819,75.033 143.975,74.744 144.534 C 74.456 145.092,74.219 146.204,74.219 147.005 C 74.219 147.806,73.990 149.010,73.710 149.680 C 73.430 150.350,73.097 152.232,72.970 153.861 C 72.843 155.491,72.521 158.269,72.255 160.036 C 71.986 161.820,71.681 167.845,71.568 173.595 C 71.457 179.286,71.193 187.957,70.983 192.864 C 70.772 197.770,70.491 219.766,70.358 241.744 L 70.116 281.704 69.153 282.165 C 67.833 282.797,42.026 283.559,40.803 283.002 L 39.964 282.620 39.964 175.430 C 39.964 85.255,40.042 68.177,40.452 67.836 C 40.802 67.546,45.055 67.458,55.528 67.525 L 70.116 67.618 70.327 82.426 C 70.443 90.571,70.563 97.275,70.594 97.324 C 70.760 97.584,72.079 97.362,72.079 97.075 C 72.079 96.888,72.447 96.339,72.897 95.853 C 73.348 95.367,74.271 94.285,74.949 93.448 C 77.431 90.386,85.180 82.779,87.957 80.677 C 89.527 79.488,91.066 78.272,91.377 77.973 C 91.688 77.675,92.129 77.431,92.358 77.431 C 92.587 77.431,92.774 77.274,92.774 77.083 C 92.774 76.892,93.216 76.486,93.756 76.180 C 94.295 75.875,95.219 75.306,95.807 74.916 C 96.396 74.526,97.319 74.014,97.859 73.778 C 98.399 73.542,98.840 73.237,98.840 73.100 C 98.840 72.964,99.844 72.349,101.070 71.735 C 102.297 71.121,103.541 70.489,103.836 70.331 C 104.635 69.901,107.348 68.655,109.367 67.791 C 110.348 67.371,111.577 66.799,112.098 66.520 C 112.619 66.241,113.506 66.012,114.070 66.012 C 114.634 66.012,115.432 65.777,115.843 65.489 C 116.255 65.201,117.294 64.857,118.153 64.725 C 119.012 64.594,120.116 64.290,120.607 64.050 C 121.097 63.811,122.285 63.512,123.247 63.386 C 124.208 63.260,125.180 63.003,125.406 62.816 C 125.632 62.628,127.736 62.312,130.081 62.113 C 132.426 61.914,134.826 61.600,135.415 61.415 C 137.116 60.880,144.501 60.949,146.501 61.518 " stroke="none" fill="#fbfbfb" fill-rule="evenodd"></path><path id="path2" d="M135.415 61.415 C 134.826 61.600,132.426 61.914,130.081 62.113 C 127.736 62.312,125.632 62.628,125.406 62.816 C 125.180 63.003,124.208 63.260,123.247 63.386 C 122.285 63.512,121.097 63.811,120.607 64.050 C 120.116 64.290,119.012 64.594,118.153 64.725 C 117.294 64.857,116.250 65.219,115.833 65.529 C 115.081 66.090,115.082 66.092,115.968 65.839 C 123.073 63.813,125.555 63.223,128.814 62.782 C 130.285 62.583,132.774 62.247,134.344 62.036 C 139.406 61.356,141.568 61.285,144.047 61.717 C 145.383 61.950,147.600 62.280,148.974 62.451 C 152.517 62.890,156.602 63.806,164.139 65.852 L 165.031 66.094 164.252 65.514 C 163.824 65.196,162.708 64.830,161.772 64.702 C 160.836 64.573,159.662 64.255,159.161 63.994 C 158.661 63.733,157.770 63.511,157.181 63.501 C 156.592 63.491,155.471 63.256,154.689 62.977 C 153.907 62.699,152.141 62.369,150.764 62.245 C 149.387 62.120,147.469 61.793,146.501 61.518 C 144.501 60.949,137.116 60.880,135.415 61.415 M277.074 62.466 C 276.093 62.619,274.567 62.910,273.684 63.114 C 272.801 63.317,271.432 63.491,270.641 63.499 C 269.851 63.508,268.888 63.732,268.500 63.998 C 268.113 64.265,266.929 64.595,265.867 64.732 C 264.806 64.869,263.490 65.213,262.941 65.497 C 262.393 65.780,261.571 66.012,261.114 66.012 C 260.657 66.012,259.967 66.233,259.580 66.502 C 259.193 66.771,258.314 67.108,257.627 67.251 C 256.940 67.393,256.023 67.735,255.588 68.010 C 255.153 68.285,254.551 68.510,254.249 68.510 C 253.947 68.510,253.100 68.831,252.368 69.224 C 251.636 69.616,250.773 69.938,250.450 69.938 C 250.128 69.938,249.673 70.168,249.439 70.450 C 249.205 70.732,248.543 71.066,247.968 71.192 C 247.393 71.318,246.922 71.537,246.922 71.678 C 246.922 71.820,246.360 72.138,245.674 72.387 C 244.987 72.635,244.425 72.989,244.425 73.172 C 244.425 73.356,244.128 73.506,243.766 73.506 C 243.404 73.506,242.817 73.827,242.462 74.219 C 242.107 74.612,241.686 74.933,241.526 74.933 C 241.287 74.933,237.729 77.225,236.396 78.237 C 236.200 78.386,234.816 79.437,233.322 80.572 C 231.828 81.707,230.331 82.910,229.996 83.245 C 229.661 83.580,229.270 83.854,229.126 83.854 C 228.641 83.854,222.652 89.966,220.616 92.539 C 219.504 93.944,218.385 95.222,218.129 95.379 C 217.872 95.536,217.663 95.872,217.663 96.127 C 217.663 96.381,217.342 96.879,216.949 97.235 C 216.557 97.590,216.236 98.079,216.236 98.322 C 216.236 98.565,215.995 98.856,215.700 98.969 C 215.406 99.082,215.165 99.342,215.165 99.546 C 215.165 99.751,214.603 100.718,213.916 101.695 C 213.229 102.672,212.667 103.609,212.667 103.777 C 212.667 103.945,212.346 104.373,211.954 104.728 C 211.561 105.083,211.240 105.562,211.240 105.791 C 211.240 106.244,209.759 107.761,209.318 107.761 C 208.827 107.761,208.029 106.752,208.029 106.131 C 208.029 105.795,207.722 104.860,207.347 104.053 C 206.163 101.509,203.723 96.550,203.289 95.807 C 202.533 94.513,201.076 92.242,200.885 92.061 C 200.782 91.963,200.441 91.481,200.129 90.990 C 199.195 89.525,194.818 84.107,193.713 83.048 C 193.147 82.506,192.685 81.978,192.685 81.875 C 192.685 81.328,183.849 73.506,183.231 73.506 C 183.090 73.506,182.373 73.029,181.637 72.446 C 180.901 71.863,179.915 71.221,179.445 71.020 C 178.975 70.818,178.350 70.519,178.055 70.356 C 175.786 69.098,174.405 68.509,173.703 68.499 C 173.251 68.493,172.586 68.263,172.224 67.989 C 171.862 67.716,170.899 67.379,170.083 67.242 C 169.267 67.106,168.283 66.773,167.896 66.503 C 167.509 66.233,166.706 66.020,166.112 66.028 C 164.850 66.046,166.518 66.801,169.313 67.477 C 170.098 67.666,171.246 68.057,171.865 68.344 C 172.483 68.632,173.213 68.867,173.486 68.867 C 173.941 68.867,178.775 71.199,180.910 72.449 C 187.249 76.158,199.155 88.858,202.710 95.703 C 205.623 101.314,207.388 105.146,207.781 106.718 C 208.431 109.316,209.981 108.658,212.472 104.728 C 215.104 100.574,219.023 94.865,219.452 94.558 C 219.589 94.460,220.513 93.417,221.505 92.239 C 228.153 84.346,238.265 76.542,248.274 71.580 C 250.097 70.677,251.783 69.932,252.021 69.926 C 252.258 69.920,252.765 69.679,253.146 69.391 C 253.527 69.103,254.064 68.867,254.341 68.867 C 254.617 68.867,255.349 68.644,255.967 68.370 C 258.148 67.407,263.320 65.788,266.504 65.073 C 267.756 64.792,269.070 64.406,269.425 64.216 C 269.779 64.027,270.542 63.872,271.120 63.872 C 271.698 63.872,273.996 63.552,276.228 63.162 C 285.310 61.572,298.760 62.483,308.653 65.356 C 309.340 65.555,310.705 65.935,311.686 66.200 C 315.161 67.139,322.012 70.117,324.710 71.863 C 331.684 76.374,332.474 76.964,336.075 80.363 C 344.014 87.857,349.976 97.112,354.412 108.831 C 356.952 115.544,358.672 124.776,359.157 134.317 C 359.784 146.622,360.161 160.925,360.376 180.553 L 360.625 203.211 360.670 178.769 C 360.695 165.326,360.568 152.239,360.387 149.688 C 360.206 147.136,359.890 141.115,359.683 136.307 C 359.477 131.499,359.150 127.078,358.957 126.484 C 358.763 125.889,358.455 123.820,358.272 121.885 C 358.089 119.950,357.769 118.197,357.560 117.988 C 357.352 117.780,357.174 117.039,357.165 116.343 C 357.157 115.646,356.904 114.434,356.604 113.649 C 356.303 112.864,355.896 111.539,355.698 110.705 C 355.501 109.871,355.206 109.188,355.043 109.188 C 354.879 109.188,354.639 108.555,354.508 107.781 C 354.378 107.008,354.042 106.185,353.763 105.954 C 353.484 105.722,353.256 105.296,353.256 105.007 C 353.256 104.718,353.016 104.055,352.723 103.534 C 352.430 103.013,352.029 102.186,351.832 101.695 C 351.635 101.204,351.335 100.562,351.166 100.268 C 350.997 99.973,350.394 98.810,349.827 97.682 C 349.260 96.554,348.675 95.631,348.528 95.630 C 348.381 95.629,348.260 95.421,348.260 95.168 C 348.260 94.552,344.118 88.300,342.747 86.848 C 342.149 86.214,341.283 85.205,340.823 84.605 C 339.536 82.926,333.933 77.431,333.508 77.431 C 333.401 77.431,332.703 76.870,331.956 76.184 C 331.209 75.498,330.422 74.936,330.207 74.935 C 329.992 74.934,329.526 74.612,329.170 74.219 C 328.815 73.827,328.322 73.506,328.074 73.506 C 327.827 73.506,327.571 73.376,327.505 73.217 C 327.405 72.973,324.796 71.337,322.926 70.344 C 320.364 68.983,319.321 68.510,318.885 68.510 C 318.604 68.510,318.183 68.280,317.949 67.998 C 317.716 67.716,317.014 67.375,316.389 67.239 C 315.765 67.103,314.938 66.771,314.550 66.502 C 314.163 66.233,313.393 66.012,312.838 66.012 C 312.283 66.012,311.389 65.785,310.852 65.507 C 310.314 65.229,309.078 64.837,308.104 64.635 C 307.130 64.434,305.691 64.109,304.906 63.912 C 303.527 63.567,300.609 63.056,296.521 62.442 C 294.066 62.074,279.478 62.091,277.074 62.466 M112.043 66.531 C 111.552 66.806,110.348 67.374,109.367 67.793 C 106.578 68.983,105.245 69.681,105.421 69.857 C 105.510 69.946,106.354 69.665,107.296 69.233 C 109.806 68.081,113.051 66.743,114.541 66.247 C 114.835 66.149,114.594 66.060,114.005 66.050 C 113.417 66.040,112.533 66.256,112.043 66.531 M40.396 67.864 C 40.060 68.200,39.964 92.049,39.964 175.458 L 39.964 282.620 40.803 283.002 C 42.026 283.560,67.833 282.797,69.153 282.165 L 70.116 281.703 70.138 260.299 L 70.159 238.894 69.959 260.049 C 69.799 277.004,69.666 281.261,69.289 281.494 C 68.644 281.893,62.705 282.211,50.814 282.486 L 40.790 282.717 40.555 281.546 C 40.163 279.585,40.277 69.744,40.671 68.708 L 41.020 67.789 55.390 67.882 L 69.759 67.975 69.954 74.576 L 70.149 81.178 70.132 74.398 L 70.116 67.618 55.472 67.525 C 44.380 67.455,40.724 67.537,40.396 67.864 M103.675 70.267 C 103.563 70.447,102.429 71.103,101.156 71.724 C 99.882 72.344,98.840 72.964,98.840 73.100 C 98.840 73.237,98.399 73.542,97.859 73.778 C 97.319 74.014,96.396 74.526,95.807 74.916 C 95.219 75.306,94.295 75.875,93.756 76.180 C 93.216 76.486,92.774 76.892,92.774 77.083 C 92.774 77.274,92.587 77.431,92.358 77.431 C 92.129 77.431,91.688 77.675,91.377 77.973 C 91.066 78.272,89.527 79.488,87.957 80.677 C 85.180 82.779,77.431 90.386,74.949 93.448 C 74.271 94.285,73.348 95.367,72.897 95.853 C 72.447 96.339,72.079 96.888,72.079 97.075 C 72.079 98.338,70.678 97.263,70.544 95.897 C 70.411 94.535,70.400 94.563,70.434 96.164 C 70.496 99.024,71.415 98.652,74.843 94.380 C 79.856 88.133,88.526 80.238,95.094 75.942 C 98.628 73.630,101.275 72.047,102.712 71.385 C 104.243 70.680,105.145 69.938,104.472 69.938 C 104.145 69.938,103.786 70.086,103.675 70.267 M134.077 91.969 C 135.500 92.037,137.828 92.037,139.251 91.969 C 140.674 91.901,139.509 91.846,136.664 91.846 C 133.818 91.846,132.654 91.901,134.077 91.969 M278.075 91.970 C 280.195 92.033,283.567 92.033,285.568 91.970 C 287.569 91.906,285.834 91.855,281.713 91.855 C 277.591 91.855,275.954 91.907,278.075 91.970 M127.029 92.614 C 126.146 92.867,125.016 93.087,124.518 93.102 C 123.016 93.150,119.457 94.530,120.795 94.546 C 121.389 94.553,122.192 94.341,122.579 94.075 C 122.966 93.809,124.326 93.485,125.602 93.354 C 126.878 93.223,128.724 92.893,129.706 92.620 L 131.490 92.124 130.062 92.139 C 129.277 92.147,127.913 92.361,127.029 92.614 M143.739 92.617 C 144.588 92.884,146.274 93.212,147.486 93.346 C 148.697 93.479,150.005 93.807,150.392 94.074 C 150.779 94.340,151.484 94.558,151.958 94.558 C 152.780 94.558,153.714 94.931,157.360 96.714 C 159.826 97.920,160.923 98.551,163.245 100.094 C 165.628 101.679,173.747 109.582,174.420 110.972 C 174.657 111.463,175.158 112.346,175.533 112.935 C 176.155 113.911,177.335 116.227,178.625 119.001 C 178.899 119.590,179.227 120.633,179.353 121.320 C 179.480 122.007,179.750 122.890,179.955 123.283 C 180.451 124.235,181.160 127.822,182.354 135.415 C 182.764 138.025,182.808 138.526,183.455 148.082 C 184.096 157.557,184.440 160.255,184.295 154.683 C 184.149 149.041,183.258 137.634,182.735 134.701 C 182.525 133.524,182.192 131.517,181.996 130.241 C 181.226 125.233,179.026 118.140,177.278 115.029 C 174.709 110.456,173.691 109.069,170.759 106.147 C 166.381 101.783,163.427 99.370,160.621 97.866 C 156.359 95.581,154.662 94.847,151.472 93.905 C 146.388 92.404,139.312 91.225,143.739 92.617 M272.012 92.420 C 271.582 92.593,270.217 92.918,268.979 93.143 C 267.740 93.367,266.566 93.680,266.369 93.838 C 266.173 93.996,265.691 94.204,265.299 94.300 C 264.800 94.423,264.910 94.488,265.665 94.517 C 266.260 94.540,267.062 94.341,267.450 94.076 C 267.837 93.810,269.093 93.486,270.241 93.355 C 272.337 93.115,275.027 92.080,273.506 92.098 C 273.113 92.102,272.441 92.247,272.012 92.420 M290.364 92.559 C 291.001 92.854,292.523 93.209,293.745 93.347 C 294.968 93.485,296.185 93.814,296.449 94.078 C 296.713 94.342,297.359 94.564,297.885 94.571 C 298.410 94.577,299.483 94.893,300.268 95.272 C 301.053 95.651,301.976 95.967,302.319 95.974 C 302.663 95.980,302.944 96.112,302.944 96.266 C 302.944 96.419,303.947 97.015,305.174 97.589 C 307.350 98.608,309.036 99.635,310.007 100.535 C 310.272 100.781,310.647 100.981,310.842 100.981 C 311.036 100.981,312.918 102.707,315.023 104.817 C 319.319 109.122,321.260 111.803,323.614 116.682 C 324.041 117.565,324.703 118.930,325.086 119.715 C 325.469 120.500,325.782 121.422,325.782 121.765 C 325.781 122.108,326.087 123.312,326.461 124.441 C 326.836 125.570,327.236 127.983,327.350 129.802 C 327.464 131.621,327.725 133.789,327.928 134.619 C 328.157 135.553,328.430 148.922,328.643 169.670 C 328.833 188.118,329.131 204.095,329.307 205.174 C 329.514 206.453,329.573 203.348,329.476 196.253 C 328.841 149.951,328.568 135.694,328.266 133.241 C 328.076 131.689,327.765 129.135,327.575 127.565 C 326.382 117.668,318.857 105.915,309.778 99.770 C 307.188 98.016,300.590 94.588,299.732 94.551 C 299.438 94.538,298.555 94.282,297.770 93.982 C 296.360 93.443,292.881 92.606,290.455 92.222 L 289.206 92.024 290.364 92.559 M117.395 95.081 C 116.140 95.725,114.354 96.520,111.864 97.542 C 107.440 99.359,101.238 103.501,96.521 107.789 C 93.276 110.740,92.765 111.244,90.938 113.299 C 88.543 115.991,86.247 118.892,83.588 122.586 C 82.720 123.791,78.228 132.711,77.756 134.166 C 77.597 134.657,77.048 136.182,76.536 137.556 C 75.532 140.252,74.644 143.087,74.359 144.514 L 74.180 145.406 74.718 144.514 C 75.013 144.023,75.365 142.899,75.500 142.016 C 75.635 141.133,75.964 140.094,76.231 139.707 C 76.498 139.319,76.723 138.757,76.729 138.458 C 76.736 138.158,77.052 137.270,77.431 136.485 C 77.810 135.700,78.126 134.842,78.132 134.578 C 78.139 134.314,78.361 133.671,78.625 133.151 C 78.890 132.630,79.475 131.401,79.927 130.419 C 80.378 129.438,80.888 128.394,81.059 128.100 C 81.230 127.806,81.610 127.083,81.904 126.494 C 82.524 125.249,82.878 124.678,84.546 122.230 C 85.222 121.239,86.122 119.918,86.547 119.294 C 86.972 118.671,87.543 117.924,87.817 117.636 C 88.090 117.347,88.796 116.496,89.384 115.745 C 91.777 112.694,98.651 106.249,101.817 104.087 C 102.621 103.538,103.364 102.976,103.468 102.838 C 103.708 102.520,104.758 101.859,106.244 101.091 C 106.882 100.762,107.404 100.361,107.404 100.202 C 107.404 100.042,107.623 99.911,107.891 99.911 C 108.159 99.911,108.761 99.611,109.229 99.244 C 109.697 98.877,110.602 98.463,111.240 98.323 C 111.878 98.184,112.400 97.922,112.400 97.741 C 112.400 97.561,112.663 97.413,112.985 97.413 C 113.524 97.413,114.296 97.096,118.287 95.234 C 119.137 94.838,119.426 94.580,119.001 94.596 C 118.608 94.611,117.886 94.830,117.395 95.081 M262.818 94.888 C 262.706 95.069,262.094 95.329,261.459 95.466 C 259.517 95.885,252.862 99.020,249.777 100.970 C 244.904 104.050,240.952 107.288,236.915 111.508 C 233.349 115.236,232.639 116.087,230.964 118.644 C 230.064 120.018,229.032 121.577,228.670 122.109 C 228.307 122.640,228.011 123.155,228.011 123.253 C 228.011 123.350,227.564 124.200,227.018 125.140 C 225.343 128.028,222.258 135.378,221.058 139.340 C 220.702 140.517,220.113 142.405,219.750 143.534 C 219.387 144.663,219.090 146.058,219.090 146.633 C 219.090 147.208,218.916 148.131,218.703 148.683 C 218.309 149.705,217.423 156.359,217.120 160.571 C 216.985 162.443,217.022 162.684,217.311 161.820 C 217.507 161.231,217.845 158.662,218.062 156.111 C 218.279 153.559,218.587 151.223,218.747 150.919 C 218.907 150.615,219.152 149.331,219.290 148.065 C 219.429 146.799,219.746 145.359,219.995 144.866 C 220.244 144.373,220.566 143.168,220.710 142.190 C 220.855 141.211,221.191 140.094,221.459 139.707 C 221.726 139.319,221.950 138.677,221.957 138.279 C 221.963 137.881,222.279 136.913,222.658 136.128 C 223.038 135.343,223.353 134.360,223.360 133.942 C 223.367 133.524,223.613 132.983,223.907 132.739 C 224.202 132.494,224.442 132.065,224.442 131.784 C 224.442 131.504,224.751 130.680,225.129 129.955 C 225.507 129.229,226.189 127.832,226.646 126.851 C 227.102 125.870,227.586 124.983,227.721 124.881 C 227.856 124.779,228.145 124.297,228.364 123.811 C 229.343 121.630,232.561 116.823,233.876 115.575 C 234.372 115.104,234.781 114.596,234.784 114.446 C 234.798 113.819,243.506 105.630,245.084 104.760 C 245.408 104.581,245.802 104.219,245.959 103.957 C 246.116 103.694,246.469 103.479,246.744 103.479 C 247.019 103.479,247.372 103.275,247.529 103.025 C 247.686 102.776,248.216 102.367,248.707 102.116 C 250.904 100.993,251.561 100.563,251.561 100.248 C 251.561 100.063,251.764 99.911,252.012 99.911 C 252.261 99.911,253.023 99.614,253.707 99.252 C 254.391 98.890,255.393 98.485,255.932 98.353 C 256.472 98.221,256.913 97.963,256.913 97.779 C 256.913 97.596,257.470 97.341,258.150 97.213 C 258.830 97.086,259.572 96.757,259.799 96.484 C 260.026 96.210,260.634 95.979,261.150 95.971 C 262.385 95.951,264.959 94.595,263.803 94.573 C 263.373 94.565,262.930 94.707,262.818 94.888 M73.399 148.447 C 73.046 150.111,72.611 152.801,72.432 154.426 C 72.254 156.052,72.022 157.519,71.917 157.688 C 71.367 158.579,70.560 184.903,70.489 204.282 C 70.414 224.497,70.423 224.826,70.639 210.169 C 70.994 186.164,71.698 164.344,72.251 160.214 C 72.527 158.153,72.850 155.263,72.969 153.791 C 73.088 152.319,73.430 150.460,73.728 149.660 C 74.026 148.859,74.218 147.578,74.155 146.813 C 74.055 145.597,73.960 145.803,73.399 148.447 M184.672 191.818 C 184.782 209.101,185.020 224.275,185.203 225.538 C 185.385 226.800,185.537 240.136,185.541 255.175 C 185.548 279.403,185.611 282.570,186.100 282.975 C 186.876 283.619,209.420 283.164,212.419 282.444 C 215.698 281.657,215.532 282.153,215.450 273.373 L 215.377 265.656 215.182 273.268 C 215.007 280.094,214.919 280.929,214.335 281.356 C 213.333 282.087,208.498 282.375,196.789 282.402 L 186.084 282.426 185.877 251.740 C 185.642 216.730,184.888 161.282,184.640 160.749 C 184.549 160.553,184.563 174.534,184.672 191.818 M216.255 172.168 C 215.875 179.012,215.729 191.129,215.700 218.376 L 215.660 255.308 215.887 221.053 C 216.012 202.037,216.307 183.226,216.549 178.769 C 216.789 174.353,216.937 168.974,216.878 166.815 C 216.785 163.428,216.700 164.162,216.255 172.168 M360.893 243.889 C 360.933 264.496,360.905 281.637,360.831 281.980 C 360.657 282.790,331.047 282.964,330.535 282.159 C 330.379 281.913,330.159 265.656,330.047 246.030 L 329.842 210.348 329.774 246.278 L 329.706 282.208 330.499 282.763 C 331.922 283.760,360.129 283.582,361.141 282.570 C 361.887 281.824,361.889 281.767,361.630 265.710 C 361.486 256.849,361.246 239.884,361.095 228.011 C 360.850 208.701,360.829 210.377,360.893 243.889 " stroke="none" fill="#accad6" fill-rule="evenodd"></path><path id="path3" d="M135.415 62.092 C 134.434 62.262,132.105 62.565,130.241 62.766 C 128.376 62.967,125.888 63.363,124.710 63.646 C 120.181 64.735,117.904 65.347,117.217 65.661 C 116.824 65.841,115.941 66.139,115.254 66.325 L 114.005 66.662 115.076 66.686 C 115.665 66.700,116.846 66.393,117.702 66.005 C 118.557 65.616,119.766 65.299,120.388 65.299 C 121.010 65.299,121.835 65.078,122.222 64.808 C 122.609 64.538,123.809 64.200,124.888 64.057 C 125.968 63.914,127.728 63.573,128.799 63.299 C 129.871 63.025,131.878 62.794,133.260 62.786 C 134.641 62.777,136.494 62.618,137.377 62.432 C 139.339 62.020,148.672 62.651,150.758 63.338 C 151.543 63.596,153.185 63.910,154.407 64.035 C 155.629 64.160,157.074 64.494,157.619 64.778 C 158.163 65.062,159.170 65.283,159.857 65.268 C 161.170 65.241,161.106 65.207,158.252 64.415 C 151.231 62.465,139.910 61.314,135.415 62.092 M280.642 62.841 C 278.680 62.998,276.432 63.287,275.647 63.483 C 273.984 63.898,275.538 63.826,282.070 63.186 C 287.437 62.659,292.571 62.720,294.591 63.332 C 295.554 63.625,297.145 63.847,298.127 63.826 L 299.911 63.788 298.305 63.492 C 293.374 62.584,292.055 62.453,288.314 62.502 C 286.057 62.532,282.605 62.684,280.642 62.841 M269.759 64.288 C 269.269 64.493,267.984 64.872,266.905 65.132 C 262.242 66.252,260.517 66.751,259.549 67.255 L 258.519 67.792 259.457 67.794 C 259.972 67.796,260.576 67.578,260.798 67.311 C 261.019 67.044,261.962 66.734,262.893 66.623 C 263.824 66.513,265.067 66.170,265.656 65.863 C 266.244 65.555,267.264 65.302,267.921 65.301 C 268.578 65.300,269.622 65.065,270.240 64.779 C 270.859 64.493,272.007 64.199,272.792 64.125 C 274.082 64.004,274.047 63.988,272.435 63.954 C 271.454 63.934,270.250 64.084,269.759 64.288 M301.517 64.178 C 302.400 64.322,303.473 64.633,303.902 64.869 C 304.330 65.105,305.294 65.288,306.043 65.275 L 307.404 65.251 305.620 64.721 C 304.639 64.429,302.953 64.129,301.873 64.053 C 300.023 63.923,300.003 63.930,301.517 64.178 M162.533 66.032 C 163.318 66.403,164.442 66.696,165.031 66.682 C 166.002 66.658,165.962 66.618,164.610 66.245 C 163.790 66.019,163.000 65.714,162.856 65.566 C 162.711 65.419,162.258 65.312,161.850 65.328 C 161.310 65.349,161.498 65.542,162.533 66.032 M308.434 65.831 C 308.803 66.111,309.847 66.449,310.753 66.582 C 311.659 66.715,312.716 67.043,313.103 67.311 C 313.491 67.578,314.133 67.797,314.531 67.798 C 314.929 67.799,315.780 68.120,316.423 68.512 C 317.065 68.903,317.888 69.224,318.252 69.224 C 318.616 69.224,319.113 69.465,319.358 69.759 C 319.602 70.054,319.965 70.294,320.165 70.294 C 320.762 70.294,323.700 71.813,325.509 73.057 C 326.439 73.696,327.338 74.219,327.506 74.219 C 327.674 74.219,328.102 74.541,328.457 74.933 C 328.812 75.326,329.319 75.647,329.583 75.647 C 329.846 75.647,330.062 75.791,330.062 75.968 C 330.062 76.145,330.584 76.604,331.222 76.988 C 333.865 78.577,339.149 83.821,342.452 88.132 C 343.281 89.213,344.095 90.261,344.261 90.461 C 344.428 90.660,345.027 91.623,345.592 92.601 C 346.158 93.580,346.739 94.464,346.883 94.566 C 347.027 94.668,347.324 95.150,347.543 95.636 C 347.761 96.123,348.330 97.163,348.807 97.948 C 349.284 98.733,349.765 99.616,349.877 99.911 C 349.989 100.205,350.393 101.040,350.776 101.766 C 351.159 102.491,351.472 103.315,351.472 103.595 C 351.472 103.876,351.713 104.305,352.007 104.550 C 352.302 104.794,352.542 105.356,352.542 105.798 C 352.542 106.241,352.779 106.799,353.068 107.039 C 353.357 107.279,353.697 108.062,353.822 108.778 C 353.947 109.494,354.252 110.405,354.500 110.802 C 354.747 111.199,355.071 112.242,355.218 113.121 C 355.512 114.869,356.467 116.681,356.467 115.489 C 356.467 115.138,356.282 114.504,356.055 114.079 C 355.828 113.655,355.516 112.823,355.361 112.230 C 352.114 99.760,340.689 82.877,330.955 76.165 C 326.044 72.779,325.124 72.182,323.818 71.531 C 323.229 71.237,322.507 70.848,322.212 70.666 C 321.062 69.954,316.216 67.850,314.184 67.181 C 307.844 65.092,307.284 64.961,308.434 65.831 M112.400 67.261 C 111.763 67.626,111.678 67.775,112.103 67.784 C 112.941 67.802,113.827 67.422,113.827 67.045 C 113.827 66.605,113.446 66.663,112.400 67.261 M166.637 67.261 C 166.881 67.556,167.503 67.800,168.019 67.804 C 168.534 67.809,169.656 68.130,170.512 68.518 C 171.367 68.906,172.337 69.224,172.666 69.224 C 172.996 69.224,173.896 69.545,174.665 69.938 C 175.435 70.330,176.253 70.651,176.481 70.651 C 176.710 70.651,177.097 70.892,177.342 71.186 C 177.586 71.481,178.009 71.722,178.281 71.722 C 178.553 71.722,179.576 72.284,180.553 72.971 C 181.530 73.657,182.456 74.219,182.611 74.219 C 182.766 74.219,183.151 74.500,183.466 74.844 C 183.782 75.187,184.470 75.789,184.995 76.182 C 185.521 76.574,186.262 77.177,186.642 77.520 C 187.022 77.864,187.404 78.145,187.491 78.145 C 187.912 78.145,193.974 84.582,194.883 85.995 C 195.199 86.485,196.118 87.576,196.926 88.418 C 197.733 89.261,198.394 90.025,198.394 90.117 C 198.394 90.209,198.916 91.053,199.554 91.993 C 201.385 94.691,201.588 95.024,202.153 96.253 C 202.446 96.891,202.831 97.413,203.009 97.413 C 203.187 97.413,203.436 97.884,203.563 98.459 C 203.689 99.034,204.023 99.696,204.305 99.930 C 204.587 100.164,204.817 100.645,204.817 100.999 C 204.817 101.354,205.031 101.858,205.292 102.119 C 205.553 102.380,205.880 103.074,206.018 103.661 C 206.237 104.590,206.590 105.467,207.672 107.761 C 208.441 109.392,211.954 108.313,211.954 106.445 C 211.954 106.188,212.118 105.977,212.318 105.977 C 212.519 105.977,212.877 105.535,213.114 104.996 C 213.351 104.456,213.629 103.934,213.731 103.836 C 214.248 103.342,215.879 100.714,215.879 100.376 C 215.879 100.162,216.120 99.895,216.414 99.782 C 216.708 99.669,216.949 99.406,216.949 99.198 C 216.949 97.439,227.970 85.812,233.541 81.694 C 234.719 80.823,235.811 79.910,235.968 79.663 C 236.125 79.417,236.469 79.215,236.732 79.215 C 236.996 79.215,237.304 78.974,237.417 78.680 C 237.530 78.385,237.857 78.145,238.144 78.145 C 238.430 78.145,238.881 77.944,239.146 77.698 C 239.991 76.914,241.887 75.647,242.214 75.647 C 242.388 75.647,242.821 75.326,243.176 74.933 C 243.531 74.541,244.108 74.219,244.459 74.219 C 244.809 74.219,245.197 74.056,245.320 73.857 C 245.610 73.388,252.048 70.294,252.735 70.294 C 253.022 70.294,253.458 70.054,253.702 69.759 C 253.946 69.465,254.529 69.224,254.996 69.224 C 255.463 69.224,256.445 68.903,257.177 68.510 C 258.227 67.947,258.345 67.797,257.732 67.797 C 257.305 67.797,256.864 67.945,256.752 68.126 C 256.640 68.307,256.028 68.569,255.393 68.709 C 254.757 68.848,253.678 69.262,252.994 69.628 C 252.310 69.995,251.573 70.294,251.358 70.294 C 249.958 70.294,241.352 75.454,234.206 80.577 C 229.127 84.219,223.241 89.995,218.609 95.884 C 218.207 96.396,216.709 98.595,215.281 100.771 C 209.540 109.522,208.485 110.261,207.482 106.241 C 207.346 105.700,207.093 105.168,206.919 105.060 C 206.744 104.952,206.601 104.594,206.601 104.264 C 206.601 102.749,198.967 89.228,198.094 89.198 C 197.965 89.194,197.297 88.394,196.610 87.422 C 195.923 86.449,195.241 85.650,195.094 85.646 C 194.946 85.641,194.826 85.462,194.826 85.247 C 194.826 85.032,193.020 83.050,190.812 80.843 C 184.230 74.263,178.402 70.512,171.444 68.375 C 169.683 67.835,167.874 67.243,167.423 67.059 C 166.288 66.598,166.122 66.640,166.637 67.261 M41.106 68.225 C 40.581 68.750,40.484 281.389,41.008 282.218 C 41.282 282.649,42.786 282.662,51.440 282.302 C 57.002 282.070,63.087 281.883,64.963 281.886 C 67.138 281.889,68.593 281.730,68.980 281.445 C 69.542 281.032,69.612 277.461,69.949 232.487 C 70.149 205.805,70.467 181.719,70.655 178.963 C 71.021 173.614,71.116 168.194,70.841 168.470 C 70.230 169.080,69.863 184.093,69.520 222.480 C 68.998 280.972,68.996 281.095,68.229 281.306 C 67.893 281.398,61.677 281.527,54.416 281.593 L 41.213 281.713 41.116 175.914 C 41.062 117.725,41.105 69.755,41.212 69.313 L 41.405 68.510 54.890 68.510 C 65.121 68.510,68.518 68.618,68.970 68.956 C 69.507 69.358,69.576 70.829,69.663 83.747 C 69.733 94.158,69.874 98.207,70.179 98.511 C 71.012 99.344,72.273 98.493,74.561 95.555 C 78.539 90.446,91.536 78.145,92.956 78.145 C 93.085 78.145,93.859 77.623,94.677 76.985 C 96.176 75.816,97.129 75.216,98.930 74.306 C 99.469 74.033,99.911 73.674,99.911 73.508 C 99.911 73.342,100.393 73.100,100.981 72.971 C 101.570 72.841,102.052 72.600,102.052 72.435 C 102.052 72.269,102.614 71.948,103.301 71.722 C 103.988 71.495,104.550 71.179,104.550 71.020 C 104.550 70.861,105.095 70.628,105.763 70.503 C 106.430 70.378,107.172 70.039,107.412 69.750 C 107.652 69.461,108.190 69.223,108.607 69.222 C 109.025 69.220,109.848 68.900,110.437 68.510 C 112.034 67.453,110.937 67.649,108.208 68.909 C 103.648 71.015,102.226 71.726,100.803 72.612 C 100.018 73.101,98.974 73.699,98.483 73.941 C 97.687 74.334,96.628 75.031,92.953 77.580 C 92.364 77.989,91.802 78.414,91.704 78.524 C 91.606 78.635,90.321 79.613,88.849 80.698 C 86.120 82.709,78.807 89.759,76.124 92.964 C 73.919 95.598,72.496 97.415,72.369 97.756 C 72.307 97.922,71.859 98.114,71.372 98.182 C 70.074 98.363,70.027 97.836,69.980 82.541 C 69.943 70.670,69.865 68.846,69.377 68.357 C 68.642 67.623,41.834 67.497,41.106 68.225 M281.272 91.246 C 281.814 91.328,282.617 91.326,283.056 91.241 C 283.495 91.157,283.051 91.090,282.070 91.092 C 281.088 91.095,280.729 91.164,281.272 91.246 M127.743 91.698 C 127.056 91.845,126.093 92.138,125.602 92.348 C 124.338 92.888,125.768 92.928,127.298 92.395 C 127.897 92.186,130.049 91.888,132.079 91.732 L 135.772 91.449 132.382 91.439 C 130.517 91.433,128.430 91.550,127.743 91.698 M141.446 91.711 C 143.390 91.886,145.461 92.197,146.049 92.402 C 147.684 92.972,148.413 92.828,147.205 92.174 C 146.452 91.767,144.966 91.573,142.031 91.498 L 137.913 91.393 141.446 91.711 M271.428 91.865 C 270.677 92.133,269.968 92.447,269.852 92.563 C 269.473 92.942,270.856 92.785,271.652 92.359 C 272.079 92.131,274.196 91.834,276.357 91.700 L 280.285 91.457 276.539 91.417 C 274.183 91.393,272.286 91.559,271.428 91.865 M287.600 91.693 C 289.661 91.850,291.799 92.158,292.352 92.377 C 294.020 93.037,295.169 92.862,293.666 92.176 C 292.796 91.779,291.119 91.576,288.136 91.507 L 283.854 91.408 287.600 91.693 M121.132 93.265 C 120.745 93.535,119.755 93.868,118.932 94.006 C 118.109 94.144,117.247 94.486,117.015 94.765 C 116.531 95.348,116.776 95.416,117.668 94.945 C 118.447 94.535,122.629 93.228,123.818 93.024 C 124.405 92.924,124.219 92.855,123.273 92.823 C 122.483 92.796,121.519 92.995,121.132 93.265 M149.688 93.106 C 150.277 93.248,151.109 93.552,151.538 93.783 C 151.966 94.013,152.609 94.203,152.965 94.204 C 153.321 94.205,154.073 94.446,154.635 94.739 C 155.920 95.409,156.135 95.411,155.583 94.746 C 155.343 94.457,154.561 94.113,153.845 93.982 C 153.128 93.851,152.226 93.525,151.839 93.259 C 151.451 92.992,150.568 92.791,149.876 92.811 L 148.617 92.847 149.688 93.106 M266.052 93.187 C 265.682 93.402,264.574 93.791,263.591 94.050 C 261.769 94.531,260.554 95.272,261.588 95.272 C 261.882 95.272,262.276 95.134,262.462 94.965 C 262.649 94.795,263.443 94.481,264.228 94.265 C 268.909 92.979,269.310 92.823,267.975 92.809 C 267.288 92.802,266.423 92.972,266.052 93.187 M298.027 93.845 C 299.738 94.407,301.959 95.279,302.962 95.783 C 303.966 96.287,304.894 96.694,305.025 96.688 C 305.565 96.661,303.528 95.272,302.948 95.272 C 302.601 95.272,302.128 95.044,301.896 94.765 C 301.665 94.486,300.802 94.144,299.979 94.006 C 299.157 93.868,298.167 93.535,297.780 93.265 C 297.393 92.995,296.590 92.785,295.996 92.799 C 295.226 92.816,295.809 93.116,298.027 93.845 M114.005 95.986 C 112.620 96.903,113.276 96.903,115.076 95.986 C 115.995 95.517,116.235 95.273,115.776 95.274 C 115.391 95.276,114.594 95.596,114.005 95.986 M156.319 95.405 C 156.401 95.478,157.752 96.224,159.322 97.063 C 164.131 99.632,170.052 104.502,173.132 108.422 C 174.903 110.675,178.412 116.421,178.412 117.068 C 178.412 117.249,178.733 117.997,179.126 118.729 C 179.618 119.649,179.836 119.841,179.828 119.352 C 179.822 118.963,179.581 118.332,179.293 117.951 C 179.005 117.570,178.769 117.005,178.769 116.694 C 178.769 116.384,178.219 115.295,177.547 114.275 C 176.876 113.255,176.234 112.131,176.122 111.778 C 176.010 111.425,175.435 110.607,174.846 109.961 C 174.256 109.316,173.773 108.662,173.773 108.510 C 173.773 107.849,166.287 100.736,165.153 100.320 C 164.965 100.251,164.378 99.788,163.850 99.291 C 163.322 98.795,162.409 98.167,161.820 97.896 C 160.654 97.359,159.844 96.894,158.355 95.911 C 157.562 95.387,155.811 94.952,156.319 95.405 M258.570 95.807 C 258.276 96.102,257.914 96.343,257.765 96.343 C 257.138 96.343,250.491 99.571,250.491 99.875 C 250.491 100.005,250.049 100.309,249.509 100.550 C 248.328 101.079,247.259 101.717,246.552 102.316 C 246.265 102.560,245.147 103.433,244.068 104.257 C 240.677 106.844,234.077 113.146,234.077 113.796 C 234.077 113.976,233.924 114.178,233.738 114.243 C 233.209 114.429,230.152 118.496,230.152 119.014 C 230.152 119.269,229.970 119.537,229.748 119.611 C 229.350 119.744,227.445 122.923,226.450 125.113 C 226.171 125.726,225.766 126.338,225.549 126.472 C 225.333 126.605,225.156 127.107,225.156 127.586 C 225.156 128.065,225.006 128.457,224.823 128.457 C 224.640 128.457,224.383 128.818,224.251 129.260 C 224.016 130.048,223.105 132.173,222.045 134.403 C 221.750 135.024,221.573 135.727,221.652 135.964 C 221.731 136.202,222.088 135.694,222.445 134.835 C 223.506 132.279,225.465 127.854,225.900 127.029 C 226.055 126.735,226.631 125.611,227.180 124.532 C 227.729 123.452,228.702 121.808,229.343 120.878 C 229.984 119.948,230.508 119.096,230.508 118.986 C 230.508 116.167,246.684 101.843,253.345 98.762 C 257.852 96.678,260.015 95.697,260.482 95.526 C 260.791 95.412,260.614 95.317,260.061 95.300 C 259.535 95.285,258.865 95.513,258.570 95.807 M110.972 97.235 C 110.728 97.529,110.248 97.770,109.906 97.770 C 109.564 97.770,108.900 98.051,108.429 98.394 C 107.203 99.290,106.261 99.866,105.427 100.231 C 105.026 100.407,104.485 100.808,104.224 101.123 C 103.962 101.437,103.596 101.695,103.409 101.695 C 102.117 101.695,91.760 111.061,88.671 115.024 C 88.082 115.779,87.360 116.646,87.065 116.950 C 86.241 117.802,83.177 122.103,82.682 123.104 C 82.438 123.595,81.827 124.639,81.323 125.424 C 80.819 126.209,79.971 127.814,79.438 128.992 C 78.905 130.169,78.236 131.559,77.950 132.080 C 77.664 132.601,77.431 133.344,77.431 133.731 C 77.431 134.119,77.207 134.621,76.933 134.849 C 76.659 135.076,76.324 135.858,76.187 136.587 C 76.051 137.316,75.771 138.116,75.566 138.365 C 75.360 138.614,75.066 139.417,74.912 140.149 C 74.758 140.882,74.386 142.123,74.085 142.908 C 73.783 143.693,73.544 144.897,73.552 145.584 C 73.566 146.757,73.595 146.724,74.040 145.049 C 75.116 140.993,76.098 138.002,77.119 135.673 C 77.487 134.834,77.788 133.993,77.788 133.805 C 77.788 132.728,83.219 122.615,84.601 121.119 C 84.975 120.714,85.281 120.254,85.281 120.098 C 85.281 119.844,85.853 119.113,89.206 115.080 C 91.820 111.937,96.618 107.358,100.089 104.697 C 102.248 103.041,104.175 101.564,104.371 101.413 C 105.139 100.824,108.410 98.978,110.616 97.888 C 112.071 97.169,112.652 96.734,112.176 96.721 C 111.758 96.709,111.217 96.940,110.972 97.235 M309.013 99.149 C 312.423 101.380,316.301 104.951,319.724 109.011 C 320.564 110.007,322.519 113.267,324.177 116.436 C 324.655 117.350,324.928 117.604,325.009 117.212 C 325.075 116.891,324.886 116.359,324.588 116.030 C 324.290 115.701,323.872 115.030,323.659 114.540 C 323.446 114.050,322.955 113.167,322.568 112.578 C 322.180 111.989,321.754 111.267,321.621 110.972 C 320.647 108.820,313.351 101.402,310.259 99.419 C 309.081 98.664,307.683 97.744,307.151 97.373 C 306.619 97.003,305.978 96.699,305.727 96.699 C 305.475 96.699,306.954 97.802,309.013 99.149 M356.497 117.818 C 356.481 118.737,356.655 119.942,356.885 120.494 C 357.115 121.047,357.424 122.382,357.573 123.461 C 357.824 125.280,357.833 125.241,357.695 122.926 C 357.614 121.552,357.317 119.465,357.037 118.287 L 356.527 116.146 356.497 117.818 M325.241 118.644 C 327.210 123.567,328.552 130.930,328.753 137.913 C 328.808 139.832,328.871 139.043,328.910 135.950 C 328.946 133.104,328.807 130.134,328.602 129.349 C 328.397 128.564,328.032 126.678,327.791 125.157 C 327.550 123.637,327.160 122.200,326.924 121.964 C 326.688 121.728,326.494 121.109,326.494 120.590 C 326.494 120.070,326.148 119.259,325.725 118.788 C 325.077 118.065,325.001 118.043,325.241 118.644 M179.852 120.684 C 179.845 121.020,180.063 121.823,180.336 122.468 C 181.032 124.112,182.337 129.896,182.339 131.349 C 182.340 132.015,182.513 133.178,182.722 133.933 C 182.932 134.688,183.230 136.615,183.385 138.215 L 183.667 141.124 183.707 138.269 C 183.729 136.699,183.576 134.773,183.365 133.988 C 183.155 133.202,182.790 131.276,182.553 129.706 C 182.316 128.136,181.930 126.399,181.695 125.847 C 181.459 125.294,181.261 124.411,181.255 123.884 C 181.241 122.827,179.871 119.702,179.852 120.684 M358.036 128.278 C 358.087 129.848,358.317 132.819,358.547 134.880 C 359.267 141.334,360.501 232.007,360.313 264.585 L 360.214 281.713 345.965 281.806 C 334.802 281.879,331.653 281.802,331.430 281.449 C 331.272 281.202,331.122 277.627,331.095 273.506 C 331.068 269.384,330.933 263.202,330.796 259.768 C 330.585 254.506,330.536 255.717,330.482 267.461 C 330.434 278.131,330.524 281.541,330.865 282.006 C 331.275 282.565,332.504 282.607,345.941 282.520 L 360.571 282.426 360.507 237.645 C 360.421 178.457,359.621 136.044,358.450 128.635 L 357.943 125.424 358.036 128.278 M220.785 137.936 C 220.442 138.626,220.168 139.626,220.176 140.157 C 220.190 141.020,220.251 140.970,220.741 139.697 C 221.848 136.816,221.875 135.746,220.785 137.936 M219.510 142.199 C 219.251 142.767,218.948 144.042,218.836 145.032 C 218.725 146.023,218.415 147.267,218.148 147.797 C 217.881 148.327,217.676 149.531,217.691 150.473 L 217.720 152.186 218.241 149.866 C 218.528 148.591,218.907 146.711,219.083 145.690 C 219.260 144.669,219.584 143.496,219.805 143.084 C 220.025 142.672,220.155 142.072,220.093 141.751 C 220.013 141.337,219.842 141.469,219.510 142.199 M183.805 143.910 C 183.783 144.854,183.936 146.735,184.147 148.089 C 184.357 149.444,184.665 154.934,184.831 160.290 L 185.133 170.027 184.983 158.608 C 184.882 150.886,184.673 146.382,184.339 144.692 L 183.845 142.194 183.805 143.910 M329.050 148.796 C 329.018 151.445,329.164 161.320,329.375 170.740 C 329.586 180.161,329.880 201.998,330.029 219.269 C 330.273 247.545,330.305 248.716,330.343 231.044 C 330.394 207.224,329.766 152.485,329.385 147.547 L 329.110 143.979 329.050 148.796 M72.805 147.702 C 72.602 148.081,72.454 149.085,72.476 149.932 L 72.517 151.472 72.783 150.223 C 72.929 149.536,73.169 148.533,73.316 147.993 C 73.625 146.858,73.343 146.697,72.805 147.702 M71.758 154.229 C 71.464 155.351,71.228 158.414,71.173 161.820 L 71.080 167.529 71.349 162.890 C 71.497 160.339,71.824 157.112,72.075 155.718 C 72.634 152.611,72.432 151.659,71.758 154.229 M217.212 154.326 C 217.069 155.112,216.801 156.557,216.615 157.538 C 216.430 158.519,216.293 161.249,216.311 163.604 L 216.344 167.886 216.605 163.604 C 216.748 161.249,217.059 158.353,217.296 157.169 C 217.532 155.985,217.668 154.540,217.599 153.958 C 217.480 152.964,217.457 152.986,217.212 154.326 M215.929 168.956 C 215.283 172.292,215.068 183.226,214.794 226.762 C 214.492 274.706,214.394 280.639,213.895 281.139 C 213.616 281.419,202.302 281.818,193.495 281.859 C 186.655 281.891,186.632 281.889,186.463 281.088 C 186.369 280.647,186.204 256.682,186.095 227.832 C 185.986 198.983,185.749 174.335,185.569 173.060 C 185.349 171.502,185.292 174.959,185.396 183.586 C 185.481 190.651,185.639 215.299,185.747 238.359 C 185.854 261.418,186.022 280.807,186.119 281.445 L 186.295 282.605 192.969 282.603 C 202.542 282.600,213.012 281.981,213.957 281.362 C 215.094 280.617,215.179 277.261,215.340 226.996 C 215.431 198.560,215.629 180.621,215.891 177.041 C 216.220 172.552,216.244 167.332,215.929 168.956 " stroke="none" fill="#87b4c4" fill-rule="evenodd"></path><path id="path4" d="M139.082 61.636 C 139.921 61.711,141.206 61.710,141.936 61.633 C 142.667 61.556,141.980 61.495,140.410 61.496 C 138.840 61.497,138.242 61.560,139.082 61.636 M280.367 62.702 C 281.000 62.781,282.124 62.782,282.864 62.705 C 283.605 62.627,283.087 62.563,281.713 62.561 C 280.339 62.560,279.733 62.623,280.367 62.702 M40.497 175.201 C 40.497 233.586,40.538 257.471,40.589 228.278 C 40.639 199.086,40.639 151.316,40.589 122.123 C 40.538 92.930,40.497 116.815,40.497 175.201 M70.090 88.671 C 70.090 92.988,70.141 94.706,70.204 92.487 C 70.267 90.268,70.267 86.736,70.204 84.637 C 70.141 82.538,70.089 84.353,70.090 88.671 M84.010 84.657 L 82.962 85.816 84.121 84.768 C 85.202 83.791,85.445 83.497,85.169 83.497 C 85.108 83.497,84.586 84.019,84.010 84.657 M136.222 91.599 C 136.666 91.685,137.308 91.681,137.649 91.592 C 137.990 91.503,137.627 91.433,136.842 91.437 C 136.057 91.441,135.778 91.514,136.222 91.599 M281.095 91.606 C 281.736 91.685,282.699 91.683,283.236 91.602 C 283.772 91.521,283.247 91.456,282.070 91.458 C 280.892 91.460,280.453 91.526,281.095 91.606 M170.547 105.709 C 172.026 107.285,172.346 107.568,172.346 107.300 C 172.346 107.243,171.583 106.480,170.651 105.605 L 168.956 104.014 170.547 105.709 M95.610 108.385 L 94.380 109.723 95.718 108.494 C 96.964 107.349,97.220 107.047,96.948 107.047 C 96.888 107.047,96.286 107.649,95.610 108.385 M354.352 109.367 C 354.352 109.563,354.581 110.125,354.862 110.616 C 355.142 111.106,355.372 111.347,355.372 111.151 C 355.372 110.955,355.142 110.393,354.862 109.902 C 354.581 109.411,354.352 109.170,354.352 109.367 M91.146 112.846 L 90.098 114.005 91.258 112.957 C 91.896 112.381,92.417 111.859,92.417 111.798 C 92.417 111.522,92.123 111.765,91.146 112.846 M328.361 133.809 C 328.361 134.496,328.435 134.777,328.524 134.434 C 328.614 134.090,328.614 133.528,328.524 133.185 C 328.435 132.841,328.361 133.122,328.361 133.809 M359.055 134.344 C 359.059 135.129,359.132 135.408,359.218 134.965 C 359.303 134.521,359.300 133.878,359.210 133.537 C 359.121 133.196,359.051 133.559,359.055 134.344 M183.498 142.194 C 183.502 142.979,183.575 143.259,183.660 142.815 C 183.745 142.371,183.742 141.729,183.653 141.387 C 183.564 141.046,183.494 141.409,183.498 142.194 M328.762 143.979 C 328.761 145.745,328.821 146.512,328.896 145.684 C 328.971 144.856,328.972 143.411,328.898 142.473 C 328.824 141.535,328.763 142.212,328.762 143.979 M359.444 146.476 C 359.446 148.046,359.508 148.644,359.584 147.805 C 359.659 146.966,359.658 145.681,359.581 144.950 C 359.505 144.220,359.443 144.906,359.444 146.476 M184.204 150.223 C 184.204 150.910,184.278 151.191,184.367 150.847 C 184.457 150.504,184.457 149.942,184.367 149.599 C 184.278 149.255,184.204 149.536,184.204 150.223 M359.806 155.397 C 359.804 157.163,359.865 157.931,359.940 157.103 C 360.014 156.274,360.015 154.829,359.942 153.891 C 359.868 152.953,359.807 153.631,359.806 155.397 M184.598 158.073 C 184.598 159.545,184.661 160.147,184.738 159.411 C 184.815 158.675,184.815 157.471,184.738 156.735 C 184.661 155.999,184.598 156.601,184.598 158.073 M71.448 160.928 C 71.448 161.615,71.521 161.896,71.611 161.552 C 71.701 161.209,71.701 160.647,71.611 160.303 C 71.521 159.960,71.448 160.241,71.448 160.928 M329.136 166.102 C 329.137 169.242,329.191 170.479,329.258 168.850 C 329.324 167.222,329.324 164.653,329.257 163.141 C 329.190 161.629,329.136 162.962,329.136 166.102 M216.675 161.998 C 216.675 162.685,216.749 162.966,216.838 162.623 C 216.928 162.279,216.928 161.717,216.838 161.374 C 216.749 161.030,216.675 161.311,216.675 161.998 M360.188 174.487 C 360.188 178.903,360.239 180.709,360.302 178.501 C 360.365 176.293,360.365 172.681,360.302 170.473 C 360.239 168.265,360.188 170.071,360.188 174.487 M71.110 168.956 C 71.113 169.938,71.182 170.297,71.264 169.754 C 71.346 169.212,71.344 168.409,71.259 167.970 C 71.175 167.531,71.107 167.975,71.110 168.956 M216.333 169.135 C 216.333 170.018,216.402 170.379,216.487 169.938 C 216.572 169.496,216.572 168.773,216.487 168.332 C 216.402 167.890,216.333 168.252,216.333 169.135 M184.971 173.952 C 184.972 176.307,185.030 177.224,185.100 175.990 C 185.169 174.755,185.169 172.828,185.098 171.708 C 185.028 170.587,184.970 171.597,184.971 173.952 M215.981 176.450 C 215.983 177.431,216.053 177.790,216.135 177.248 C 216.217 176.705,216.215 175.902,216.130 175.463 C 216.045 175.025,215.978 175.468,215.981 176.450 M70.762 177.877 C 70.764 179.054,70.830 179.493,70.910 178.852 C 70.989 178.210,70.988 177.247,70.906 176.711 C 70.825 176.175,70.760 176.699,70.762 177.877 M329.506 188.403 C 329.506 193.996,329.555 196.285,329.616 193.488 C 329.676 190.691,329.676 186.115,329.616 183.318 C 329.555 180.522,329.506 182.810,329.506 188.403 M215.636 181.980 C 215.636 183.256,215.701 183.778,215.780 183.140 C 215.859 182.502,215.859 181.459,215.780 180.821 C 215.701 180.183,215.636 180.705,215.636 181.980 M70.421 185.013 C 70.420 186.780,70.480 187.547,70.555 186.719 C 70.630 185.891,70.631 184.446,70.557 183.508 C 70.483 182.570,70.422 183.247,70.421 185.013 M185.350 199.465 C 185.350 205.450,185.399 207.899,185.459 204.906 C 185.518 201.913,185.518 197.016,185.459 194.023 C 185.399 191.030,185.350 193.479,185.350 199.465 M215.322 211.597 C 215.322 216.994,215.371 219.202,215.432 216.503 C 215.492 213.805,215.492 209.389,215.432 206.690 C 215.371 203.992,215.322 206.200,215.322 211.597 M360.539 208.921 C 360.538 212.257,360.592 213.670,360.658 212.060 C 360.724 210.451,360.724 207.721,360.658 205.994 C 360.593 204.267,360.539 205.584,360.539 208.921 M329.832 207.493 C 329.831 209.260,329.892 210.027,329.966 209.199 C 330.041 208.371,330.042 206.926,329.968 205.988 C 329.895 205.049,329.833 205.727,329.832 207.493 M70.102 222.837 C 70.102 231.864,70.148 235.506,70.205 230.930 C 70.261 226.354,70.261 218.967,70.205 214.516 C 70.148 210.065,70.102 213.809,70.102 222.837 M185.659 222.837 C 185.661 224.014,185.728 224.453,185.807 223.812 C 185.887 223.170,185.885 222.207,185.804 221.671 C 185.722 221.135,185.657 221.659,185.659 222.837 M215.325 253.702 C 215.325 260.473,215.373 263.243,215.432 259.857 C 215.491 256.472,215.491 250.932,215.432 247.547 C 215.373 244.161,215.325 246.931,215.325 253.702 M330.221 261.374 C 330.221 267.458,330.270 269.997,330.329 267.016 C 330.389 264.035,330.389 259.058,330.329 255.954 C 330.270 252.851,330.221 255.290,330.221 261.374 M69.732 268.689 C 69.732 272.908,69.784 274.634,69.847 272.525 C 69.910 270.415,69.910 266.963,69.847 264.853 C 69.784 262.743,69.732 264.469,69.732 268.689 M360.901 274.041 C 360.901 278.260,360.953 279.987,361.016 277.877 C 361.079 275.767,361.079 272.315,361.016 270.205 C 360.953 268.095,360.901 269.822,360.901 274.041 M214.922 277.966 C 214.922 279.242,214.987 279.764,215.066 279.126 C 215.145 278.488,215.145 277.444,215.066 276.806 C 214.987 276.169,214.922 276.690,214.922 277.966 M58.608 282.153 C 59.541 282.227,61.066 282.227,61.998 282.153 C 62.930 282.080,62.168 282.020,60.303 282.020 C 58.439 282.020,57.676 282.080,58.608 282.153 M50.055 282.511 C 50.993 282.584,52.439 282.584,53.267 282.509 C 54.095 282.434,53.327 282.374,51.561 282.375 C 49.795 282.376,49.117 282.437,50.055 282.511 " stroke="none" fill="#95bccc" fill-rule="evenodd"></path></g></svg>